<?xml version="1.0" standalone="no"?>
<!DOCTYPE svg PUBLIC "-//W3C//DTD SVG 1.1//EN" "http://www.w3.org/Graphics/SVG/1.1/DTD/svg11.dtd" >
<svg xmlns="http://www.w3.org/2000/svg" xmlns:xlink="http://www.w3.org/1999/xlink" version="1.1">
<metadata></metadata>
<defs>
<font id="playbold" horiz-adv-x="1187" >
<font-face units-per-em="2048" ascent="1638" descent="-410" />
<missing-glyph horiz-adv-x="471" />
<glyph unicode="fb" horiz-adv-x="1982" d="M20 807v184h187v150q0 182 92 247.5t293 65.5q82 0 176 -10v-184q-80 10 -129 10q-74 0 -103.5 -23.5t-29.5 -89.5v-166h252v-184h-252v-807h-299v807h-187zM864 352v1082h299v-541q27 68 99.5 93.5t222.5 25.5q127 0 207 -20.5t120.5 -66.5t54 -101.5t13.5 -145.5v-326 q0 -203 -122 -287.5t-392 -84.5q-285 0 -393.5 89t-108.5 283zM1163 313q0 -88 38 -117.5t169 -29.5t171 29.5t40 117.5v367q0 96 -36 121.5t-177 25.5q-127 0 -166 -32.5t-39 -114.5v-367z" />
<glyph unicode="fh" horiz-adv-x="1951" d="M20 807v184h187v150q0 182 92 247.5t293 65.5q82 0 176 -10v-184q-80 10 -129 10q-74 0 -103.5 -23.5t-29.5 -89.5v-166h252v-184h-252v-807h-299v807h-187zM864 0v1434h299v-564q29 141 314 142q197 0 270.5 -71t73.5 -214v-727h-299v692q0 82 -28 108.5t-132 26.5 q-129 0 -164 -25.5t-35 -109.5v-692h-299z" />
<glyph unicode="fj" horiz-adv-x="1294" d="M20 807v184h187v150q0 182 92 247.5t293 65.5q82 0 176 -10v-184q-80 10 -129 10q-74 0 -103.5 -23.5t-29.5 -89.5v-166h252v-184h-252v-807h-299v807h-187zM655 -252q12 -2 37 -2q111 0 141.5 28.5t30.5 143.5v1073h299v-1141q0 -176 -105.5 -238.5t-305.5 -62.5 q-27 0 -97 5v194zM864 1192v242h299v-242h-299z" />
<glyph unicode="fk" horiz-adv-x="1839" d="M20 807v184h187v150q0 182 92 247.5t293 65.5q82 0 176 -10v-184q-80 10 -129 10q-74 0 -103.5 -23.5t-29.5 -89.5v-166h252v-184h-252v-807h-299v807h-187zM864 0v1434h299v-1434h-299zM1176 557l325 434h342l-344 -432l373 -559h-338z" />
<glyph unicode="ffb" horiz-adv-x="2639" d="M20 807v184h187v150q0 182 92 247.5t293 65.5q82 0 176 -10v-184q-80 10 -129 10q-74 0 -103.5 -23.5t-29.5 -89.5v-166h358v150q0 182 92.5 247.5t292.5 65.5q82 0 176 -10v-184q-80 10 -129 10q-74 0 -103.5 -23.5t-29.5 -89.5v-166h252v-184h-252v-807h-299v807h-358 v-807h-299v807h-187zM1522 352v1082h299v-541q27 68 99.5 93.5t221.5 25.5q127 0 207 -20.5t121 -66.5t54 -101.5t13 -145.5v-326q0 -203 -121.5 -287.5t-392.5 -84.5q-285 0 -393 89t-108 283zM1821 313q0 -88 37.5 -117.5t169 -29.5t171 29.5t39.5 117.5v367 q0 96 -35.5 121.5t-177.5 25.5q-127 0 -165.5 -32.5t-38.5 -114.5v-367z" />
<glyph unicode="ffh" horiz-adv-x="2609" d="M20 807v184h187v150q0 182 92 247.5t293 65.5q82 0 176 -10v-184q-80 10 -129 10q-74 0 -103.5 -23.5t-29.5 -89.5v-166h358v150q0 182 92.5 247.5t292.5 65.5q82 0 176 -10v-184q-80 10 -129 10q-74 0 -103.5 -23.5t-29.5 -89.5v-166h252v-184h-252v-807h-299v807h-358 v-807h-299v807h-187zM1522 0v1434h299v-564q29 141 313 142q197 0 270.5 -71t73.5 -214v-727h-299v692q0 82 -27.5 108.5t-132.5 26.5q-129 0 -163.5 -25.5t-34.5 -109.5v-692h-299z" />
<glyph unicode="ffj" horiz-adv-x="1951" d="M20 807v184h187v150q0 182 92 247.5t293 65.5q82 0 176 -10v-184q-80 10 -129 10q-74 0 -103.5 -23.5t-29.5 -89.5v-166h358v150q0 182 92.5 247.5t292.5 65.5q82 0 176 -10v-184q-80 10 -129 10q-74 0 -103.5 -23.5t-29.5 -89.5v-166h252v-184h-252v-807h-299v807h-358 v-807h-299v807h-187zM1313 -252q12 -2 37 -2q111 0 141.5 28.5t30.5 143.5v1073h299v-1141q0 -176 -105.5 -238.5t-306.5 -62.5q-27 0 -96 5v194zM1522 1192v242h299v-242h-299z" />
<glyph unicode="ffk" horiz-adv-x="2496" d="M20 807v184h187v150q0 182 92 247.5t293 65.5q82 0 176 -10v-184q-80 10 -129 10q-74 0 -103.5 -23.5t-29.5 -89.5v-166h358v150q0 182 92.5 247.5t292.5 65.5q82 0 176 -10v-184q-80 10 -129 10q-74 0 -103.5 -23.5t-29.5 -89.5v-166h252v-184h-252v-807h-299v807h-358 v-807h-299v807h-187zM1522 0v1434h299v-1434h-299zM1833 557l326 434h342l-344 -432l372 -559h-338z" />
<glyph unicode="ft" horiz-adv-x="1476" d="M20 807v184h187v150q0 182 92 247.5t293 65.5q82 0 176 -10v-184q-80 10 -129 10q-74 0 -103.5 -23.5t-29.5 -89.5v-166h358v287h299v-287h273v-184h-273v-467q0 -102 31 -138t135 -36q35 0 107 10v-186q-86 -10 -166 -10q-70 0 -122 5t-108.5 24.5t-92.5 51t-59.5 90 t-23.5 138.5v518h-358v-807h-299v807h-187z" />
<glyph unicode="fff" horiz-adv-x="2383" d="M20 807v184h187v150q0 182 92 247.5t293 65.5q86 0 223 -16v-185q-123 16 -176 17q-74 0 -103.5 -23.5t-29.5 -89.5v-166h272v-184h-272v-807h-299v807h-187zM815 807v184h186v150q0 182 92.5 247.5t292.5 65.5q86 0 224 -16v-185q-123 16 -176 17q-74 0 -104 -23.5 t-30 -89.5v-166h273v-184h-273v-807h-299v807h-186zM1610 807v184h186v150q0 182 92 247.5t293 65.5q86 0 223 -16v-185q-123 16 -176 17q-74 0 -103.5 -23.5t-29.5 -89.5v-166h272v-184h-272v-807h-299v807h-186z" />
<glyph unicode="&#xd;" horiz-adv-x="681" />
<glyph unicode=" "  horiz-adv-x="471" />
<glyph unicode="&#x09;" horiz-adv-x="471" />
<glyph unicode="&#xa0;" horiz-adv-x="471" />
<glyph unicode="!" horiz-adv-x="604" d="M123 1329h358l-88 -944h-182zM143 0v283h320v-283h-320z" />
<glyph unicode="&#x22;" horiz-adv-x="907" d="M137 817v512h242v-512h-242zM526 817v512h244v-512h-244z" />
<glyph unicode="#" d="M123 395v162h209l45 213h-254v164h287l75 375h177l-76 -375h131l76 375h176l-76 -375h172v-164h-207l-43 -213h250v-162h-283l-80 -395h-176l80 395h-131l-80 -395h-176l80 395h-176zM508 557h131l45 213h-133z" />
<glyph unicode="$" horiz-adv-x="1241" d="M68 887v69q0 156 109.5 238t354.5 96v148h193v-144q201 -8 383 -26v-219q-254 31 -383 34v-303h27q231 0 326.5 -86t95.5 -254v-61q0 -190 -119 -280.5t-330 -110.5v-275h-193v267q-164 2 -438 36v236q35 -6 110 -18.5t112.5 -17.5t98 -11t117.5 -6v340h-38 q-426 0 -426 348zM375 870q-1 -86 157 -90v301q-90 -6 -123.5 -26.5t-33.5 -69.5v-115zM725 209q139 20 139 104v115q0 47 -27.5 75.5t-111.5 35.5v-330z" />
<glyph unicode="%" horiz-adv-x="1751" d="M76 807v244q0 70 21.5 120t52 76.5t80 42t90 19.5t98 4t98.5 -4t90 -19.5t79 -42t51.5 -76.5t21.5 -120v-244q0 -145 -84 -190.5t-256 -45.5q-174 0 -258 45.5t-84 190.5zM303 786q0 -37 28.5 -48t86.5 -11q112 0 112 59v301q0 70 -112 70q-115 0 -115 -70v-301zM461 -20 l663 1370h179l-664 -1370h-178zM993 215v244q0 70 21.5 120t52.5 76.5t80 42t90 19.5t98.5 4t98.5 -4t90 -19.5t78.5 -42t51 -76.5t21.5 -120v-244q0 -145 -84 -190t-256 -45q-174 0 -258 45t-84 190zM1221 195q0 -59 114 -60q113 1 113 60v301q0 70 -113 69 q-115 0 -114 -69v-301z" />
<glyph unicode="&#x26;" horiz-adv-x="1343" d="M102 250v248q0 162 267 245l-62 66q-63 70 -63 147v162q0 115 103.5 173.5t289.5 58.5q135 0 340 -35v-203q-188 43 -328 43q-117 0 -117 -63v-80q0 -47 19 -68l430 -473v305h270v-330q0 -115 -73 -192l39 -43q16 -16 36 -16h90v-195h-188q-100 0 -139 43l-15 14 q-150 -78 -395 -77q-227 0 -365.5 64.5t-138.5 205.5zM410 297q0 -59 49 -90t184 -31q162 0 223 27l-389 422q-68 -25 -67 -78v-250z" />
<glyph unicode="'" horiz-adv-x="524" d="M141 817v512h242v-512h-242z" />
<glyph unicode="(" horiz-adv-x="712" d="M143 565q0 233 65.5 431t203.5 395h278q-254 -420 -254 -826q0 -419 256 -825h-280q-268 375 -269 825z" />
<glyph unicode=")" horiz-adv-x="712" d="M0 -260q256 406 256 825q0 406 -254 826h279q137 -197 202.5 -395t65.5 -431q0 -451 -268 -825h-281z" />
<glyph unicode="*" horiz-adv-x="913" d="M90 985l70 205l215 -90l-23 229h217l-20 -227l207 88l65 -205l-223 -49l154 -176l-183 -121l-112 195l-115 -195l-180 123l157 174z" />
<glyph unicode="+" d="M143 541v207h346v366h207v-366h348v-207h-348v-369h-207v369h-346z" />
<glyph unicode="," horiz-adv-x="524" d="M39 -229l94 512h311l-192 -512h-213z" />
<glyph unicode="-" horiz-adv-x="794" d="M82 471v229h631v-229h-631z" />
<glyph unicode="." horiz-adv-x="524" d="M102 0v283h320v-283h-320z" />
<glyph unicode="/" horiz-adv-x="882" d="M20 -20l664 1370h178l-663 -1370h-179z" />
<glyph unicode="0" d="M104 346v637q0 98 30 169t72 108.5t112.5 58t130 26t143.5 5.5q82 0 140.5 -5.5t130 -27t115.5 -58t74.5 -107.5t30.5 -169v-637q0 -98 -30.5 -169t-74.5 -107.5t-115.5 -58t-130 -26.5t-140.5 -5q-84 0 -143.5 5t-130 25.5t-112.5 58t-72 108.5t-30 169zM408 326 q0 -96 30.5 -125t157.5 -29q125 0 154.5 28.5t29.5 125.5v678q0 96 -29.5 124.5t-154.5 28.5q-127 0 -157.5 -28.5t-30.5 -124.5v-678z" />
<glyph unicode="1" d="M174 815v252l420 262h242v-1329h-299v1016z" />
<glyph unicode="2" d="M119 0v303q0 115 64.5 196t155.5 120.5t182 70.5t155.5 70t64.5 96v170q0 61 -51 84t-172 23q-137 0 -373 -52v226q207 43 428 43q236 0 357 -72t121 -248v-184q0 -109 -65.5 -184.5t-159 -113.5t-187.5 -70t-159.5 -77t-65.5 -110v-68h639v-223h-934z" />
<glyph unicode="3" d="M96 10v238q20 -4 65.5 -13.5t61 -12.5t51 -9t55 -8t50.5 -5t60.5 -4t64.5 -1q119 0 165 28.5t46 108.5v153q0 96 -207 97h-242v204h242q160 0 160 117v129q0 63 -38 87t-161 24q-119 0 -360 -25v213q281 18 393 19q242 0 357.5 -55.5t115.5 -204.5v-220q0 -63 -38 -103 t-89 -54q180 -66 180 -199v-217q0 -172 -118.5 -244.5t-366.5 -72.5q-174 0 -447 30z" />
<glyph unicode="4" d="M53 268v236l547 825h338v-846h143v-215h-143v-268h-270v268h-615zM309 483h359v564z" />
<glyph unicode="5" d="M125 2v248q248 -47 383 -47q111 0 163 24.5t52 81.5v199q0 55 -37 78.5t-121 23.5h-409v719h839v-229h-540v-271h209q57 0 113.5 -10t116.5 -35.5t98 -80t38 -130.5v-278q0 -84 -31.5 -145.5t-76.5 -93t-116 -50t-126 -22.5t-131 -4q-154 0 -424 22z" />
<glyph unicode="6" d="M113 346v619q0 104 35.5 179t85 113.5t128 60t139 27t142.5 5.5q74 0 369 -21v-219q-287 33 -396 33q-139 0 -172.5 -24.5t-33.5 -131.5v-158h219q98 0 151.5 -3t119 -19t98 -47t55 -89.5t22.5 -144.5v-180q0 -98 -29.5 -167.5t-72.5 -107.5t-111.5 -59.5t-128 -26.5 t-141.5 -5q-84 0 -143.5 5t-128 26.5t-109.5 59.5t-69.5 107.5t-28.5 167.5zM410 330q0 -98 29.5 -125t156.5 -27t154.5 26t27.5 128v192q0 70 -30.5 89.5t-153.5 19.5h-184v-303z" />
<glyph unicode="7" d="M82 1096v233h975v-205l-510 -1124h-332l512 1096h-645z" />
<glyph unicode="8" d="M86 272v230q0 68 66.5 124t154.5 76v9q-68 8 -122 56t-54 114v190q0 139 101.5 209t361.5 70t361.5 -70t101.5 -209v-190q0 -66 -54.5 -114t-121.5 -56v-9q88 -20 154.5 -76.5t66.5 -123.5v-230q0 -166 -126 -229t-382 -63t-382 63t-126 229zM399 297q0 -76 33 -99.5 t162 -23.5t161.5 23.5t32.5 99.5v180q0 61 -35.5 88t-156.5 27t-159 -26.5t-38 -88.5v-180zM432 891q0 -55 34 -82t128 -27t128 27t34 82v153q0 57 -34 84t-128 27t-128 -26.5t-34 -84.5v-153z" />
<glyph unicode="9" d="M113 803v180q0 98 29.5 168t72.5 107.5t111.5 59t128 27t141.5 5.5q84 0 143.5 -5.5t128 -27t110.5 -59t70.5 -107.5t28.5 -168v-618q0 -211 -126 -298t-396 -87q-166 0 -379 20v213q252 -29 375 -29q154 0 191.5 36t37.5 155v125h-221q-98 0 -151.5 3t-119 19.5t-98 47 t-55 89t-22.5 144.5zM410 807q0 -70 30.5 -89.5t153.5 -19.5h186v312q0 96 -28.5 117.5t-159.5 21.5q-121 0 -151.5 -22.5t-30.5 -116.5v-203z" />
<glyph unicode=":" horiz-adv-x="524" d="M102 0v283h320v-283h-320zM102 709v282h320v-282h-320z" />
<glyph unicode=";" horiz-adv-x="524" d="M39 -229l94 512h311l-192 -512h-213zM102 709v282h320v-282h-320z" />
<glyph unicode="&#x3c;" d="M143 530v230l901 313v-227l-667 -201l667 -201v-227z" />
<glyph unicode="=" d="M143 336v207h901v-207h-901zM143 745v207h901v-207h-901z" />
<glyph unicode="&#x3e;" d="M143 217v227l668 201l-668 201v227l901 -313v-230z" />
<glyph unicode="?" horiz-adv-x="1083" d="M82 1094v223q262 33 446 33q96 0 163 -5.5t129.5 -22.5t99 -47t59 -81t22.5 -123v-197q0 -59 -35.5 -109t-88 -85t-104.5 -66.5t-88 -66.5t-36 -70v-92h-278v119q0 78 32.5 136t79.5 92t94.5 62.5t80 66.5t32.5 87v96q0 55 -39 77t-162 22q-94 0 -407 -49zM350 0v283h320 v-283h-320z" />
<glyph unicode="@" horiz-adv-x="1611" d="M115 340v629q0 80 33.5 143.5t92 103t127 67.5t149.5 42t146.5 19.5t131.5 5.5q111 0 215 -14.5t224 -50.5t193.5 -116.5t73.5 -197.5v-498q0 -170 -264 -170h-63q-74 0 -138.5 20.5t-74.5 51.5q-33 -76 -193 -76q-176 0 -240.5 48t-64.5 202v231q0 150 71.5 199 t274.5 49t264.5 -49t61.5 -199v-293q0 -29 18 -39t61 -10t59.5 9.5t16.5 39.5v478q0 225 -493 225q-68 0 -120 -3t-121 -16.5t-113 -36t-75.5 -66.5t-31.5 -103v-609q0 -221 463 -221q135 0 491 49v-157q-352 -47 -495 -47q-680 0 -680 360zM684 535q0 -70 15.5 -83.5 t91.5 -13.5h22q74 0 92.5 17.5t18.5 99.5v213q0 86 -19.5 107.5t-101.5 21.5q-78 0 -98.5 -22.5t-20.5 -106.5v-233z" />
<glyph unicode="A" horiz-adv-x="1368" d="M4 0l492 1329h389l479 -1329h-324l-118 350h-486l-117 -350h-315zM508 563h344l-168 500h-8z" />
<glyph unicode="B" horiz-adv-x="1300" d="M143 0v1329h539q283 0 383 -63.5t100 -221.5v-163q0 -57 -45 -106.5t-102 -65.5v-11q74 -8 140.5 -65t66.5 -131v-205q0 -166 -133.5 -231.5t-395.5 -65.5h-553zM463 227h227q117 0 166 27t49 86v106q0 74 -38 105t-134 31h-270v-355zM463 788h219q113 0 144.5 29 t31.5 105v65q0 66 -30.5 90.5t-151.5 24.5h-213v-314z" />
<glyph unicode="C" horiz-adv-x="1222" d="M115 365v583q0 401 616 402q152 0 422 -45v-240q-244 57 -418 57q-70 0 -113.5 -4t-92 -20.5t-72 -52t-23.5 -93.5v-565q0 -180 330 -180q145 0 397 59v-241q-225 -45 -430 -45q-82 0 -154.5 7t-161.5 30.5t-151.5 63.5t-105.5 112.5t-43 171.5z" />
<glyph unicode="D" horiz-adv-x="1454" d="M143 0v1329h566q338 0 484 -83.5t146 -319.5v-541q0 -225 -139 -305t-489 -80h-568zM463 227h233q184 0 254 28t70 130v547q0 96 -78 133t-235 37h-244v-875z" />
<glyph unicode="E" horiz-adv-x="1249" d="M143 0v1329h1014v-227h-694v-305h627v-228h-627v-342h715v-227h-1035z" />
<glyph unicode="F" horiz-adv-x="1249" d="M143 0v1329h1035v-227h-715v-326h647v-227h-647v-549h-320z" />
<glyph unicode="G" horiz-adv-x="1443" d="M115 365v553q0 104 43 184t108.5 125t157.5 74.5t177 39t179 9.5q283 0 541 -43v-242q-244 57 -541 57q-346 0 -346 -200v-535q0 -102 97.5 -141t277.5 -39q100 0 215 31v309h-217v209h522v-690q-102 -37 -261 -61.5t-292 -24.5q-111 0 -200 9t-178 34.5t-149.5 66.5 t-97 110.5t-36.5 164.5z" />
<glyph unicode="H" horiz-adv-x="1490" d="M143 0v1329h320v-532h565v532h320v-1329h-320v569h-565v-569h-320z" />
<glyph unicode="I" horiz-adv-x="606" d="M143 0v1329h320v-1329h-320z" />
<glyph unicode="J" horiz-adv-x="911" d="M39 0v233q147 -26 245 -26h7q162 0 162 145v977h319v-967q0 -215 -116.5 -298.5t-340.5 -83.5q-133 0 -276 20z" />
<glyph unicode="K" horiz-adv-x="1396" d="M143 0v1329h320v-1329h-320zM471 705l498 624h374l-503 -618l559 -711h-389z" />
<glyph unicode="L" d="M143 0v1329h320v-1102h653v-227h-973z" />
<glyph unicode="M" horiz-adv-x="1820" d="M143 0v1329h455l328 -950l323 950h428v-1329h-288v983h-7l-335 -983h-256l-347 983h-8v-983h-293z" />
<glyph unicode="N" horiz-adv-x="1538" d="M143 0v1329h324l643 -907v907h285v-1329h-324l-643 922v-922h-285z" />
<glyph unicode="O" horiz-adv-x="1490" d="M115 365v581q0 102 46 180t110.5 119t156.5 66.5t164 32t151 6.5q82 0 155 -6.5t165 -32t157.5 -66.5t110.5 -118t45 -181v-581q0 -113 -59.5 -193t-159.5 -120t-200.5 -56t-213.5 -16q-106 0 -199 13t-198.5 50t-168 119t-62.5 203zM434 365q0 -51 26.5 -85t77 -48.5 t96.5 -19.5t113.5 -5t113.5 5t95.5 19.5t75 48.5t25.5 85v583q0 96 -79 135t-233 39q-156 0 -233.5 -37.5t-77.5 -136.5v-583z" />
<glyph unicode="P" horiz-adv-x="1284" d="M143 0v1329h533q283 0 404.5 -62.5t121.5 -242.5v-252q0 -197 -131 -268.5t-432 -71.5h-176v-432h-320zM463 651h203q125 0 176 29.5t51 101.5v213q0 63 -49 85t-182 22h-199v-451z" />
<glyph unicode="Q" horiz-adv-x="1515" d="M115 365v581q0 102 46 180t110.5 119t156.5 66.5t164 32t151 6.5q82 0 155 -6.5t165 -32t157.5 -66.5t110.5 -118t45 -181v-362q0 -301 -168 -355h291v-229h-436q-35 0 -139.5 -10t-180.5 -10q-106 0 -199 13t-198.5 50t-168 119t-62.5 203zM434 365q0 -51 26.5 -85 t77 -48.5t96.5 -19.5t113.5 -5t113.5 5t95.5 19.5t75 48.5t25.5 85v583q0 96 -79 135t-233 39q-156 0 -233.5 -37.5t-77.5 -136.5v-583z" />
<glyph unicode="R" horiz-adv-x="1368" d="M143 0v1329h598q262 0 383 -63.5t121 -216.5v-234q0 -121 -87 -186.5t-216 -81.5l385 -547h-369l-348 522h-147v-522h-320zM463 733h274q113 0 154 30t41 116v94q0 74 -44 101.5t-151 27.5h-274v-369z" />
<glyph unicode="S" horiz-adv-x="1241" d="M76 913v99q0 172 144.5 255t461.5 83q154 0 416 -27v-238q-311 37 -426 37q-158 0 -217.5 -26.5t-59.5 -89.5v-95q0 -104 176 -104h160q233 0 332.5 -86t99.5 -254v-88q0 -119 -43 -200t-127 -123t-183 -59t-237 -17q-190 0 -471 36v244q340 -53 476 -53q266 0 266 137 v86q0 59 -35 97t-139 38h-156q-438 0 -438 348z" />
<glyph unicode="T" horiz-adv-x="1218" d="M41 1102v227h1137v-227h-408v-1102h-319v1102h-410z" />
<glyph unicode="U" horiz-adv-x="1431" d="M139 365v964h320v-964q0 -90 59.5 -124t200.5 -34q139 0 196.5 33.5t57.5 124.5v964h319v-964q0 -385 -577 -385q-575 0 -576 385z" />
<glyph unicode="V" horiz-adv-x="1359" d="M0 1329h324l356 -1063h8l356 1063h316l-492 -1329h-391z" />
<glyph unicode="W" horiz-adv-x="2017" d="M16 1329h332l258 -971l258 971h297l279 -971l237 971h324l-426 -1329h-315l-254 965l-263 -965h-315z" />
<glyph unicode="X" horiz-adv-x="1386" d="M20 0l490 678l-469 651h369l284 -442l283 442h369l-469 -651l491 -678h-371l-303 471l-305 -471h-369z" />
<glyph unicode="Y" horiz-adv-x="1318" d="M16 1329h363l280 -520l279 520h365l-486 -792v-537h-319v532z" />
<glyph unicode="Z" horiz-adv-x="1253" d="M82 0v195l692 907h-672v227h1065v-192l-692 -908h705v-229h-1098z" />
<glyph unicode="[" horiz-adv-x="761" d="M205 -389v1896h536v-178h-243v-1540h243v-178h-536z" />
<glyph unicode="\" horiz-adv-x="882" d="M20 1350h179l663 -1370h-178z" />
<glyph unicode="]" horiz-adv-x="761" d="M20 -211h244v1540h-244v178h537v-1896h-537v178z" />
<glyph unicode="^" horiz-adv-x="698" d="M41 928l115 465h383l118 -465h-200l-109 383l-106 -383h-201z" />
<glyph unicode="_" d="M145 -123h897v-207h-897v207z" />
<glyph unicode="`" horiz-adv-x="819" d="M154 1393h325l185 -260h-254z" />
<glyph unicode="a" horiz-adv-x="1155" d="M80 297q0 176 67.5 244.5t241.5 68.5h336v68q0 90 -42 119.5t-177 29.5q-127 0 -348 -24v188q170 20 379 21q274 0 380.5 -66.5t106.5 -263.5v-682h-293v90q-33 -59 -94.5 -84.5t-224.5 -25.5q-201 0 -266.5 61t-65.5 256zM373 303q0 -96 25.5 -116.5t129.5 -20.5 q51 0 76 1t53.5 5t40 13.5t19.5 25.5t8 43v192h-205q-98 0 -122.5 -22.5t-24.5 -120.5z" />
<glyph unicode="b" horiz-adv-x="1249" d="M131 352v1082h299v-541q27 68 99.5 93.5t222.5 25.5q127 0 206.5 -20.5t120.5 -66.5t54.5 -101.5t13.5 -145.5v-326q0 -203 -122 -287.5t-392 -84.5q-285 0 -393.5 89t-108.5 283zM430 313q0 -88 38 -117.5t169 -29.5t171 29.5t40 117.5v367q0 96 -36 121.5t-177 25.5 q-127 0 -166 -32.5t-39 -114.5v-367z" />
<glyph unicode="c" horiz-adv-x="987" d="M102 322v329q0 74 17.5 130.5t43 94t72 64.5t85 40t101 21.5t104.5 9.5t110 1q113 0 301 -37v-197q-213 49 -324 49q-207 0 -206 -139v-364q0 -158 227 -158q106 0 317 45v-197q-175 -34 -327 -34h-9q-76 0 -120.5 2t-113.5 11t-111 31.5t-84 58.5t-62.5 96.5 t-20.5 142.5z" />
<glyph unicode="d" horiz-adv-x="1245" d="M102 326v387q0 168 95.5 233.5t300.5 65.5q147 0 206.5 -28t110.5 -103v553h299v-1434h-289v113q-35 -55 -63.5 -81t-86 -39t-163.5 -13q-254 0 -332 63t-78 283zM401 307q0 -82 33 -111.5t154 -29.5q145 0 186 25.5t41 105.5v399q0 74 -40 102.5t-171 28.5 q-137 0 -170 -26.5t-33 -114.5v-379z" />
<glyph unicode="e" horiz-adv-x="1144" d="M102 301v356q0 190 123 272.5t367 82.5q229 0 342 -78t113 -277v-241h-644v-90q0 -84 59.5 -122t223.5 -38q147 0 332 43v-191q-183 -38 -379 -38h-10q-526 0 -527 321zM403 586h359v143q0 47 -38 72.5t-136 25.5q-109 0 -147 -25.5t-38 -72.5v-143z" />
<glyph unicode="f" horiz-adv-x="794" d="M20 807v184h187v150q0 182 92 247.5t293 65.5q86 0 223 -16v-185q-123 16 -176 17q-74 0 -103.5 -23.5t-29.5 -89.5v-166h272v-184h-272v-807h-299v807h-187z" />
<glyph unicode="g" horiz-adv-x="1245" d="M102 279v387q0 201 84 273.5t326 72.5q106 0 163.5 -13.5t86.5 -39t63 -80.5v112h289v-1044q0 -217 -148.5 -307.5t-433.5 -90.5q-233 0 -358 15v200q194 -26 347 -26h11q150 0 216.5 48t66.5 165v160q-51 -76 -110.5 -103.5t-206.5 -27.5q-213 0 -304.5 63t-91.5 236z M401 307q0 -88 33 -114.5t170 -26.5q131 0 171 28.5t40 102.5v399q0 80 -41 105.5t-186 25.5q-121 0 -154 -29.5t-33 -111.5v-379z" />
<glyph unicode="h" horiz-adv-x="1218" d="M131 0v1434h299v-564q29 141 313 142q197 0 270.5 -71t73.5 -214v-727h-299v692q0 82 -27.5 108.5t-131.5 26.5q-129 0 -164 -25.5t-35 -109.5v-692h-299z" />
<glyph unicode="i" horiz-adv-x="577" d="M139 0v991h299v-991h-299zM139 1108v242h299v-242h-299z" />
<glyph unicode="j" horiz-adv-x="561" d="M-78 -252q12 -2 37 -2q111 0 141.5 28.5t30.5 143.5v1073h299v-1141q0 -176 -105.5 -238.5t-306.5 -62.5q-27 0 -96 5v194zM131 1108v242h299v-242h-299z" />
<glyph unicode="k" horiz-adv-x="1105" d="M131 0v1434h299v-1434h-299zM442 557l326 434h342l-344 -432l373 -559h-338z" />
<glyph unicode="l" horiz-adv-x="577" d="M139 0v1434h299v-1434h-299z" />
<glyph unicode="m" horiz-adv-x="1794" d="M131 0v991h299v-121q29 141 293 142q141 0 212 -37t95 -111q25 76 93.5 112t215.5 36q195 0 259.5 -69t64.5 -216v-727h-299v686q0 90 -21.5 115.5t-117.5 25.5q-123 0 -150.5 -25.5t-27.5 -115.5v-686h-299v686q0 90 -21.5 115.5t-118.5 25.5q-123 0 -150.5 -25.5 t-27.5 -115.5v-686h-299z" />
<glyph unicode="n" horiz-adv-x="1218" d="M131 0v991h295v-121q35 141 317 142q197 0 270.5 -71t73.5 -214v-727h-299v688q0 82 -27.5 110.5t-131.5 28.5q-129 0 -164 -27.5t-35 -111.5v-688h-299z" />
<glyph unicode="o" horiz-adv-x="1212" d="M102 340v293q0 102 32 175t78 111.5t120 60t132 27t142 5.5t142.5 -5.5t132 -27t120 -60t78 -111.5t31.5 -175v-293q0 -96 -30.5 -165t-76 -106.5t-118 -58t-133 -25.5t-146.5 -5t-146.5 5t-133 25.5t-117.5 58t-76 106.5t-31 165zM401 305q0 -78 40 -108.5t165 -30.5 t165 30.5t40 108.5v375q0 80 -41 113.5t-164 33.5t-164 -33.5t-41 -113.5v-375z" />
<glyph unicode="p" horiz-adv-x="1247" d="M131 -426v1417h283v-98q27 66 105.5 92.5t230.5 26.5q127 0 206.5 -20.5t120.5 -66.5t54.5 -101.5t13.5 -145.5v-326q0 -221 -98.5 -296.5t-319.5 -75.5q-139 0 -207.5 22.5t-89.5 97.5v-526h-299zM430 313q0 -88 37 -117.5t168 -29.5t171 29.5t40 117.5v367 q0 96 -36 121.5t-177 25.5q-127 0 -165 -32.5t-38 -114.5v-367z" />
<glyph unicode="q" horiz-adv-x="1245" d="M102 326v346q0 205 99.5 272.5t406.5 67.5q121 0 206 -8.5t141.5 -32t88 -48t47 -74.5t19.5 -93t4 -121v-1061h-299v539q-49 -82 -100 -107.5t-203 -25.5q-254 0 -332 63t-78 283zM401 307q0 -82 33 -111.5t154 -29.5q145 0 186 25.5t41 105.5v393q0 74 -40 105.5 t-171 31.5q-137 0 -170 -24.5t-33 -112.5v-383z" />
<glyph unicode="r" horiz-adv-x="813" d="M131 0v991h285v-174q2 74 85 134.5t173 60.5h106v-248h-102q-123 0 -185.5 -38t-62.5 -130v-596h-299z" />
<glyph unicode="s" horiz-adv-x="1075" d="M90 653v121q0 135 129 186.5t365 51.5q98 0 352 -19v-190q-307 24 -357 24h-4q-125 0 -157.5 -17t-32.5 -67v-53q0 -25 25.5 -45t78.5 -20h132q364 0 364 -238v-125q0 -74 -27.5 -127t-69.5 -82.5t-109.5 -46t-130 -21.5t-146.5 -5q-162 0 -391 30v199q285 -43 395 -43 q88 0 136 17.5t48 68.5v61q0 47 -26.5 71t-114.5 24h-129q-156 0 -243 62t-87 183z" />
<glyph unicode="t" horiz-adv-x="833" d="M20 807v184h201v287h299v-287h273v-184h-273v-467q0 -102 31 -138t135 -36q35 0 107 10v-186q-86 -10 -166 -10q-70 0 -122 5t-108.5 24.5t-92.5 51t-59.5 90t-23.5 138.5v518h-201z" />
<glyph unicode="u" horiz-adv-x="1218" d="M131 264v727h299v-686q0 -82 27.5 -110.5t132.5 -28.5q129 0 163.5 27.5t34.5 111.5v686h299v-991h-294v121q-35 -141 -318 -141q-197 0 -270.5 70.5t-73.5 213.5z" />
<glyph unicode="v" horiz-adv-x="1044" d="M0 991h317l218 -686l208 686h301l-364 -991h-303z" />
<glyph unicode="w" horiz-adv-x="1683" d="M16 991h306l184 -719l196 719h293l205 -719l176 719h291l-324 -991h-303l-196 670l-193 -670h-303z" />
<glyph unicode="x" horiz-adv-x="1163" d="M20 0l390 508l-369 483h346l195 -284l196 284h346l-370 -483l391 -508h-346l-217 311l-215 -311h-347z" />
<glyph unicode="y" horiz-adv-x="1093" d="M16 991h326l223 -700l203 700h309l-542 -1417h-304l181 434z" />
<glyph unicode="z" horiz-adv-x="1048" d="M82 0v160l500 637h-480v194h861v-160l-500 -636h512v-195h-893z" />
<glyph unicode="{" horiz-adv-x="786" d="M16 518v189h47q100 0 121 25.5t21 139.5v283q0 111 28.5 184.5t81 108.5t103.5 47t117 12h210v-178h-122q-51 0 -88 -34.5t-37 -98.5v-293q0 -125 -34 -189.5t-128 -97.5v-8q94 -31 128 -95t34 -191v-400q0 -63 36.5 -98t88.5 -35h122v-178h-210q-66 0 -117 12t-103.5 47 t-81 109t-28.5 184v389q0 115 -20.5 140.5t-121.5 25.5h-47z" />
<glyph unicode="|" horiz-adv-x="542" d="M213 -20v1370h117v-1370h-117z" />
<glyph unicode="}" horiz-adv-x="786" d="M41 -211h123q51 0 88 35t37 98v400q0 127 33.5 191.5t128.5 94.5v8q-94 33 -128 97.5t-34 189.5v293q0 63 -37 98t-88 35h-123v178h211q66 0 117 -12t103 -47t81 -108.5t29 -184.5v-283q0 -115 20.5 -140t120.5 -25h47v-189h-47q-100 0 -120.5 -25.5t-20.5 -140.5v-389 q0 -111 -29 -184.5t-81 -108.5t-103.5 -47t-116.5 -12h-211v178z" />
<glyph unicode="~" d="M139 461v207q76 92 250 92q78 0 222.5 -60.5t193.5 -60.5q166 0 244 127v-207q-74 -94 -252 -94q-66 0 -210.5 60.5t-205.5 60.5q-86 0 -142.5 -30t-99.5 -95z" />
<glyph unicode="&#xa1;" horiz-adv-x="604" d="M123 -338l88 944h182l88 -944h-358zM143 709v282h320v-282h-320z" />
<glyph unicode="&#xa2;" horiz-adv-x="950" d="M66 492v329q0 113 33.5 186.5t101 109.5t135 49.5t164.5 15.5v168h168v-172q88 -6 231 -33v-199q-213 49 -342 49q-121 0 -154.5 -19.5t-33.5 -103.5v-426q0 -72 40 -89t169 -17q125 0 335 45v-201q-119 -20 -245 -30v-174h-168v170q-76 2 -130.5 8t-115.5 26.5t-99 55 t-63.5 99t-25.5 153.5z" />
<glyph unicode="&#xa3;" d="M86 0v227h207v353h-207v208h207v154q0 127 30.5 209t95 125t143.5 58.5t198 15.5q106 0 244 -17v-207q-119 18 -195 19q-150 0 -183.5 -26.5t-33.5 -145.5v-185h350v-208h-350v-353h510v-227h-1016z" />
<glyph unicode="&#xa4;" horiz-adv-x="1064" d="M25 690q0 176 127 334l-111 111l53 53l111 -111q156 121 323 121q184 0 334 -117l111 111l53 -53l-111 -111q127 -158 127 -334t-127 -334l111 -110l-53 -53l-111 110q-160 -125 -334 -125q-168 0 -323 121l-111 -110l-53 53l111 110q-127 158 -127 334zM106 690 q0 -178 126 -302t305 -124q176 0 300 127t124 303q0 172 -124 297t-298 125q-180 0 -306.5 -122t-126.5 -304z" />
<glyph unicode="&#xa5;" horiz-adv-x="1325" d="M20 1329h363l281 -520l278 520h365l-363 -584h270v-206h-395v-138h395v-206h-395v-195h-313v195h-393v206h393v138h-393v206h266z" />
<glyph unicode="&#xa6;" horiz-adv-x="542" d="M215 330h113v-719h-113v719zM215 610v719h113v-719h-113z" />
<glyph unicode="&#xa7;" d="M78 485v164q0 51 41 101.5t94 68.5q-39 20 -66.5 62.5t-27.5 83.5v135q0 137 134 193.5t386 56.5q47 0 379 -19v-209q-328 25 -387 25q-98 0 -149.5 -12.5t-58.5 -22.5t-7 -29v-104q0 -59 127 -59h194q180 0 276.5 -69t96.5 -204v-96q0 -74 -43 -138.5t-94 -82.5 q43 -12 69.5 -54.5t26.5 -87.5v-127q0 -96 -43 -159.5t-124 -91t-158.5 -37t-186.5 -9.5q-168 0 -418 29v223q250 -43 422 -43q49 0 79 2t64.5 9.5t51 25t16.5 43.5v99q0 14 -3 24t-13.5 23.5t-38 20.5t-70.5 7h-178q-180 0 -285.5 64.5t-105.5 193.5zM375 481 q0 -39 112 -39h213q72 0 92.5 13.5t20.5 46.5v147q0 57 -145 58h-224q-70 0 -69 -54v-172z" />
<glyph unicode="&#xa8;" horiz-adv-x="819" d="M86 1157v242h258v-242h-258zM475 1157v242h258v-242h-258z" />
<glyph unicode="&#xa9;" horiz-adv-x="1591" d="M102 340v629q0 80 35 143.5t96.5 103t132 67.5t154.5 42t150.5 19.5t132.5 5.5q84 0 165 -7.5t179 -32t171 -63.5t122 -110.5t49 -165.5v-631q0 -88 -49 -155.5t-123 -104.5t-171 -61.5t-179 -31.5t-164 -7q-84 0 -167 7t-183.5 30.5t-175 61.5t-125 105.5t-50.5 155.5z M324 356q0 -209 483 -209q63 0 108.5 2.5t117 13.5t117.5 31.5t81 62.5t35 99v609q0 225 -461 225q-481 0 -481 -225v-609zM477 559v238q0 125 77 186t249 61t238.5 -54t66.5 -173v-55h-211v39q0 57 -16.5 72.5t-83.5 15.5q-55 0 -77 -20.5t-22 -88.5v-205q0 -72 17.5 -90 t81.5 -18q68 0 84 13.5t16 74.5v41h211v-57q0 -117 -63.5 -172.5t-241.5 -55.5q-182 0 -254 52.5t-72 195.5z" />
<glyph unicode="&#xaa;" horiz-adv-x="669" d="M76 991q0 86 42 122t132 36h168v63q0 25 -16.5 34t-61.5 9l-225 -8v94q172 8 239 9q127 0 181.5 -37t54.5 -129v-340h-168v45q-18 -31 -49 -43t-111 -12q-102 0 -144 31.5t-42 125.5zM242 989q0 -49 13 -60t67 -11q57 0 76.5 6t19.5 37v106h-103q-47 0 -60 -14.5 t-13 -63.5z" />
<glyph unicode="&#xab;" horiz-adv-x="1077" d="M82 537l205 393h258l-189 -393l189 -394h-258zM532 537l205 393h258l-188 -393l188 -394h-258z" />
<glyph unicode="&#xac;" d="M143 541v207h901v-576h-206v369h-695z" />
<glyph unicode="&#xad;" horiz-adv-x="0" />
<glyph unicode="&#xae;" horiz-adv-x="1591" d="M102 340v629q0 80 35 143.5t96.5 103t132 67.5t154.5 42t150.5 19.5t132.5 5.5q84 0 165 -7.5t179 -32t171 -63.5t122 -110.5t49 -165.5v-631q0 -88 -49 -155.5t-123 -104.5t-171 -61.5t-179 -31.5t-164 -7q-84 0 -167 7t-183.5 30.5t-175 61.5t-125 105.5t-50.5 155.5z M324 356q0 -209 483 -209q63 0 108.5 2.5t117 13.5t117.5 31.5t81 62.5t35 99v609q0 225 -461 225q-481 0 -481 -225v-609zM514 287v755h301q164 0 222.5 -32.5t58.5 -122.5v-133q0 -72 -36 -104t-110 -50l174 -313h-217l-147 299h-45v-299h-201zM715 705h96q55 0 69.5 14 t14.5 65v70q0 43 -15.5 56.5t-58.5 13.5h-106v-219z" />
<glyph unicode="&#xaf;" horiz-adv-x="819" d="M125 1147v182h569v-182h-569z" />
<glyph unicode="&#xb0;" horiz-adv-x="929" d="M82 889v223q0 70 26.5 118t60.5 71.5t95.5 36t98 14.5t102 2t102.5 -2t98.5 -14.5t95.5 -36t60.5 -71.5t26.5 -118v-223q0 -76 -30 -125t-88 -71.5t-118.5 -31t-146.5 -8.5t-146.5 8.5t-119 31t-88 71.5t-29.5 125zM309 889q0 -45 32 -62.5t124 -17.5t124 17.5t32 62.5 v219q0 55 -31 72.5t-125 17.5t-125 -17.5t-31 -72.5v-219z" />
<glyph unicode="&#xb1;" d="M143 0v207h901v-207h-901zM143 541v207h346v366h207v-366h348v-207h-348v-267h-207v267h-346z" />
<glyph unicode="&#xb2;" horiz-adv-x="774" d="M55 559v180q0 68 40 117t97.5 73.5t115 43t97 39t39.5 49.5v78q0 43 -112 43q-57 0 -260 -35v168q164 27 297 26q162 0 243.5 -45t81.5 -155v-86q0 -82 -62.5 -135.5t-137 -72t-137 -47t-62.5 -67.5v-10h401v-164h-641z" />
<glyph unicode="&#xb3;" horiz-adv-x="774" d="M45 569v181l61 -13q133 -27 220 -26q59 0 82.5 12t23.5 49v70q0 37 -104 37h-178v153h178q74 0 73 51v58q0 27 -18 37t-78 10q-92 0 -256 -17v160l86 4q78 6 189 6q168 0 246.5 -34.5t78.5 -132.5v-109q0 -51 -53 -90q86 -39 86 -117v-104q0 -111 -81 -157t-251 -46 q-131 0 -246 14q-8 0 -31.5 2t-27.5 2z" />
<glyph unicode="&#xb4;" horiz-adv-x="819" d="M154 1133l184 260h326l-256 -260h-254z" />
<glyph unicode="&#xb5;" horiz-adv-x="1218" d="M131 -426v1417h299v-686q0 -82 27.5 -110.5t132.5 -28.5q129 0 163.5 27.5t34.5 111.5v686h299v-991h-294v121q-35 -141 -318 -141q-16 0 -45 4v-410h-299z" />
<glyph unicode="&#xb6;" horiz-adv-x="940" d="M82 1026q0 176 46 239.5t173 63.5h557v-33l-47 -34q-43 -33 -43 -76v-1186h-109v1241h-143v-1241h-108v721q-205 0 -265.5 56.5t-60.5 248.5z" />
<glyph unicode="&#xb7;" horiz-adv-x="524" d="M102 537v282h301v-282h-301z" />
<glyph unicode="&#xb8;" horiz-adv-x="514" d="M45 -403l45 94q61 -37 127 -37q96 0 96 72q0 78 -153 77h-82q4 8 65.5 98.5t65.5 98.5h143l-73 -102q84 -6 141 -44t57 -118q0 -92 -74.5 -139.5t-171.5 -47.5q-117 0 -186 48z" />
<glyph unicode="&#xb9;" horiz-adv-x="774" d="M86 981v188l281 160h190v-770h-244v539z" />
<glyph unicode="&#xba;" horiz-adv-x="710" d="M82 1014v145q0 63 24.5 104.5t70.5 58.5t86 22.5t93.5 5.5t93 -5.5t86 -22.5t71 -58.5t24.5 -104.5v-145q0 -59 -24.5 -98t-69.5 -55.5t-85 -21.5t-95.5 -5t-95.5 5t-85 21.5t-69.5 55t-24.5 98.5zM254 989q0 -39 19.5 -52t83 -13t83 13t19.5 52v199q0 41 -20.5 57.5 t-82 16.5t-82 -16.5t-20.5 -57.5v-199z" />
<glyph unicode="&#xbb;" horiz-adv-x="1077" d="M82 143l188 394l-188 393h258l205 -393l-205 -394h-258zM532 143l189 394l-189 393h259l204 -393l-204 -394h-259z" />
<glyph unicode="&#xbc;" horiz-adv-x="1957" d="M233 981v188l281 160h191v-770h-244v539zM475 0l803 1329h207l-803 -1329h-207zM1151 139v156l354 475h256v-471h88v-160h-88v-139h-225v139h-385zM1360 299h176v248z" />
<glyph unicode="&#xbd;" horiz-adv-x="1957" d="M233 981v188l281 160h191v-770h-244v539zM475 0l803 1329h207l-803 -1329h-207zM1190 0v180q0 68 40 117t97 73.5t114.5 43t97.5 39t40 49.5v78q0 43 -113 43q-57 0 -260 -35v168q164 27 297 26q162 0 244 -45t82 -155v-86q0 -82 -62.5 -135.5t-137.5 -72t-137 -47 t-62 -67.5v-10h401v-164h-641z" />
<glyph unicode="&#xbe;" horiz-adv-x="1957" d="M45 569v181l61 -13q133 -27 220 -26q59 0 82.5 12t23.5 49v70q0 37 -104 37h-178v153h178q74 0 73 51v58q0 27 -18 37t-78 10q-92 0 -256 -17v160l86 4q78 6 189 6q168 0 246.5 -34.5t78.5 -132.5v-109q0 -51 -53 -90q86 -39 86 -117v-104q0 -111 -81 -157t-251 -46 q-131 0 -246 14q-8 0 -31.5 2t-27.5 2zM475 0l803 1329h207l-803 -1329h-207zM1151 139v156l354 475h256v-471h88v-160h-88v-139h-225v139h-385zM1360 299h176v248z" />
<glyph unicode="&#xbf;" horiz-adv-x="1083" d="M82 -80v197q0 59 36 109t88 85t104 67t88 66.5t36 69.5v92h279v-119q0 -78 -33 -136t-80 -92t-94 -62.5t-80 -66.5t-33 -87v-96q0 -55 39 -77t162 -22q94 0 407 50v-224q-262 -33 -446 -32q-96 0 -162.5 5t-129 22.5t-99.5 47t-59.5 80.5t-22.5 123zM414 709v282h319 v-282h-319z" />
<glyph unicode="&#xc0;" horiz-adv-x="1368" d="M4 0l492 1329h389l479 -1329h-324l-118 350h-486l-117 -350h-315zM328 1679h325l185 -260h-254zM508 563h344l-168 500h-8z" />
<glyph unicode="&#xc1;" horiz-adv-x="1368" d="M4 0l492 1329h389l479 -1329h-324l-118 350h-486l-117 -350h-315zM508 563h344l-168 500h-8zM553 1440l184 260h326l-256 -260h-254z" />
<glyph unicode="&#xc2;" horiz-adv-x="1368" d="M4 0l492 1329h389l479 -1329h-324l-118 350h-486l-117 -350h-315zM389 1440l115 260h383l119 -260h-201l-109 178l-106 -178h-201zM508 563h344l-168 500h-8z" />
<glyph unicode="&#xc3;" horiz-adv-x="1368" d="M4 0l492 1329h389l479 -1329h-324l-118 350h-486l-117 -350h-315zM369 1489q2 121 63.5 169t173.5 48q57 0 134 -39t91 -39q68 0 68 72h148q-2 -233 -226 -234q-61 0 -144 42t-85 42q-70 0 -74 -61h-149zM508 563h344l-168 500h-8z" />
<glyph unicode="&#xc4;" horiz-adv-x="1368" d="M4 0l492 1329h389l479 -1329h-324l-118 350h-486l-117 -350h-315zM358 1464v242h258v-242h-258zM508 563h344l-168 500h-8zM748 1464v242h258v-242h-258z" />
<glyph unicode="&#xc5;" horiz-adv-x="1335" d="M6 0l432 1169q-78 47 -78 160v66q0 72 26 118t79 65t99 24.5t122 5.5t122 -5.5t99.5 -24.5t79 -65.5t25.5 -117.5v-66q0 -106 -70 -153l424 -1176h-324l-118 350h-486l-119 -350h-313zM508 563h346l-168 500h-10zM543 1315q0 -49 29.5 -64.5t113.5 -15.5t113.5 15.5 t29.5 64.5v76q0 59 -24.5 74.5t-118.5 15.5t-118.5 -15.5t-24.5 -74.5v-76z" />
<glyph unicode="&#xc6;" horiz-adv-x="2027" d="M0 0l676 1329h1259v-227h-659v-305h592v-228h-592v-342h680v-227h-993v350h-461l-162 -350h-340zM598 563h365v539h-117z" />
<glyph unicode="&#xc7;" horiz-adv-x="1222" d="M115 365v583q0 401 616 402q152 0 422 -45v-240q-244 57 -418 57q-70 0 -113.5 -4t-92 -20.5t-72 -52t-23.5 -93.5v-565q0 -180 330 -180q145 0 397 59v-241q-209 -41 -370 -45l-60 -82q84 -6 141.5 -44t57.5 -118q0 -92 -75 -139.5t-171 -47.5q-115 0 -186 48l45 94 q61 -37 127 -37q96 0 96 72q0 78 -154 77h-82q2 6 25 40t52.5 77t41.5 62q-535 29 -534 383z" />
<glyph unicode="&#xc8;" horiz-adv-x="1249" d="M143 0v1329h1014v-227h-694v-305h627v-228h-627v-342h715v-227h-1035zM336 1731h326l184 -261h-254z" />
<glyph unicode="&#xc9;" horiz-adv-x="1249" d="M143 0v1329h1014v-227h-694v-305h627v-228h-627v-342h715v-227h-1035zM457 1470l184 261h326l-256 -261h-254z" />
<glyph unicode="&#xca;" horiz-adv-x="1249" d="M143 0v1329h1014v-227h-694v-305h627v-228h-627v-342h715v-227h-1035zM315 1470l115 261h383l119 -261h-201l-108 179l-107 -179h-201z" />
<glyph unicode="&#xcb;" horiz-adv-x="1249" d="M143 0v1329h1014v-227h-694v-305h627v-228h-627v-342h715v-227h-1035zM301 1495v242h258v-242h-258zM690 1495v242h258v-242h-258z" />
<glyph unicode="&#xcc;" horiz-adv-x="606" d="M49 1731h326l184 -261h-254zM143 0v1329h320v-1329h-320z" />
<glyph unicode="&#xcd;" horiz-adv-x="606" d="M49 1470l184 261h326l-256 -261h-254zM143 0v1329h320v-1329h-320z" />
<glyph unicode="&#xce;" horiz-adv-x="606" d="M-4 1470l115 261h383l118 -261h-200l-109 179l-106 -179h-201zM143 0v1329h320v-1329h-320z" />
<glyph unicode="&#xcf;" horiz-adv-x="606" d="M-20 1495v242h258v-242h-258zM143 0v1329h320v-1329h-320zM369 1495v242h258v-242h-258z" />
<glyph unicode="&#xd0;" horiz-adv-x="1386" d="M20 582v206h693v-206h-693zM143 0v1329h566q338 0 484 -83.5t146 -319.5v-541q0 -225 -139 -305t-489 -80h-568zM463 227h233q184 0 254 28t70 130v547q0 96 -78 133t-235 37h-244v-875z" />
<glyph unicode="&#xd1;" horiz-adv-x="1538" d="M143 0v1329h324l643 -907v907h285v-1329h-324l-643 922v-922h-285zM473 1587q12 47 62.5 104.5t123.5 57.5q47 0 126 -30.5t112 -30.5q57 0 84 67l84 -49q-14 -49 -63.5 -108.5t-122.5 -59.5q-51 0 -133 34t-105 34q-59 0 -86 -68z" />
<glyph unicode="&#xd2;" horiz-adv-x="1490" d="M115 365v581q0 102 46 180t110.5 119t156.5 66.5t164 32t151 6.5q82 0 155 -6.5t165 -32t157.5 -66.5t110.5 -118t45 -181v-581q0 -113 -59.5 -193t-159.5 -120t-200.5 -56t-213.5 -16q-106 0 -199 13t-198.5 50t-168 119t-62.5 203zM379 1731h326l184 -261h-254z M434 365q0 -51 26.5 -85t77 -48.5t96.5 -19.5t113.5 -5t113.5 5t95.5 19.5t75 48.5t25.5 85v583q0 96 -79 135t-233 39q-156 0 -233.5 -37.5t-77.5 -136.5v-583z" />
<glyph unicode="&#xd3;" horiz-adv-x="1490" d="M115 365v581q0 102 46 180t110.5 119t156.5 66.5t164 32t151 6.5q82 0 155 -6.5t165 -32t157.5 -66.5t110.5 -118t45 -181v-581q0 -113 -59.5 -193t-159.5 -120t-200.5 -56t-213.5 -16q-106 0 -199 13t-198.5 50t-168 119t-62.5 203zM434 365q0 -51 26.5 -85t77 -48.5 t96.5 -19.5t113.5 -5t113.5 5t95.5 19.5t75 48.5t25.5 85v583q0 96 -79 135t-233 39q-156 0 -233.5 -37.5t-77.5 -136.5v-583zM555 1470l184 261h326l-256 -261h-254z" />
<glyph unicode="&#xd4;" horiz-adv-x="1490" d="M115 365v581q0 102 46 180t110.5 119t156.5 66.5t164 32t151 6.5q82 0 155 -6.5t165 -32t157.5 -66.5t110.5 -118t45 -181v-581q0 -113 -59.5 -193t-159.5 -120t-200.5 -56t-213.5 -16q-106 0 -199 13t-198.5 50t-168 119t-62.5 203zM434 365q0 -51 26.5 -85t77 -48.5 t96.5 -19.5t113.5 -5t113.5 5t95.5 19.5t75 48.5t25.5 85v583q0 96 -79 135t-233 39q-156 0 -233.5 -37.5t-77.5 -136.5v-583zM436 1470l115 261h383l119 -261h-201l-109 179l-106 -179h-201z" />
<glyph unicode="&#xd5;" horiz-adv-x="1490" d="M115 365v581q0 102 46 180t110.5 119t156.5 66.5t164 32t151 6.5q82 0 155 -6.5t165 -32t157.5 -66.5t110.5 -118t45 -181v-581q0 -113 -59.5 -193t-159.5 -120t-200.5 -56t-213.5 -16q-106 0 -199 13t-198.5 50t-168 119t-62.5 203zM434 365q0 -51 26.5 -85t77 -48.5 t96.5 -19.5t113.5 -5t113.5 5t95.5 19.5t75 48.5t25.5 85v583q0 96 -79 135t-233 39q-156 0 -233.5 -37.5t-77.5 -136.5v-583zM449 1587q12 47 62 104.5t124 57.5q47 0 125.5 -30.5t111.5 -30.5q57 0 84 67l84 -49q-14 -49 -63 -108.5t-123 -59.5q-51 0 -133 34t-105 34 q-59 0 -86 -68z" />
<glyph unicode="&#xd6;" horiz-adv-x="1490" d="M115 365v581q0 102 46 180t110.5 119t156.5 66.5t164 32t151 6.5q82 0 155 -6.5t165 -32t157.5 -66.5t110.5 -118t45 -181v-581q0 -113 -59.5 -193t-159.5 -120t-200.5 -56t-213.5 -16q-106 0 -199 13t-198.5 50t-168 119t-62.5 203zM422 1495v242h258v-242h-258z M434 365q0 -51 26.5 -85t77 -48.5t96.5 -19.5t113.5 -5t113.5 5t95.5 19.5t75 48.5t25.5 85v583q0 96 -79 135t-233 39q-156 0 -233.5 -37.5t-77.5 -136.5v-583zM811 1495v242h258v-242h-258z" />
<glyph unicode="&#xd7;" d="M143 340l303 303l-303 303l148 146l301 -304l305 306l145 -148l-303 -303l303 -303l-145 -147l-305 303l-301 -301z" />
<glyph unicode="&#xd8;" horiz-adv-x="1490" d="M115 365v581q0 102 46 180t110.5 119t156.5 66.5t164 32t151 6.5q82 0 155 -6.5t165 -32t157.5 -66.5t110.5 -118t45 -181v-581q0 -113 -59.5 -193t-159.5 -120t-200.5 -56t-213.5 -16q-106 0 -199 13t-198.5 50t-168 119t-62.5 203zM434 387l524 705q-72 31 -213 30 q-156 0 -233.5 -38t-77.5 -136v-561zM524 236q72 -29 224 -29q68 0 113.5 5t95 19.5t75 48.5t25.5 85v583z" />
<glyph unicode="&#xd9;" horiz-adv-x="1431" d="M139 365v964h320v-964q0 -90 59.5 -124t200.5 -34q139 0 196.5 33.5t57.5 124.5v964h319v-964q0 -385 -577 -385q-575 0 -576 385zM356 1731h326l184 -261h-254z" />
<glyph unicode="&#xda;" horiz-adv-x="1431" d="M139 365v964h320v-964q0 -90 59.5 -124t200.5 -34q139 0 196.5 33.5t57.5 124.5v964h319v-964q0 -385 -577 -385q-575 0 -576 385zM553 1470l184 261h326l-256 -261h-254z" />
<glyph unicode="&#xdb;" horiz-adv-x="1431" d="M139 365v964h320v-964q0 -90 59.5 -124t200.5 -34q139 0 196.5 33.5t57.5 124.5v964h319v-964q0 -385 -577 -385q-575 0 -576 385zM408 1470l114 261h383l119 -261h-201l-108 179l-107 -179h-200z" />
<glyph unicode="&#xdc;" horiz-adv-x="1431" d="M139 365v964h320v-964q0 -90 59.5 -124t200.5 -34q139 0 196.5 33.5t57.5 124.5v964h319v-964q0 -385 -577 -385q-575 0 -576 385zM391 1495v242h258v-242h-258zM780 1495v242h258v-242h-258z" />
<glyph unicode="&#xdd;" horiz-adv-x="1318" d="M16 1329h363l280 -520l279 520h365l-486 -792v-537h-319v532zM483 1470l185 261h325l-256 -261h-254z" />
<glyph unicode="&#xde;" horiz-adv-x="1284" d="M143 0v1329h320v-225h213q115 0 200 -11.5t163.5 -41t120.5 -90t42 -152.5v-254q0 -340 -563 -340h-176v-215h-320zM463 426h203q227 0 227 129v244q0 61 -47 78.5t-184 17.5h-199v-469z" />
<glyph unicode="&#xdf;" horiz-adv-x="1308" d="M131 0v1165q0 109 36 166.5t153.5 90t343.5 32.5q266 0 374.5 -72.5t108.5 -216.5v-243q0 -57 -44 -106.5t-102 -65.5l-2 -11q74 -8 140.5 -65t66.5 -131v-246q0 -166 -133 -231.5t-395 -65.5h-111v227h111q131 0 179 22.5t48 92.5v160q0 78 -35.5 99.5t-148.5 21.5h-154 v200h103q106 0 147 25.5t41 93.5v195q0 61 -39 85.5t-155 24.5q-147 0 -190.5 -19.5t-43.5 -90.5v-1137h-299z" />
<glyph unicode="&#xe0;" horiz-adv-x="1155" d="M80 297q0 176 67.5 244.5t241.5 68.5h336v68q0 90 -42 119.5t-177 29.5q-127 0 -348 -24v188q170 20 379 21q274 0 380.5 -66.5t106.5 -263.5v-682h-293v90q-33 -59 -94.5 -84.5t-224.5 -25.5q-201 0 -266.5 61t-65.5 256zM244 1393h325l185 -260h-254zM373 303 q0 -96 25.5 -116.5t129.5 -20.5q51 0 76 1t53.5 5t40 13.5t19.5 25.5t8 43v192h-205q-98 0 -122.5 -22.5t-24.5 -120.5z" />
<glyph unicode="&#xe1;" horiz-adv-x="1155" d="M80 297q0 176 67.5 244.5t241.5 68.5h336v68q0 90 -42 119.5t-177 29.5q-127 0 -348 -24v188q170 20 379 21q274 0 380.5 -66.5t106.5 -263.5v-682h-293v90q-33 -59 -94.5 -84.5t-224.5 -25.5q-201 0 -266.5 61t-65.5 256zM365 1133l184 260h325l-256 -260h-253zM373 303 q0 -96 25.5 -116.5t129.5 -20.5q51 0 76 1t53.5 5t40 13.5t19.5 25.5t8 43v192h-205q-98 0 -122.5 -22.5t-24.5 -120.5z" />
<glyph unicode="&#xe2;" horiz-adv-x="1155" d="M80 297q0 176 67.5 244.5t241.5 68.5h336v68q0 90 -42 119.5t-177 29.5q-127 0 -348 -24v188q170 20 379 21q274 0 380.5 -66.5t106.5 -263.5v-682h-293v90q-33 -59 -94.5 -84.5t-224.5 -25.5q-201 0 -266.5 61t-65.5 256zM268 1133l115 260h383l119 -260h-201l-109 178 l-106 -178h-201zM373 303q0 -96 25.5 -116.5t129.5 -20.5q51 0 76 1t53.5 5t40 13.5t19.5 25.5t8 43v192h-205q-98 0 -122.5 -22.5t-24.5 -120.5z" />
<glyph unicode="&#xe3;" horiz-adv-x="1155" d="M80 297q0 176 67.5 244.5t241.5 68.5h336v68q0 90 -42 119.5t-177 29.5q-127 0 -348 -24v188q170 20 379 21q274 0 380.5 -66.5t106.5 -263.5v-682h-293v90q-33 -59 -94.5 -84.5t-224.5 -25.5q-201 0 -266.5 61t-65.5 256zM281 1249q12 47 62 104.5t124 57.5 q47 0 126 -30.5t112 -30.5q57 0 83 67l84 -49q-14 -49 -63 -108.5t-123 -59.5q-51 0 -133 34t-104 34q-59 0 -87 -68zM373 303q0 -96 25.5 -116.5t129.5 -20.5q51 0 76 1t53.5 5t40 13.5t19.5 25.5t8 43v192h-205q-98 0 -122.5 -22.5t-24.5 -120.5z" />
<glyph unicode="&#xe4;" horiz-adv-x="1155" d="M80 297q0 176 67.5 244.5t241.5 68.5h336v68q0 90 -42 119.5t-177 29.5q-127 0 -348 -24v188q170 20 379 21q274 0 380.5 -66.5t106.5 -263.5v-682h-293v90q-33 -59 -94.5 -84.5t-224.5 -25.5q-201 0 -266.5 61t-65.5 256zM254 1157v242h258v-242h-258zM373 303 q0 -96 25.5 -116.5t129.5 -20.5q51 0 76 1t53.5 5t40 13.5t19.5 25.5t8 43v192h-205q-98 0 -122.5 -22.5t-24.5 -120.5zM643 1157v242h258v-242h-258z" />
<glyph unicode="&#xe5;" horiz-adv-x="1155" d="M80 297q0 176 67.5 244.5t241.5 68.5h336v68q0 90 -42 119.5t-177 29.5q-127 0 -348 -24v188q170 20 379 21q274 0 380.5 -66.5t106.5 -263.5v-682h-293v90q-33 -59 -94.5 -84.5t-224.5 -25.5q-201 0 -266.5 61t-65.5 256zM272 1333v25q0 59 17.5 100t42 62.5t68.5 34 t81 14.5t96.5 2t96.5 -2t81 -14.5t68.5 -34t42 -62.5t17.5 -100v-25q0 -68 -22.5 -110.5t-71 -61t-93.5 -23.5t-118.5 -5t-118.5 5t-93.5 23.5t-71 61.5t-22.5 110zM373 303q0 -96 25.5 -116.5t129.5 -20.5q51 0 76 1t53.5 5t40 13.5t19.5 25.5t8 43v192h-205 q-98 0 -122.5 -22.5t-24.5 -120.5zM434 1319q0 -49 30 -64.5t114 -15.5t113.5 15.5t29.5 64.5v55q0 59 -24.5 74.5t-119 15.5t-119 -15t-24.5 -75v-55z" />
<glyph unicode="&#xe6;" horiz-adv-x="1730" d="M80 297q0 176 67.5 244.5t241.5 68.5h336v68q0 90 -42 119.5t-177 29.5q-127 0 -348 -24v188q170 20 379 21q229 0 329 -64q106 63 318 64q227 0 337.5 -78t110.5 -277v-241h-633v-90q0 -84 57.5 -122t221.5 -38q143 0 328 43v-191q-188 -39 -385 -38q-356 0 -455 157 q-47 -92 -115.5 -124.5t-238.5 -32.5q-201 0 -266.5 61t-65.5 256zM373 303q0 -96 25.5 -116.5t129.5 -20.5q51 0 76 1t53.5 5t40 13.5t19.5 25.5t8 43v192h-205q-98 0 -122.5 -22.5t-24.5 -120.5zM999 586h351v143q0 49 -36 73.5t-134 24.5q-109 0 -145 -24.5t-36 -73.5 v-143z" />
<glyph unicode="&#xe7;" horiz-adv-x="987" d="M102 322v329q0 74 17.5 130.5t43 94t72 64.5t85 40t101 21.5t104.5 9.5t110 1q113 0 301 -37v-197q-213 49 -324 49q-207 0 -206 -139v-364q0 -158 227 -158q106 0 317 45v-197q-168 -31 -295 -32l-59 -84q84 -6 141.5 -44t57.5 -118q0 -92 -75 -139.5t-171 -47.5 q-115 0 -187 48l46 94q61 -37 127 -37q96 0 96 72q0 78 -154 77h-82q2 6 23.5 38t53.5 79t42 62q-88 2 -152.5 15t-128 47t-97.5 103.5t-34 174.5z" />
<glyph unicode="&#xe8;" horiz-adv-x="1144" d="M102 301v356q0 190 123 272.5t367 82.5q229 0 342 -78t113 -277v-241h-644v-90q0 -84 59.5 -122t223.5 -38q147 0 332 43v-191q-188 -39 -389 -38q-526 0 -527 321zM213 1393h326l184 -260h-254zM403 586h359v143q0 47 -38 72.5t-136 25.5q-109 0 -147 -25.5t-38 -72.5 v-143z" />
<glyph unicode="&#xe9;" horiz-adv-x="1144" d="M102 301v356q0 190 123 272.5t367 82.5q229 0 342 -78t113 -277v-241h-644v-90q0 -84 59.5 -122t223.5 -38q147 0 332 43v-191q-188 -39 -389 -38q-526 0 -527 321zM403 586h359v143q0 47 -38 72.5t-136 25.5q-109 0 -147 -25.5t-38 -72.5v-143zM434 1133l184 260h326 l-256 -260h-254z" />
<glyph unicode="&#xea;" horiz-adv-x="1144" d="M102 301v356q0 190 123 272.5t367 82.5q229 0 342 -78t113 -277v-241h-644v-90q0 -84 59.5 -122t223.5 -38q147 0 332 43v-191q-188 -39 -389 -38q-526 0 -527 321zM281 1133l114 260h383l119 -260h-201l-108 178l-107 -178h-200zM403 586h359v143q0 47 -38 72.5 t-136 25.5q-109 0 -147 -25.5t-38 -72.5v-143z" />
<glyph unicode="&#xeb;" horiz-adv-x="1144" d="M102 301v356q0 190 123 272.5t367 82.5q229 0 342 -78t113 -277v-241h-644v-90q0 -84 59.5 -122t223.5 -38q147 0 332 43v-191q-188 -39 -389 -38q-526 0 -527 321zM248 1157v242h258v-242h-258zM403 586h359v143q0 47 -38 72.5t-136 25.5q-109 0 -147 -25.5t-38 -72.5 v-143zM637 1157v242h258v-242h-258z" />
<glyph unicode="&#xec;" horiz-adv-x="577" d="M35 1393h325l185 -260h-254zM139 0v991h299v-991h-299z" />
<glyph unicode="&#xed;" horiz-adv-x="577" d="M35 1133l184 260h326l-256 -260h-254zM139 0v991h299v-991h-299z" />
<glyph unicode="&#xee;" horiz-adv-x="577" d="M-18 1133l114 260h383l119 -260h-201l-108 178l-107 -178h-200zM139 0v991h299v-991h-299z" />
<glyph unicode="&#xef;" horiz-adv-x="577" d="M-35 1157v242h258v-242h-258zM139 0v991h299v-991h-299zM354 1157v242h258v-242h-258z" />
<glyph unicode="&#xf0;" horiz-adv-x="1212" d="M102 340v293q0 102 32 175t78 111.5t120 60t132 27t142 5.5q90 0 164 -8q-51 98 -123 192l-198 -59v137l108 33q-41 45 -123 127h291q31 -29 59 -60l199 60v-138l-102 -30q229 -287 229 -609v-317q0 -96 -30.5 -165t-76 -106.5t-118 -58t-133 -25.5t-146.5 -5t-146.5 5 t-133 25.5t-117.5 58t-76 106.5t-31 165zM401 305q0 -78 40 -108.5t165 -30.5t165 30.5t40 108.5v375q0 80 -41 113.5t-164 33.5t-164 -33.5t-41 -113.5v-375z" />
<glyph unicode="&#xf1;" horiz-adv-x="1218" d="M131 0v991h295v-121q35 141 317 142q197 0 270.5 -71t73.5 -214v-727h-299v688q0 82 -27.5 110.5t-131.5 28.5q-129 0 -164 -27.5t-35 -111.5v-688h-299zM313 1249q12 47 62.5 104.5t124.5 57.5q47 0 125.5 -30.5t111.5 -30.5q57 0 84 67l84 -49q-14 -49 -63 -108.5 t-123 -59.5q-51 0 -133 34t-105 34q-59 0 -86 -68z" />
<glyph unicode="&#xf2;" horiz-adv-x="1212" d="M102 340v293q0 102 32 175t78 111.5t120 60t132 27t142 5.5t142.5 -5.5t132 -27t120 -60t78 -111.5t31.5 -175v-293q0 -96 -30.5 -165t-76 -106.5t-118 -58t-133 -25.5t-146.5 -5t-146.5 5t-133 25.5t-117.5 58t-76 106.5t-31 165zM238 1393h325l185 -260h-254zM401 305 q0 -78 40 -108.5t165 -30.5t165 30.5t40 108.5v375q0 80 -41 113.5t-164 33.5t-164 -33.5t-41 -113.5v-375z" />
<glyph unicode="&#xf3;" horiz-adv-x="1212" d="M102 340v293q0 102 32 175t78 111.5t120 60t132 27t142 5.5t142.5 -5.5t132 -27t120 -60t78 -111.5t31.5 -175v-293q0 -96 -30.5 -165t-76 -106.5t-118 -58t-133 -25.5t-146.5 -5t-146.5 5t-133 25.5t-117.5 58t-76 106.5t-31 165zM401 305q0 -78 40 -108.5t165 -30.5 t165 30.5t40 108.5v375q0 80 -41 113.5t-164 33.5t-164 -33.5t-41 -113.5v-375zM461 1133l184 260h326l-256 -260h-254z" />
<glyph unicode="&#xf4;" horiz-adv-x="1212" d="M102 340v293q0 102 32 175t78 111.5t120 60t132 27t142 5.5t142.5 -5.5t132 -27t120 -60t78 -111.5t31.5 -175v-293q0 -96 -30.5 -165t-76 -106.5t-118 -58t-133 -25.5t-146.5 -5t-146.5 5t-133 25.5t-117.5 58t-76 106.5t-31 165zM297 1133l115 260h383l118 -260h-200 l-109 178l-106 -178h-201zM401 305q0 -78 40 -108.5t165 -30.5t165 30.5t40 108.5v375q0 80 -41 113.5t-164 33.5t-164 -33.5t-41 -113.5v-375z" />
<glyph unicode="&#xf5;" horiz-adv-x="1212" d="M102 340v293q0 102 32 175t78 111.5t120 60t132 27t142 5.5t142.5 -5.5t132 -27t120 -60t78 -111.5t31.5 -175v-293q0 -96 -30.5 -165t-76 -106.5t-118 -58t-133 -25.5t-146.5 -5t-146.5 5t-133 25.5t-117.5 58t-76 106.5t-31 165zM309 1249q12 47 62.5 104.5t124.5 57.5 q47 0 125.5 -30.5t111.5 -30.5q57 0 84 67l84 -49q-14 -49 -63.5 -108.5t-122.5 -59.5q-51 0 -133 34t-105 34q-59 0 -86 -68zM401 305q0 -78 40 -108.5t165 -30.5t165 30.5t40 108.5v375q0 80 -41 113.5t-164 33.5t-164 -33.5t-41 -113.5v-375z" />
<glyph unicode="&#xf6;" horiz-adv-x="1212" d="M102 340v293q0 102 32 175t78 111.5t120 60t132 27t142 5.5t142.5 -5.5t132 -27t120 -60t78 -111.5t31.5 -175v-293q0 -96 -30.5 -165t-76 -106.5t-118 -58t-133 -25.5t-146.5 -5t-146.5 5t-133 25.5t-117.5 58t-76 106.5t-31 165zM283 1157v242h258v-242h-258zM401 305 q0 -78 40 -108.5t165 -30.5t165 30.5t40 108.5v375q0 80 -41 113.5t-164 33.5t-164 -33.5t-41 -113.5v-375zM672 1157v242h258v-242h-258z" />
<glyph unicode="&#xf7;" d="M143 541v207h901v-207h-901zM455 143v263h278v-263h-278zM455 872v263h278v-263h-278z" />
<glyph unicode="&#xf8;" horiz-adv-x="1222" d="M102 340v293q0 102 33 175t79 111.5t120 60t133 27t143 5.5t143.5 -5.5t133.5 -27t120 -60t78.5 -111.5t32.5 -175v-293q0 -96 -31.5 -165t-76.5 -106.5t-119 -58t-134.5 -25.5t-146.5 -5t-146.5 5t-134 25.5t-118.5 58t-77 106.5t-32 165zM401 309l334 518 q-43 14 -125 15q-125 0 -167 -34t-42 -116v-383zM489 164q35 -10 121 -10q127 0 168 27.5t41 107.5v387z" />
<glyph unicode="&#xf9;" horiz-adv-x="1218" d="M131 264v727h299v-686q0 -82 27.5 -110.5t132.5 -28.5q129 0 163.5 27.5t34.5 111.5v686h299v-991h-294v121q-35 -141 -318 -141q-197 0 -270.5 70.5t-73.5 213.5zM354 1393h326l184 -260h-254z" />
<glyph unicode="&#xfa;" horiz-adv-x="1218" d="M131 264v727h299v-686q0 -82 27.5 -110.5t132.5 -28.5q129 0 163.5 27.5t34.5 111.5v686h299v-991h-294v121q-35 -141 -318 -141q-197 0 -270.5 70.5t-73.5 213.5zM354 1133l185 260h325l-256 -260h-254z" />
<glyph unicode="&#xfb;" horiz-adv-x="1218" d="M131 264v727h299v-686q0 -82 27.5 -110.5t132.5 -28.5q129 0 163.5 27.5t34.5 111.5v686h299v-991h-294v121q-35 -141 -318 -141q-197 0 -270.5 70.5t-73.5 213.5zM301 1133l115 260h383l119 -260h-201l-109 178l-106 -178h-201z" />
<glyph unicode="&#xfc;" horiz-adv-x="1218" d="M131 264v727h299v-686q0 -82 27.5 -110.5t132.5 -28.5q129 0 163.5 27.5t34.5 111.5v686h299v-991h-294v121q-35 -141 -318 -141q-197 0 -270.5 70.5t-73.5 213.5zM285 1157v242h258v-242h-258zM674 1157v242h258v-242h-258z" />
<glyph unicode="&#xfd;" horiz-adv-x="1093" d="M16 991h326l223 -700l203 700h309l-542 -1417h-304l181 434zM369 1133l184 260h326l-256 -260h-254z" />
<glyph unicode="&#xfe;" horiz-adv-x="1255" d="M131 -428v1862h299v-512q63 90 320 90q127 0 206.5 -20.5t120.5 -66.5t54.5 -101.5t13.5 -145.5v-326q0 -221 -98.5 -296.5t-319.5 -75.5q-139 0 -207.5 22.5t-89.5 97.5v-528h-299zM430 313q0 -88 37 -117.5t168 -29.5t171 29.5t40 117.5v367q0 96 -36 121.5t-177 25.5 q-127 0 -165 -32.5t-38 -114.5v-367z" />
<glyph unicode="&#xff;" horiz-adv-x="1093" d="M16 991h326l223 -700l203 700h309l-542 -1417h-304l181 434zM205 1157v242h258v-242h-258zM594 1157v242h258v-242h-258z" />
<glyph unicode="&#x100;" horiz-adv-x="1368" d="M4 0l492 1329h389l479 -1329h-324l-118 350h-486l-117 -350h-315zM399 1485v182h570v-182h-570zM508 563h344l-168 500h-8z" />
<glyph unicode="&#x101;" horiz-adv-x="1155" d="M80 297q0 176 67.5 244.5t241.5 68.5h336v68q0 90 -42 119.5t-177 29.5q-127 0 -348 -24v188q170 20 379 21q274 0 380.5 -66.5t106.5 -263.5v-682h-293v90q-33 -59 -94.5 -84.5t-224.5 -25.5q-201 0 -266.5 61t-65.5 256zM293 1147v182h569v-182h-569zM373 303 q0 -96 25.5 -116.5t129.5 -20.5q51 0 76 1t53.5 5t40 13.5t19.5 25.5t8 43v192h-205q-98 0 -122.5 -22.5t-24.5 -120.5z" />
<glyph unicode="&#x102;" horiz-adv-x="1368" d="M4 0l492 1329h389l479 -1329h-324l-118 350h-486l-117 -350h-315zM401 1731h166q12 -59 37 -86t80 -27q102 0 115 113h168q-8 -117 -83 -189t-200 -72q-127 0 -201.5 72t-81.5 189zM508 563h344l-168 500h-8z" />
<glyph unicode="&#x103;" horiz-adv-x="1155" d="M80 297q0 176 67.5 244.5t241.5 68.5h336v68q0 90 -42 119.5t-177 29.5q-127 0 -348 -24v188q170 20 379 21q274 0 380.5 -66.5t106.5 -263.5v-682h-293v90q-33 -59 -94.5 -84.5t-224.5 -25.5q-201 0 -266.5 61t-65.5 256zM295 1393h166q12 -59 36.5 -86t80.5 -27 q102 0 114 113h168q-8 -117 -83 -188.5t-199 -71.5q-127 0 -202 71.5t-81 188.5zM373 303q0 -96 25.5 -116.5t129.5 -20.5q51 0 76 1t53.5 5t40 13.5t19.5 25.5t8 43v192h-205q-98 0 -122.5 -22.5t-24.5 -120.5z" />
<glyph unicode="&#x104;" horiz-adv-x="1368" d="M4 0l492 1329h389l479 -1329q-145 -51 -145 -176q0 -59 55 -60q25 0 61 13v-137q-43 -21 -143 -21q-92 0 -147.5 43t-55.5 121q0 119 51 217l-118 350h-486l-117 -350h-315zM508 563h344l-168 500h-8z" />
<glyph unicode="&#x105;" horiz-adv-x="1155" d="M80 297q0 176 67.5 244.5t241.5 68.5h336v68q0 90 -42 119.5t-177 29.5q-127 0 -348 -24v188q170 20 379 21q274 0 380.5 -66.5t106.5 -263.5v-682q-55 -47 -80.5 -85t-25.5 -85q0 -33 16 -49.5t61 -16.5q25 0 62 13v-137q-44 -21 -144 -21q-102 0 -152 38t-50 126 q0 41 10 113.5t10 103.5v90q-33 -59 -94.5 -84.5t-224.5 -25.5q-201 0 -266.5 61t-65.5 256zM373 303q0 -96 25.5 -116.5t129.5 -20.5q51 0 76 1t53.5 5t40 13.5t19.5 25.5t8 43v192h-205q-98 0 -122.5 -22.5t-24.5 -120.5z" />
<glyph unicode="&#x106;" horiz-adv-x="1222" d="M115 365v583q0 401 616 402q152 0 422 -45v-240q-244 57 -418 57q-70 0 -113.5 -4t-92 -20.5t-72 -52t-23.5 -93.5v-565q0 -180 330 -180q145 0 397 59v-241q-225 -45 -430 -45q-82 0 -154.5 7t-161.5 30.5t-151.5 63.5t-105.5 112.5t-43 171.5zM479 1470l185 261h325 l-256 -261h-254z" />
<glyph unicode="&#x107;" horiz-adv-x="987" d="M102 322v329q0 74 17.5 130.5t43 94t72 64.5t85 40t101 21.5t104.5 9.5t110 1q113 0 301 -37v-197q-213 49 -324 49q-207 0 -206 -139v-364q0 -158 227 -158q106 0 317 45v-197q-180 -35 -336 -34q-76 0 -120.5 2t-113.5 11t-111 31.5t-84 58.5t-62.5 96.5t-20.5 142.5z M360 1133l185 260h325l-256 -260h-254z" />
<glyph unicode="&#x108;" horiz-adv-x="1222" d="M115 365v583q0 401 616 402q152 0 422 -45v-240q-244 57 -418 57q-70 0 -113.5 -4t-92 -20.5t-72 -52t-23.5 -93.5v-565q0 -180 330 -180q145 0 397 59v-241q-225 -45 -430 -45q-82 0 -154.5 7t-161.5 30.5t-151.5 63.5t-105.5 112.5t-43 171.5zM385 1470l115 261h383 l118 -261h-200l-109 179l-106 -179h-201z" />
<glyph unicode="&#x109;" horiz-adv-x="987" d="M102 322v329q0 74 17.5 130.5t43 94t72 64.5t85 40t101 21.5t104.5 9.5t110 1q113 0 301 -37v-197q-213 49 -324 49q-207 0 -206 -139v-364q0 -158 227 -158q106 0 317 45v-197q-180 -35 -336 -34q-76 0 -120.5 2t-113.5 11t-111 31.5t-84 58.5t-62.5 96.5t-20.5 142.5z M266 1133l115 260h383l119 -260h-201l-109 178l-106 -178h-201z" />
<glyph unicode="&#x10a;" horiz-adv-x="1222" d="M115 365v583q0 401 616 402q152 0 422 -45v-240q-244 57 -418 57q-70 0 -113.5 -4t-92 -20.5t-72 -52t-23.5 -93.5v-565q0 -180 330 -180q145 0 397 59v-241q-225 -45 -430 -45q-82 0 -154.5 7t-161.5 30.5t-151.5 63.5t-105.5 112.5t-43 171.5zM543 1495v236h299v-236 h-299z" />
<glyph unicode="&#x10b;" horiz-adv-x="987" d="M102 322v329q0 74 17.5 130.5t43 94t72 64.5t85 40t101 21.5t104.5 9.5t110 1q113 0 301 -37v-197q-213 49 -324 49q-207 0 -206 -139v-364q0 -158 227 -158q106 0 317 45v-197q-180 -35 -336 -34q-76 0 -120.5 2t-113.5 11t-111 31.5t-84 58.5t-62.5 96.5t-20.5 142.5z M426 1157v236h299v-236h-299z" />
<glyph unicode="&#x10c;" horiz-adv-x="1222" d="M115 365v583q0 401 616 402q152 0 422 -45v-240q-244 57 -418 57q-70 0 -113.5 -4t-92 -20.5t-72 -52t-23.5 -93.5v-565q0 -180 330 -180q145 0 397 59v-241q-225 -45 -430 -45q-82 0 -154.5 7t-161.5 30.5t-151.5 63.5t-105.5 112.5t-43 171.5zM385 1731h201l108 -179 l107 179h200l-114 -261h-383z" />
<glyph unicode="&#x10d;" horiz-adv-x="987" d="M102 322v329q0 74 17.5 130.5t43 94t72 64.5t85 40t101 21.5t104.5 9.5t110 1q113 0 301 -37v-197q-213 49 -324 49q-207 0 -206 -139v-364q0 -158 227 -158q106 0 317 45v-197q-180 -35 -336 -34q-76 0 -120.5 2t-113.5 11t-111 31.5t-84 58.5t-62.5 96.5t-20.5 142.5z M266 1393h201l108 -179l107 179h201l-115 -260h-383z" />
<glyph unicode="&#x10e;" horiz-adv-x="1454" d="M143 0v1329h566q338 0 484 -83.5t146 -319.5v-541q0 -225 -139 -305t-489 -80h-568zM418 1731h200l109 -179l107 179h200l-114 -261h-383zM463 227h233q184 0 254 28t70 130v547q0 96 -78 133t-235 37h-244v-875z" />
<glyph unicode="&#x10f;" horiz-adv-x="1433" d="M102 326v387q0 168 95.5 233.5t300.5 65.5q147 0 206.5 -28t110.5 -103v553h299v-1434h-289v113q-35 -55 -63.5 -81t-86 -39t-163.5 -13q-254 0 -332 63t-78 283zM401 307q0 -82 33 -111.5t154 -29.5q145 0 186 25.5t41 105.5v399q0 74 -40 102.5t-171 28.5 q-137 0 -170 -26.5t-33 -114.5v-379zM1186 1100l53 334h274l-131 -334h-196z" />
<glyph unicode="&#x110;" horiz-adv-x="1386" d="M20 590v186h123v553h525q367 0 491.5 -85t124.5 -318v-541q0 -207 -149.5 -296t-464.5 -89h-527v590h-123zM457 223h198q68 0 116 5t100.5 19.5t80 48.5t27.5 85v561q0 96 -78 133t-235 37h-209v-336h274v-186h-274v-367z" />
<glyph unicode="&#x111;" horiz-adv-x="1245" d="M102 326v387q0 168 95.5 233.5t300.5 65.5q147 0 206.5 -28t110.5 -103v252h-227v167h227v134h299v-134h86v-167h-86v-1133h-289v113q-35 -55 -63.5 -81t-86 -39t-163.5 -13q-254 0 -332 63t-78 283zM401 307q0 -82 33 -111.5t154 -29.5q145 0 186 25.5t41 105.5v399 q0 74 -40 102.5t-171 28.5q-137 0 -170 -26.5t-33 -114.5v-379z" />
<glyph unicode="&#x112;" horiz-adv-x="1249" d="M143 0v1329h1014v-227h-694v-305h627v-228h-627v-342h715v-227h-1035zM340 1485v182h569v-182h-569z" />
<glyph unicode="&#x113;" horiz-adv-x="1144" d="M102 301v356q0 190 123 272.5t367 82.5q229 0 342 -78t113 -277v-241h-644v-90q0 -84 59.5 -122t223.5 -38q147 0 332 43v-191q-188 -39 -389 -38q-526 0 -527 321zM287 1147v182h569v-182h-569zM403 586h359v143q0 47 -38 72.5t-136 25.5q-109 0 -147 -25.5t-38 -72.5 v-143z" />
<glyph unicode="&#x114;" horiz-adv-x="1249" d="M143 0v1329h1014v-227h-694v-305h627v-228h-627v-342h715v-227h-1035zM399 1731h166q12 -59 37 -86t80 -27q102 0 115 113h168q-8 -117 -83 -189t-200 -72q-127 0 -201.5 72t-81.5 189z" />
<glyph unicode="&#x115;" horiz-adv-x="1144" d="M102 301v356q0 190 123 272.5t367 82.5q229 0 342 -78t113 -277v-241h-644v-90q0 -84 59.5 -122t223.5 -38q147 0 332 43v-191q-188 -39 -389 -38q-526 0 -527 321zM299 1393h166q12 -59 36.5 -86t80.5 -27q102 0 114 113h168q-8 -117 -82.5 -188.5t-199.5 -71.5 q-127 0 -202 71.5t-81 188.5zM403 586h359v143q0 47 -38 72.5t-136 25.5q-109 0 -147 -25.5t-38 -72.5v-143z" />
<glyph unicode="&#x116;" horiz-adv-x="1249" d="M143 0v1329h1014v-227h-694v-305h627v-228h-627v-342h715v-227h-1035zM516 1495v236h299v-236h-299z" />
<glyph unicode="&#x117;" horiz-adv-x="1144" d="M102 301v356q0 190 123 272.5t367 82.5q229 0 342 -78t113 -277v-241h-644v-90q0 -84 59.5 -122t223.5 -38q147 0 332 43v-191q-188 -39 -389 -38q-526 0 -527 321zM403 586h359v143q0 47 -38 72.5t-136 25.5q-109 0 -147 -25.5t-38 -72.5v-143zM442 1157v236h299v-236 h-299z" />
<glyph unicode="&#x118;" horiz-adv-x="1249" d="M143 0v1329h1014v-227h-694v-305h627v-228h-627v-342h715v-227h-1035zM831 -217q0 102 74 217h195q-61 -96 -62 -170q0 -33 16.5 -49.5t61.5 -16.5q25 0 62 13v-137q-43 -21 -143.5 -21t-152 38t-51.5 126z" />
<glyph unicode="&#x119;" horiz-adv-x="1144" d="M102 301v356q0 190 123 272.5t367 82.5q229 0 342 -78t113 -277v-241h-644v-90q0 -84 59.5 -122t223.5 -38q147 0 332 43v-191l-70 -14q-41 -82 -41 -174q0 -33 16.5 -49.5t61.5 -16.5q25 0 62 13v-137q-43 -21 -143.5 -21t-152 38t-51.5 126q0 94 62 199q-37 -2 -133 -2 q-526 0 -527 321zM403 586h359v143q0 47 -38 72.5t-136 25.5q-109 0 -147 -25.5t-38 -72.5v-143z" />
<glyph unicode="&#x11a;" horiz-adv-x="1249" d="M143 0v1329h1014v-227h-694v-305h627v-228h-627v-342h715v-227h-1035zM352 1731h201l109 -179l106 179h201l-115 -261h-383z" />
<glyph unicode="&#x11b;" horiz-adv-x="1144" d="M102 301v356q0 190 123 272.5t367 82.5q229 0 342 -78t113 -277v-241h-644v-90q0 -84 59.5 -122t223.5 -38q147 0 332 43v-191q-188 -39 -389 -38q-526 0 -527 321zM264 1393h201l108 -179l107 179h201l-115 -260h-383zM403 586h359v143q0 47 -38 72.5t-136 25.5 q-109 0 -147 -25.5t-38 -72.5v-143z" />
<glyph unicode="&#x11c;" horiz-adv-x="1312" d="M102 365v583q0 102 46.5 180t113 119t159.5 66.5t165.5 32t152.5 6.5q193 0 463 -45v-228q-244 57 -459 58q-55 0 -94 -2t-88 -12.5t-79.5 -27t-52 -50t-21.5 -78.5v-596q0 -53 34.5 -90t92 -55.5t116 -27t121.5 -8.5q55 0 154 11v346h-258v209h542v-731 q-225 -45 -471 -45q-82 0 -156.5 7t-166.5 30.5t-157.5 63.5t-111 112.5t-45.5 171.5zM393 1440l115 260h383l119 -260h-201l-109 178l-106 -178h-201z" />
<glyph unicode="&#x11d;" horiz-adv-x="1245" d="M102 279v387q0 201 84 273.5t326 72.5q106 0 163.5 -13.5t86.5 -39t63 -80.5v112h289v-1044q0 -217 -148.5 -307.5t-433.5 -90.5q-233 0 -358 15v200q201 -27 358 -26q150 0 216.5 48t66.5 165v160q-51 -76 -110.5 -103.5t-206.5 -27.5q-213 0 -304.5 63t-91.5 236z M313 1133l115 260h383l119 -260h-201l-108 178l-107 -178h-201zM401 307q0 -88 33 -114.5t170 -26.5q131 0 171 28.5t40 102.5v399q0 80 -41 105.5t-186 25.5q-121 0 -154 -29.5t-33 -111.5v-379z" />
<glyph unicode="&#x11e;" horiz-adv-x="1312" d="M102 365v583q0 102 46.5 180t113 119t159.5 66.5t165.5 32t152.5 6.5q193 0 463 -45v-228q-244 57 -459 58q-55 0 -94 -2t-88 -12.5t-79.5 -27t-52 -50t-21.5 -78.5v-596q0 -53 34.5 -90t92 -55.5t116 -27t121.5 -8.5q55 0 154 11v346h-258v209h542v-731 q-225 -45 -471 -45q-82 0 -156.5 7t-166.5 30.5t-157.5 63.5t-111 112.5t-45.5 171.5zM455 1700h139q12 -61 37.5 -90t79.5 -29q102 0 114 119h140q-8 -117 -76 -188.5t-178 -71.5q-113 0 -181.5 71.5t-74.5 188.5z" />
<glyph unicode="&#x11f;" horiz-adv-x="1245" d="M102 279v387q0 201 84 273.5t326 72.5q106 0 163.5 -13.5t86.5 -39t63 -80.5v112h289v-1044q0 -217 -148.5 -307.5t-433.5 -90.5q-233 0 -358 15v200q201 -27 358 -26q150 0 216.5 48t66.5 165v160q-51 -76 -110.5 -103.5t-206.5 -27.5q-213 0 -304.5 63t-91.5 236z M340 1393h166q12 -59 36.5 -86t80.5 -27q102 0 114 113h168q-8 -117 -82.5 -188.5t-199.5 -71.5q-127 0 -202 71.5t-81 188.5zM401 307q0 -88 33 -114.5t170 -26.5q131 0 171 28.5t40 102.5v399q0 80 -41 105.5t-186 25.5q-121 0 -154 -29.5t-33 -111.5v-379z" />
<glyph unicode="&#x120;" horiz-adv-x="1312" d="M102 365v583q0 102 46.5 180t113 119t159.5 66.5t165.5 32t152.5 6.5q193 0 463 -45v-228q-244 57 -459 58q-55 0 -94 -2t-88 -12.5t-79.5 -27t-52 -50t-21.5 -78.5v-596q0 -53 34.5 -90t92 -55.5t116 -27t121.5 -8.5q55 0 154 11v346h-258v209h542v-731 q-225 -45 -471 -45q-82 0 -156.5 7t-166.5 30.5t-157.5 63.5t-111 112.5t-45.5 171.5zM586 1464v236h299v-236h-299z" />
<glyph unicode="&#x121;" horiz-adv-x="1245" d="M102 279v387q0 201 84 273.5t326 72.5q106 0 163.5 -13.5t86.5 -39t63 -80.5v112h289v-1044q0 -217 -148.5 -307.5t-433.5 -90.5q-233 0 -358 15v200q201 -27 358 -26q150 0 216.5 48t66.5 165v160q-51 -76 -110.5 -103.5t-206.5 -27.5q-213 0 -304.5 63t-91.5 236z M401 307q0 -88 33 -114.5t170 -26.5q131 0 171 28.5t40 102.5v399q0 80 -41 105.5t-186 25.5q-121 0 -154 -29.5t-33 -111.5v-379zM473 1157v236h299v-236h-299z" />
<glyph unicode="&#x122;" horiz-adv-x="1443" d="M115 365v553q0 104 43 184t108.5 125t157.5 74.5t177 39t179 9.5q283 0 541 -43v-242q-244 57 -541 57q-346 0 -346 -200v-535q0 -102 97.5 -141t277.5 -39q100 0 215 31v309h-217v209h522v-690q-102 -37 -261 -61.5t-292 -24.5q-111 0 -200 9t-178 34.5t-149.5 66.5 t-97 110.5t-36.5 164.5zM539 -426l94 332h272l-170 -332h-196z" />
<glyph unicode="&#x123;" horiz-adv-x="1245" d="M102 279v387q0 201 84 273.5t326 72.5q106 0 163.5 -13.5t86.5 -39t63 -80.5v112h289v-1044q0 -217 -148.5 -307.5t-433.5 -90.5q-233 0 -358 15v200q201 -27 358 -26q150 0 216.5 48t66.5 165v160q-51 -76 -110.5 -103.5t-206.5 -27.5q-213 0 -304.5 63t-91.5 236z M401 307q0 -88 33 -114.5t170 -26.5q131 0 171 28.5t40 102.5v399q0 80 -41 105.5t-186 25.5q-121 0 -154 -29.5t-33 -111.5v-379zM440 1102l170 332h197l-94 -332h-273z" />
<glyph unicode="&#x124;" horiz-adv-x="1490" d="M143 0v1329h320v-532h565v532h320v-1329h-320v569h-565v-569h-320zM436 1470l115 261h383l119 -261h-201l-109 179l-106 -179h-201z" />
<glyph unicode="&#x125;" horiz-adv-x="1218" d="M-39 1524l115 260h383l119 -260h-201l-109 178l-106 -178h-201zM131 0v1434h299v-564q29 141 313 142q197 0 270.5 -71t73.5 -214v-727h-299v692q0 82 -27.5 108.5t-131.5 26.5q-129 0 -164 -25.5t-35 -109.5v-692h-299z" />
<glyph unicode="&#x126;" horiz-adv-x="1490" d="M143 0v1329h320v-336h565v336h320v-1329h-320v426h-565v-426h-320zM463 635h565v149h-565v-149z" />
<glyph unicode="&#x127;" horiz-adv-x="1218" d="M39 1133v178h92v123h299v-123h303v-178h-303v-263q29 141 313 142q197 0 270.5 -71t73.5 -214v-727h-299v692q0 82 -27.5 108.5t-131.5 26.5q-129 0 -164 -25.5t-35 -109.5v-692h-299v1133h-92z" />
<glyph unicode="&#x128;" horiz-adv-x="606" d="M8 1587q12 47 62.5 104.5t124.5 57.5q47 0 125.5 -30.5t111.5 -30.5q57 0 84 67l84 -49q-14 -49 -63.5 -108.5t-122.5 -59.5q-51 0 -133 34t-105 34q-59 0 -86 -68zM143 0v1329h320v-1329h-320z" />
<glyph unicode="&#x129;" horiz-adv-x="577" d="M-6 1249q12 47 62 104.5t124 57.5q47 0 126 -30.5t112 -30.5q57 0 84 67l84 -49q-14 -49 -63.5 -108.5t-123.5 -59.5q-51 0 -133 34t-104 34q-59 0 -86 -68zM139 0v991h299v-991h-299z" />
<glyph unicode="&#x12a;" horiz-adv-x="606" d="M18 1485v182h570v-182h-570zM143 0v1329h320v-1329h-320z" />
<glyph unicode="&#x12b;" horiz-adv-x="577" d="M4 1147v182h569v-182h-569zM139 0v991h299v-991h-299z" />
<glyph unicode="&#x12c;" horiz-adv-x="606" d="M20 1731h166q12 -59 37 -86t80 -27q102 0 115 113h168q-8 -117 -83 -189t-200 -72q-127 0 -201.5 72t-81.5 189zM143 0v1329h320v-1329h-320z" />
<glyph unicode="&#x12d;" horiz-adv-x="577" d="M6 1393h166q12 -59 36.5 -86t80.5 -27q102 0 114 113h168q-8 -117 -82.5 -188.5t-199.5 -71.5q-127 0 -202 71.5t-81 188.5zM139 0v991h299v-991h-299z" />
<glyph unicode="&#x12e;" horiz-adv-x="606" d="M80 -217q0 119 63 217v1329h320v-1329q-70 -23 -123 -72t-53 -98q0 -33 16 -49.5t62 -16.5q25 0 61 13v-137q-43 -20 -143.5 -20.5t-151.5 37.5t-51 126z" />
<glyph unicode="&#x12f;" horiz-adv-x="585" d="M84 -217q0 125 59 217v991h299v-991q-131 -68 -131 -170q0 -33 16.5 -49.5t61.5 -16.5q25 0 62 13v-137q-44 -21 -144 -21q-223 0 -223 164z" />
<glyph unicode="&#x130;" horiz-adv-x="606" d="M143 0v1329h320v-1329h-320zM154 1495v236h299v-236h-299z" />
<glyph unicode="&#x131;" horiz-adv-x="577" d="M139 0v991h299v-991h-299z" />
<glyph unicode="&#x132;" horiz-adv-x="1517" d="M143 0v1329h320v-1329h-320zM645 0v233q152 -27 252 -26q162 0 162 145v977h319v-967q0 -215 -116.5 -298.5t-339.5 -83.5q-133 0 -277 20z" />
<glyph unicode="&#x133;" horiz-adv-x="1138" d="M139 0v991h299v-991h-299zM139 1108v242h299v-242h-299zM500 -252q12 -2 37 -2q111 0 141.5 28.5t30.5 143.5v1073h299v-1141q0 -176 -105.5 -238.5t-306.5 -62.5q-27 0 -96 5v194zM709 1108v242h299v-242h-299z" />
<glyph unicode="&#x134;" horiz-adv-x="911" d="M39 0v233q152 -27 252 -26q162 0 162 145v977h319v-967q0 -215 -116.5 -298.5t-340.5 -83.5q-133 0 -276 20zM303 1470l115 261h383l119 -261h-201l-109 179l-106 -179h-201z" />
<glyph unicode="&#x135;" horiz-adv-x="561" d="M-78 -252q12 -2 37 -2q111 0 141.5 28.5t30.5 143.5v1073h299v-1141q0 -176 -105.5 -238.5t-306.5 -62.5q-27 0 -96 5v194zM-27 1133l115 260h383l119 -260h-201l-108 178l-107 -178h-201z" />
<glyph unicode="&#x136;" horiz-adv-x="1396" d="M143 0v1329h320v-1329h-320zM471 705l498 624h374l-503 -618l559 -711h-389zM514 -426l94 332h273l-170 -332h-197z" />
<glyph unicode="&#x137;" horiz-adv-x="1105" d="M131 0v1434h299v-1434h-299zM369 -426l94 332h272l-170 -332h-196zM442 557l326 434h342l-344 -432l373 -559h-338z" />
<glyph unicode="&#x138;" horiz-adv-x="1105" d="M131 0v991h299v-991h-299zM442 537l326 454h342l-344 -452l373 -539h-338z" />
<glyph unicode="&#x139;" d="M143 0v1329h320v-1102h653v-227h-973zM188 1470l185 261h325l-256 -261h-254z" />
<glyph unicode="&#x13a;" horiz-adv-x="577" d="M139 0v1434h299v-1434h-299zM162 1530l184 260h326l-256 -260h-254z" />
<glyph unicode="&#x13b;" d="M143 0v1329h320v-1102h653v-227h-973zM410 -426l94 332h272l-170 -332h-196z" />
<glyph unicode="&#x13c;" horiz-adv-x="577" d="M66 -426l94 332h272l-170 -332h-196zM139 0v1434h299v-1434h-299z" />
<glyph unicode="&#x13d;" d="M143 0v1329h320v-1102h653v-227h-973zM526 995l54 334h274l-131 -334h-197z" />
<glyph unicode="&#x13e;" horiz-adv-x="745" d="M139 0v1434h299v-1434h-299zM498 1100l53 334h274l-131 -334h-196z" />
<glyph unicode="&#x13f;" d="M143 0v1329h320v-1102h653v-227h-973zM559 543v282h301v-282h-301z" />
<glyph unicode="&#x140;" horiz-adv-x="804" d="M139 0v1434h299v-1434h-299zM524 537v282h301v-282h-301z" />
<glyph unicode="&#x141;" d="M20 457v215l123 35v622h320v-530l266 78v-215l-266 -78v-357h653v-227h-973v492z" />
<glyph unicode="&#x142;" horiz-adv-x="577" d="M20 580v206l119 45v603h299v-488l119 45v-207l-119 -45v-739h-299v625z" />
<glyph unicode="&#x143;" horiz-adv-x="1538" d="M143 0v1329h324l643 -907v907h285v-1329h-324l-643 922v-922h-285zM514 1470l184 261h326l-256 -261h-254z" />
<glyph unicode="&#x144;" horiz-adv-x="1218" d="M131 0v991h295v-121q35 141 317 142q197 0 270.5 -71t73.5 -214v-727h-299v688q0 82 -27.5 110.5t-131.5 28.5q-129 0 -164 -27.5t-35 -111.5v-688h-299zM354 1133l185 260h325l-256 -260h-254z" />
<glyph unicode="&#x145;" horiz-adv-x="1538" d="M143 0v1329h324l643 -907v907h285v-1329h-324l-643 922v-922h-285zM586 -426l94 332h272l-170 -332h-196z" />
<glyph unicode="&#x146;" horiz-adv-x="1218" d="M131 0v991h295v-121q35 141 317 142q197 0 270.5 -71t73.5 -214v-727h-299v688q0 82 -27.5 110.5t-131.5 28.5q-129 0 -164 -27.5t-35 -111.5v-688h-299zM426 -426l94 332h273l-170 -332h-197z" />
<glyph unicode="&#x147;" horiz-adv-x="1538" d="M143 0v1329h324l643 -907v907h285v-1329h-324l-643 922v-922h-285zM446 1700h201l109 -178l106 178h201l-115 -260h-383z" />
<glyph unicode="&#x148;" horiz-adv-x="1218" d="M131 0v991h295v-121q35 141 317 142q197 0 270.5 -71t73.5 -214v-727h-299v688q0 82 -27.5 110.5t-131.5 28.5q-129 0 -164 -27.5t-35 -111.5v-688h-299zM301 1393h201l108 -179l107 179h201l-115 -260h-383z" />
<glyph unicode="&#x149;" horiz-adv-x="1218" d="M131 0v991h295v-121q35 141 317 142q197 0 270.5 -71t73.5 -214v-727h-299v688q0 82 -27.5 110.5t-131.5 28.5q-129 0 -164 -27.5t-35 -111.5v-688h-299zM174 1100l53 334h275l-131 -334h-197z" />
<glyph unicode="&#x14a;" horiz-adv-x="1538" d="M143 0v1329h324l643 -907v907h285v-1395q0 -82 -17.5 -138t-44 -88t-74 -49t-93.5 -22.5t-115 -5.5q-135 0 -187 11v182q37 -10 107 -10q57 0 80.5 35.5t23.5 136.5v14l-647 922v-922h-285z" />
<glyph unicode="&#x14b;" horiz-adv-x="1173" d="M131 0v991h299v-121q29 141 313 142q197 0 270.5 -71t73.5 -214v-874q0 -82 -17 -138.5t-44 -88.5t-74 -49t-93 -22.5t-116 -5.5q-74 0 -125 11v182q37 -10 66 -10q57 0 80.5 36t23.5 136v786q0 82 -27.5 108.5t-131.5 26.5q-129 0 -164 -25.5t-35 -109.5v-690h-299z" />
<glyph unicode="&#x14c;" horiz-adv-x="1490" d="M115 365v581q0 102 46 180t110.5 119t156.5 66.5t164 32t151 6.5q82 0 155 -6.5t165 -32t157.5 -66.5t110.5 -118t45 -181v-581q0 -113 -59.5 -193t-159.5 -120t-200.5 -56t-213.5 -16q-106 0 -199 13t-198.5 50t-168 119t-62.5 203zM434 365q0 -51 26.5 -85t77 -48.5 t96.5 -19.5t113.5 -5t113.5 5t95.5 19.5t75 48.5t25.5 85v583q0 96 -79 135t-233 39q-156 0 -233.5 -37.5t-77.5 -136.5v-583zM461 1485v182h569v-182h-569z" />
<glyph unicode="&#x14d;" horiz-adv-x="1212" d="M102 340v293q0 102 32 175t78 111.5t120 60t132 27t142 5.5t142.5 -5.5t132 -27t120 -60t78 -111.5t31.5 -175v-293q0 -96 -30.5 -165t-76 -106.5t-118 -58t-133 -25.5t-146.5 -5t-146.5 5t-133 25.5t-117.5 58t-76 106.5t-31 165zM322 1147v182h569v-182h-569zM401 305 q0 -78 40 -108.5t165 -30.5t165 30.5t40 108.5v375q0 80 -41 113.5t-164 33.5t-164 -33.5t-41 -113.5v-375z" />
<glyph unicode="&#x14e;" horiz-adv-x="1490" d="M115 365v581q0 102 46 180t110.5 119t156.5 66.5t164 32t151 6.5q82 0 155 -6.5t165 -32t157.5 -66.5t110.5 -118t45 -181v-581q0 -113 -59.5 -193t-159.5 -120t-200.5 -56t-213.5 -16q-106 0 -199 13t-198.5 50t-168 119t-62.5 203zM434 365q0 -51 26.5 -85t77 -48.5 t96.5 -19.5t113.5 -5t113.5 5t95.5 19.5t75 48.5t25.5 85v583q0 96 -79 135t-233 39q-156 0 -233.5 -37.5t-77.5 -136.5v-583zM463 1731h166q12 -59 36.5 -86t79.5 -27q102 0 115 113h168q-8 -117 -83 -189t-200 -72q-127 0 -201.5 72t-80.5 189z" />
<glyph unicode="&#x14f;" horiz-adv-x="1212" d="M102 340v293q0 102 32 175t78 111.5t120 60t132 27t142 5.5t142.5 -5.5t132 -27t120 -60t78 -111.5t31.5 -175v-293q0 -96 -30.5 -165t-76 -106.5t-118 -58t-133 -25.5t-146.5 -5t-146.5 5t-133 25.5t-117.5 58t-76 106.5t-31 165zM324 1393h165q12 -59 37 -86t80 -27 q102 0 115 113h168q-8 -117 -83 -188.5t-200 -71.5q-127 0 -201.5 71.5t-80.5 188.5zM401 305q0 -78 40 -108.5t165 -30.5t165 30.5t40 108.5v375q0 80 -41 113.5t-164 33.5t-164 -33.5t-41 -113.5v-375z" />
<glyph unicode="&#x150;" horiz-adv-x="1490" d="M115 365v581q0 102 46 180t110.5 119t156.5 66.5t164 32t151 6.5q82 0 155 -6.5t165 -32t157.5 -66.5t110.5 -118t45 -181v-581q0 -113 -59.5 -193t-159.5 -120t-200.5 -56t-213.5 -16q-106 0 -199 13t-198.5 50t-168 119t-62.5 203zM424 1468l143 263h197l-143 -263 h-197zM434 365q0 -51 26.5 -85t77 -48.5t96.5 -19.5t113.5 -5t113.5 5t95.5 19.5t75 48.5t25.5 85v583q0 96 -79 135t-233 39q-156 0 -233.5 -37.5t-77.5 -136.5v-583zM725 1468l143 263h197l-143 -263h-197z" />
<glyph unicode="&#x151;" horiz-adv-x="1212" d="M102 340v293q0 102 32 175t78 111.5t120 60t132 27t142 5.5t142.5 -5.5t132 -27t120 -60t78 -111.5t31.5 -175v-293q0 -96 -30.5 -165t-76 -106.5t-118 -58t-133 -25.5t-146.5 -5t-146.5 5t-133 25.5t-117.5 58t-76 106.5t-31 165zM285 1130l143 263h197l-144 -263h-196z M401 305q0 -78 40 -108.5t165 -30.5t165 30.5t40 108.5v375q0 80 -41 113.5t-164 33.5t-164 -33.5t-41 -113.5v-375zM586 1130l143 263h197l-144 -263h-196z" />
<glyph unicode="&#x152;" horiz-adv-x="1998" d="M115 385v541q0 403 594 403h1198v-227h-660v-305h592v-228h-592v-342h680v-227h-1259q-553 0 -553 385zM420 385q0 -55 29.5 -90t88 -48.5t96.5 -16.5t99 -3h201v875h-203q-61 0 -103 -4t-96.5 -19.5t-83 -53.5t-28.5 -97v-543z" />
<glyph unicode="&#x153;" horiz-adv-x="1820" d="M102 340v293q0 102 32 175t78 111.5t120 60t132 27t142 5.5q215 0 328 -76q104 76 338 76q229 0 341.5 -78t112.5 -277v-241h-643v-90q0 -84 59.5 -122t223.5 -38q147 0 332 43v-191q-188 -39 -389 -38q-250 0 -369 73q-111 -74 -334 -73q-86 0 -146.5 5t-133 25.5 t-117.5 58t-76 106.5t-31 165zM401 305q0 -78 40 -108.5t165 -30.5t165 30.5t40 108.5v375q0 80 -41 113.5t-164 33.5t-164 -33.5t-41 -113.5v-375zM1083 586h359v143q0 47 -38 72.5t-136 25.5q-109 0 -147 -25.5t-38 -72.5v-143z" />
<glyph unicode="&#x154;" horiz-adv-x="1368" d="M246 0v1329h598q262 0 383 -63.5t121 -216.5v-234q0 -121 -87 -186.5t-217 -81.5l386 -547h-369l-348 522h-148v-522h-319zM428 1470l184 261h326l-256 -261h-254zM565 733h275q113 0 153.5 30t40.5 116v94q0 74 -44 101.5t-150 27.5h-275v-369z" />
<glyph unicode="&#x155;" horiz-adv-x="813" d="M131 0v991h285v-174q2 74 85 134.5t173 60.5h106v-248h-102q-123 0 -185.5 -38t-62.5 -130v-596h-299zM152 1133l184 260h326l-256 -260h-254z" />
<glyph unicode="&#x156;" horiz-adv-x="1368" d="M246 0v1329h598q262 0 383 -63.5t121 -216.5v-234q0 -121 -87 -186.5t-217 -81.5l386 -547h-369l-348 522h-148v-522h-319zM500 -426l94 332h272l-170 -332h-196zM565 733h275q113 0 153.5 30t40.5 116v94q0 74 -44 101.5t-150 27.5h-275v-369z" />
<glyph unicode="&#x157;" horiz-adv-x="813" d="M70 -426l94 332h272l-170 -332h-196zM131 0v991h285v-174q2 74 85 134.5t173 60.5h106v-248h-102q-123 0 -185.5 -38t-62.5 -130v-596h-299z" />
<glyph unicode="&#x158;" horiz-adv-x="1368" d="M246 0v1329h598q262 0 383 -63.5t121 -216.5v-234q0 -121 -87 -186.5t-217 -81.5l386 -547h-369l-348 522h-148v-522h-319zM375 1731h200l109 -179l107 179h200l-114 -261h-383zM565 733h275q113 0 153.5 30t40.5 116v94q0 74 -44 101.5t-150 27.5h-275v-369z" />
<glyph unicode="&#x159;" horiz-adv-x="813" d="M98 1393h201l109 -179l106 179h201l-115 -260h-383zM131 0v991h285v-174q2 74 85 134.5t173 60.5h106v-248h-102q-123 0 -185.5 -38t-62.5 -130v-596h-299z" />
<glyph unicode="&#x15a;" horiz-adv-x="1241" d="M76 913v99q0 172 144.5 255t461.5 83q154 0 416 -27v-238q-311 37 -426 37q-158 0 -217.5 -26.5t-59.5 -89.5v-95q0 -104 176 -104h160q233 0 332.5 -86t99.5 -254v-88q0 -119 -43 -200t-127 -123t-183 -59t-237 -17q-190 0 -471 36v244q340 -53 476 -53q266 0 266 137 v86q0 59 -35 97t-139 38h-156q-438 0 -438 348zM365 1470l184 261h325l-256 -261h-253z" />
<glyph unicode="&#x15b;" horiz-adv-x="1075" d="M90 653v121q0 135 129 186.5t365 51.5q98 0 352 -19v-190q-319 25 -361 24q-125 0 -157.5 -17t-32.5 -67v-53q0 -25 25.5 -45t78.5 -20h132q364 0 364 -238v-125q0 -74 -27.5 -127t-69.5 -82.5t-109.5 -46t-130 -21.5t-146.5 -5q-162 0 -391 30v199q285 -43 395 -43 q88 0 136 17.5t48 68.5v61q0 47 -26.5 71t-114.5 24h-129q-156 0 -243 62t-87 183zM283 1133l184 260h326l-256 -260h-254z" />
<glyph unicode="&#x15c;" horiz-adv-x="1241" d="M76 913v99q0 172 144.5 255t461.5 83q154 0 416 -27v-238q-311 37 -426 37q-158 0 -217.5 -26.5t-59.5 -89.5v-95q0 -104 176 -104h160q233 0 332.5 -86t99.5 -254v-88q0 -119 -43 -200t-127 -123t-183 -59t-237 -17q-190 0 -471 36v244q340 -53 476 -53q266 0 266 137 v86q0 59 -35 97t-139 38h-156q-438 0 -438 348zM311 1470l115 261h383l119 -261h-201l-109 179l-106 -179h-201z" />
<glyph unicode="&#x15d;" horiz-adv-x="1075" d="M90 653v121q0 135 129 186.5t365 51.5q98 0 352 -19v-190q-319 25 -361 24q-125 0 -157.5 -17t-32.5 -67v-53q0 -25 25.5 -45t78.5 -20h132q364 0 364 -238v-125q0 -74 -27.5 -127t-69.5 -82.5t-109.5 -46t-130 -21.5t-146.5 -5q-162 0 -391 30v199q285 -43 395 -43 q88 0 136 17.5t48 68.5v61q0 47 -26.5 71t-114.5 24h-129q-156 0 -243 62t-87 183zM229 1133l115 260h383l119 -260h-201l-108 178l-107 -178h-201z" />
<glyph unicode="&#x15e;" horiz-adv-x="1241" d="M76 913v99q0 172 144.5 255t461.5 83q154 0 416 -27v-238q-311 37 -426 37q-158 0 -217.5 -26.5t-59.5 -89.5v-95q0 -104 176 -104h160q233 0 332.5 -86t99.5 -254v-88q0 -119 -43 -200t-127 -123t-183 -59t-237 -17q-190 0 -471 36v244q340 -53 476 -53q266 0 266 137 v86q0 59 -35 97t-139 38h-156q-438 0 -438 348zM403 -403l46 94q61 -37 126 -37q96 0 97 72q0 78 -154 77h-82q4 8 65.5 98.5t65.5 98.5h144l-74 -102q84 -6 141.5 -44t57.5 -118q0 -92 -75 -139.5t-171 -47.5q-115 0 -187 48z" />
<glyph unicode="&#x15f;" horiz-adv-x="1075" d="M90 653v121q0 135 129 186.5t365 51.5q98 0 352 -19v-190q-319 25 -361 24q-125 0 -157.5 -17t-32.5 -67v-53q0 -25 25.5 -45t78.5 -20h132q364 0 364 -238v-125q0 -74 -27.5 -127t-69.5 -82.5t-109.5 -46t-130 -21.5t-146.5 -5q-162 0 -391 30v199q285 -43 395 -43 q88 0 136 17.5t48 68.5v61q0 47 -26.5 71t-114.5 24h-129q-156 0 -243 62t-87 183zM322 -403l45 94q61 -37 127 -37q96 0 96 72q0 78 -154 77h-82q4 8 65.5 98.5t65.5 98.5h144l-74 -102q84 -6 141.5 -44t57.5 -118q0 -92 -75 -139.5t-171 -47.5q-115 0 -186 48z" />
<glyph unicode="&#x160;" horiz-adv-x="1241" d="M76 913v99q0 172 144.5 255t461.5 83q154 0 416 -27v-238q-311 37 -426 37q-158 0 -217.5 -26.5t-59.5 -89.5v-95q0 -104 176 -104h160q233 0 332.5 -86t99.5 -254v-88q0 -119 -43 -200t-127 -123t-183 -59t-237 -17q-190 0 -471 36v244q340 -53 476 -53q266 0 266 137 v86q0 59 -35 97t-139 38h-156q-438 0 -438 348zM311 1731h201l109 -179l106 179h201l-115 -261h-383z" />
<glyph unicode="&#x161;" horiz-adv-x="1075" d="M90 653v121q0 135 129 186.5t365 51.5q98 0 352 -19v-190q-319 25 -361 24q-125 0 -157.5 -17t-32.5 -67v-53q0 -25 25.5 -45t78.5 -20h132q364 0 364 -238v-125q0 -74 -27.5 -127t-69.5 -82.5t-109.5 -46t-130 -21.5t-146.5 -5q-162 0 -391 30v199q285 -43 395 -43 q88 0 136 17.5t48 68.5v61q0 47 -26.5 71t-114.5 24h-129q-156 0 -243 62t-87 183zM229 1393h201l109 -179l106 179h201l-115 -260h-383z" />
<glyph unicode="&#x162;" horiz-adv-x="1218" d="M41 1102v227h1137v-227h-408v-1102h-319v1102h-410zM426 -426l94 332h273l-170 -332h-197z" />
<glyph unicode="&#x163;" horiz-adv-x="833" d="M20 807v184h201v287h299v-287h273v-184h-273v-467q0 -102 31 -138t135 -36q35 0 107 10v-186q-86 -10 -166 -10q-70 0 -122 5t-108.5 24.5t-92.5 51t-59.5 90t-23.5 138.5v518h-201zM233 -426l95 332h272l-170 -332h-197z" />
<glyph unicode="&#x164;" horiz-adv-x="1218" d="M41 1102v227h1137v-227h-408v-1102h-319v1102h-410zM301 1731h201l108 -179l107 179h201l-115 -261h-383z" />
<glyph unicode="&#x165;" horiz-adv-x="833" d="M20 807v184h201v287h299v-287h273v-184h-273v-467q0 -102 31 -138t135 -36q35 0 107 10v-186q-86 -10 -166 -10q-70 0 -122 5t-108.5 24.5t-92.5 51t-59.5 90t-23.5 138.5v518h-201zM614 1161l54 334h274l-131 -334h-197z" />
<glyph unicode="&#x166;" horiz-adv-x="1218" d="M41 1102v227h1137v-227h-408v-324h221v-203h-221v-575h-319v575h-230v203h230v324h-410z" />
<glyph unicode="&#x167;" horiz-adv-x="833" d="M20 485v179h201v149h-201v178h201v307h299v-307h273v-178h-273v-149h273v-179h-273v-145q0 -113 24.5 -142.5t141.5 -29.5q35 0 107 10v-182q-86 -10 -166 -10q-72 0 -123 5t-108.5 22.5t-92.5 49t-58.5 89t-23.5 137.5v196h-201z" />
<glyph unicode="&#x168;" horiz-adv-x="1431" d="M139 365v964h320v-964q0 -90 59.5 -124t200.5 -34q139 0 196.5 33.5t57.5 124.5v964h319v-964q0 -385 -577 -385q-575 0 -576 385zM420 1587q12 47 62 104.5t124 57.5q47 0 126 -30.5t112 -30.5q57 0 84 67l84 -49q-14 -49 -63.5 -108.5t-123.5 -59.5q-51 0 -133 34 t-104 34q-59 0 -86 -68z" />
<glyph unicode="&#x169;" horiz-adv-x="1218" d="M131 264v727h299v-686q0 -82 27.5 -110.5t132.5 -28.5q129 0 163.5 27.5t34.5 111.5v686h299v-991h-294v121q-35 -141 -318 -141q-197 0 -270.5 70.5t-73.5 213.5zM313 1249q12 47 62.5 104.5t124.5 57.5q47 0 125.5 -30.5t111.5 -30.5q57 0 84 67l84 -49 q-14 -49 -63 -108.5t-123 -59.5q-51 0 -133 34t-105 34q-59 0 -86 -68z" />
<glyph unicode="&#x16a;" horiz-adv-x="1431" d="M139 365v964h320v-964q0 -90 59.5 -124t200.5 -34q139 0 196.5 33.5t57.5 124.5v964h319v-964q0 -385 -577 -385q-575 0 -576 385zM430 1485v182h569v-182h-569z" />
<glyph unicode="&#x16b;" horiz-adv-x="1218" d="M131 264v727h299v-686q0 -82 27.5 -110.5t132.5 -28.5q129 0 163.5 27.5t34.5 111.5v686h299v-991h-294v121q-35 -141 -318 -141q-197 0 -270.5 70.5t-73.5 213.5zM324 1147v182h569v-182h-569z" />
<glyph unicode="&#x16c;" horiz-adv-x="1431" d="M139 365v964h320v-964q0 -90 59.5 -124t200.5 -34q139 0 196.5 33.5t57.5 124.5v964h319v-964q0 -385 -577 -385q-575 0 -576 385zM432 1731h166q12 -59 36.5 -86t80.5 -27q102 0 114 113h168q-8 -117 -82.5 -189t-199.5 -72q-127 0 -202 72t-81 189z" />
<glyph unicode="&#x16d;" horiz-adv-x="1218" d="M131 264v727h299v-686q0 -82 27.5 -110.5t132.5 -28.5q129 0 163.5 27.5t34.5 111.5v686h299v-991h-294v121q-35 -141 -318 -141q-197 0 -270.5 70.5t-73.5 213.5zM326 1393h166q12 -59 36.5 -86t79.5 -27q102 0 115 113h168q-8 -117 -83 -188.5t-200 -71.5 q-127 0 -201.5 71.5t-80.5 188.5z" />
<glyph unicode="&#x16e;" horiz-adv-x="1431" d="M139 365v964h320v-964q0 -90 59.5 -124t200.5 -34q139 0 196.5 33.5t57.5 124.5v964h319v-964q0 -385 -577 -385q-575 0 -576 385zM410 1671v25q0 59 17 100t42 62.5t69 34t80.5 14.5t96 2t96.5 -2t81 -14.5t68.5 -34t42 -62.5t17.5 -100v-25q0 -68 -22.5 -110.5 t-70.5 -61t-93.5 -24t-119 -5.5t-118.5 5.5t-93 24t-70.5 61.5t-22.5 110zM571 1657q0 -49 30 -64.5t114 -15.5t113.5 15.5t29.5 64.5v55q0 59 -24.5 74.5t-118.5 15.5t-119 -15t-25 -75v-55z" />
<glyph unicode="&#x16f;" horiz-adv-x="1218" d="M131 264v727h299v-686q0 -82 27.5 -110.5t132.5 -28.5q129 0 163.5 27.5t34.5 111.5v686h299v-991h-294v121q-35 -141 -318 -141q-197 0 -270.5 70.5t-73.5 213.5zM303 1333v25q0 59 17.5 100t42 62.5t68.5 34t81 14.5t96.5 2t96 -2t80.5 -14.5t69 -34t42 -62.5t17 -100 v-25q0 -68 -22.5 -110.5t-70.5 -61t-93 -23.5t-118.5 -5t-119 5t-93.5 23.5t-70.5 61.5t-22.5 110zM465 1319q0 -49 29.5 -64.5t113.5 -15.5t114 15.5t30 64.5v55q0 59 -25 74.5t-119 15.5t-118.5 -15t-24.5 -75v-55z" />
<glyph unicode="&#x170;" horiz-adv-x="1431" d="M139 365v964h320v-964q0 -90 59.5 -124t200.5 -34q139 0 196.5 33.5t57.5 124.5v964h319v-964q0 -385 -577 -385q-575 0 -576 385zM395 1468l144 263h196l-143 -263h-197zM696 1468l144 263h196l-143 -263h-197z" />
<glyph unicode="&#x171;" horiz-adv-x="1218" d="M131 264v727h299v-686q0 -82 27.5 -110.5t132.5 -28.5q129 0 163.5 27.5t34.5 111.5v686h299v-991h-294v121q-35 -141 -318 -141q-197 0 -270.5 70.5t-73.5 213.5zM289 1130l143 263h197l-144 -263h-196zM590 1130l143 263h197l-144 -263h-196z" />
<glyph unicode="&#x172;" horiz-adv-x="1439" d="M143 365v964h306v-973q0 -88 65.5 -122.5t208.5 -34.5q141 0 204.5 33.5t63.5 123.5v973h305v-964q0 -346 -475 -381q-49 -78 -49 -154q0 -33 16.5 -49.5t61.5 -16.5q25 0 61 13v-137q-43 -21 -143 -21t-151.5 38t-51.5 126q0 96 62 201q-483 27 -484 381z" />
<glyph unicode="&#x173;" horiz-adv-x="1218" d="M131 264v727h299v-686q0 -82 27.5 -110.5t132.5 -28.5q129 0 163.5 27.5t34.5 111.5v686h299v-991q-141 -90 -141 -170q0 -33 16.5 -49.5t61.5 -16.5q25 0 61 13v-137q-43 -21 -143 -21q-102 0 -152.5 38t-50.5 126q0 86 54 217v121q-35 -141 -318 -141 q-197 0 -270.5 70.5t-73.5 213.5z" />
<glyph unicode="&#x174;" horiz-adv-x="2017" d="M16 1329h332l258 -971l258 971h297l279 -971l237 971h324l-426 -1329h-315l-254 965l-263 -965h-315zM700 1470l115 261h383l119 -261h-201l-108 179l-107 -179h-201z" />
<glyph unicode="&#x175;" horiz-adv-x="1683" d="M16 991h306l184 -719l196 719h293l205 -719l176 719h291l-324 -991h-303l-196 670l-193 -670h-303zM532 1133l115 260h383l119 -260h-201l-108 178l-107 -178h-201z" />
<glyph unicode="&#x176;" horiz-adv-x="1318" d="M16 1329h363l280 -520l279 520h365l-486 -792v-537h-319v532zM350 1470l115 261h383l119 -261h-201l-109 179l-106 -179h-201z" />
<glyph unicode="&#x177;" horiz-adv-x="1093" d="M16 991h326l223 -700l203 700h309l-542 -1417h-304l181 434zM238 1133l114 260h383l119 -260h-201l-108 178l-107 -178h-200z" />
<glyph unicode="&#x178;" horiz-adv-x="1318" d="M16 1329h363l280 -520l279 520h365l-486 -792v-537h-319v532zM336 1495v242h258v-242h-258zM725 1495v242h258v-242h-258z" />
<glyph unicode="&#x179;" horiz-adv-x="1253" d="M82 0v195l692 907h-672v227h1065v-192l-692 -908h705v-229h-1098zM371 1470l184 261h326l-256 -261h-254z" />
<glyph unicode="&#x17a;" horiz-adv-x="1048" d="M82 0v160l500 637h-480v194h861v-160l-500 -636h512v-195h-893zM268 1133l185 260h325l-256 -260h-254z" />
<glyph unicode="&#x17b;" horiz-adv-x="1253" d="M82 0v195l692 907h-672v227h1065v-192l-692 -908h705v-229h-1098zM477 1495v236h299v-236h-299z" />
<glyph unicode="&#x17c;" horiz-adv-x="1048" d="M82 0v160l500 637h-480v194h861v-160l-500 -636h512v-195h-893zM375 1157v236h299v-236h-299z" />
<glyph unicode="&#x17d;" horiz-adv-x="1253" d="M82 0v195l692 907h-672v227h1065v-192l-692 -908h705v-229h-1098zM317 1731h201l109 -179l106 179h201l-115 -261h-383z" />
<glyph unicode="&#x17e;" horiz-adv-x="1048" d="M82 0v160l500 637h-480v194h861v-160l-500 -636h512v-195h-893zM215 1393h201l108 -179l107 179h200l-114 -260h-383z" />
<glyph unicode="&#x17f;" horiz-adv-x="655" d="M20 807v184h187v150q0 182 92 247.5t293 65.5q86 0 223 -16v-185q-123 16 -176 17q-74 0 -103.5 -23.5t-29.5 -89.5v-1157h-299v807h-187z" />
<glyph unicode="&#x192;" horiz-adv-x="835" d="M-2 -184q12 -2 37 -2q111 0 141.5 28.5t30.5 143.5v827h-187v178h187v119q0 182 92 247.5t293 65.5q86 0 223 -16v-193q-123 16 -156 17q-106 0 -129.5 -17.5t-23.5 -87.5v-135h289v-178h-289v-895q0 -176 -105.5 -238.5t-306.5 -62.5q-61 0 -96 2v197z" />
<glyph unicode="&#x218;" horiz-adv-x="1241" d="M76 913v99q0 172 144.5 255t461.5 83q154 0 416 -27v-238q-311 37 -426 37q-158 0 -217.5 -26.5t-59.5 -89.5v-95q0 -104 176 -104h160q233 0 332.5 -86t99.5 -254v-88q0 -119 -43 -200t-127 -123t-183 -59t-237 -17q-190 0 -471 36v244q340 -53 476 -53q266 0 266 137 v86q0 59 -35 97t-139 38h-156q-438 0 -438 348zM428 -401l94 307h273l-170 -307h-197z" />
<glyph unicode="&#x219;" horiz-adv-x="1075" d="M90 653v121q0 135 129 186.5t365 51.5q98 0 352 -19v-190q-319 25 -361 24q-125 0 -157.5 -17t-32.5 -67v-53q0 -25 25.5 -45t78.5 -20h132q364 0 364 -238v-125q0 -74 -27.5 -127t-69.5 -82.5t-109.5 -46t-130 -21.5t-146.5 -5q-162 0 -391 30v199q285 -43 395 -43 q88 0 136 17.5t48 68.5v61q0 47 -26.5 71t-114.5 24h-129q-156 0 -243 62t-87 183zM354 -426l95 332h272l-170 -332h-197z" />
<glyph unicode="&#x21a;" horiz-adv-x="1214" d="M41 1102v227h1137v-227h-408v-1102h-319v1102h-410zM385 -395l94 307h273l-170 -307h-197z" />
<glyph unicode="&#x21b;" horiz-adv-x="833" d="M20 807v184h201v287h299v-287h273v-184h-273v-467q0 -102 31 -138t135 -36q35 0 107 10v-186q-86 -10 -166 -10q-70 0 -122 5t-108.5 24.5t-92.5 51t-59.5 90t-23.5 138.5v518h-201zM233 -426l95 332h272l-170 -332h-197z" />
<glyph unicode="&#x237;" horiz-adv-x="561" d="M-78 -252q12 -2 37 -2q111 0 141.5 28.5t30.5 143.5v1073h299v-1141q0 -176 -105.5 -238.5t-306.5 -62.5q-27 0 -96 5v194z" />
<glyph unicode="&#x2bc;" horiz-adv-x="524" d="M88 1100l53 334h275l-131 -334h-197z" />
<glyph unicode="&#x2c6;" horiz-adv-x="819" d="M102 1133l115 260h383l119 -260h-201l-108 178l-107 -178h-201z" />
<glyph unicode="&#x2c7;" horiz-adv-x="819" d="M102 1393h201l109 -179l106 179h201l-115 -260h-383z" />
<glyph unicode="&#x2c9;" horiz-adv-x="819" d="M125 1147v182h569v-182h-569z" />
<glyph unicode="&#x2d8;" horiz-adv-x="819" d="M127 1393h166q12 -59 36.5 -86t80.5 -27q102 0 114 113h168q-8 -117 -82.5 -188.5t-199.5 -71.5q-127 0 -202 71.5t-81 188.5z" />
<glyph unicode="&#x2d9;" horiz-adv-x="819" d="M260 1157v236h299v-236h-299z" />
<glyph unicode="&#x2da;" horiz-adv-x="819" d="M104 1333v25q0 59 17.5 100t42 62.5t68.5 34t81 14.5t96.5 2t96.5 -2t81 -14.5t68.5 -34t42 -62.5t17.5 -100v-25q0 -68 -22.5 -110.5t-71 -61t-93.5 -23.5t-118.5 -5t-118.5 5t-93 23.5t-71 61.5t-23 110zM266 1319q0 -49 30 -64.5t114 -15.5t113.5 15.5t29.5 64.5v55 q0 59 -24.5 74.5t-119 15.5t-119 -15t-24.5 -75v-55z" />
<glyph unicode="&#x2db;" horiz-adv-x="819" d="M236 -217q0 102 73 217h195q-61 -96 -62 -170q0 -33 16.5 -49.5t61.5 -16.5q25 0 62 13v-137q-44 -21 -144 -21q-102 0 -152 38t-50 126z" />
<glyph unicode="&#x2dc;" horiz-adv-x="819" d="M115 1249q12 47 62 104.5t124 57.5q47 0 126 -30.5t112 -30.5q57 0 84 67l84 -49q-14 -49 -63.5 -108.5t-123.5 -59.5q-51 0 -133 34t-104 34q-59 0 -86 -68z" />
<glyph unicode="&#x2dd;" horiz-adv-x="819" d="M88 1130l143 263h197l-143 -263h-197zM389 1130l143 263h197l-143 -263h-197z" />
<glyph unicode="&#x384;" horiz-adv-x="616" d="M141 1454h336l-80 -352h-176z" />
<glyph unicode="&#x385;" horiz-adv-x="1064" d="M86 1157v242h258v-242h-258zM387 1454h295l-80 -352h-135zM721 1157v242h258v-242h-258z" />
<glyph unicode="&#x386;" horiz-adv-x="1460" d="M0 1348h336l-80 -353h-176zM96 0l492 1329h389l479 -1329h-323l-119 350h-486l-116 -350h-316zM600 563h344l-168 500h-8z" />
<glyph unicode="&#x388;" horiz-adv-x="1538" d="M0 1348h336l-80 -353h-176zM432 0v1329h1014v-227h-694v-305h626v-228h-626v-342h714v-227h-1034z" />
<glyph unicode="&#x389;" horiz-adv-x="1779" d="M0 1348h336l-80 -353h-176zM432 0v1329h320v-532h565v532h319v-1329h-319v569h-565v-569h-320z" />
<glyph unicode="&#x38a;" horiz-adv-x="894" d="M0 1348h336l-80 -353h-176zM432 0v1329h320v-1329h-320z" />
<glyph unicode="&#x38c;" horiz-adv-x="1779" d="M0 1348h336l-80 -353h-176zM403 365v581q0 102 46.5 180t111 119t156.5 66.5t163.5 32t151.5 6.5q82 0 155 -6.5t165 -32t157.5 -66.5t110.5 -118t45 -181v-581q0 -113 -59.5 -193t-159.5 -120t-200.5 -56t-213.5 -16q-106 0 -199.5 13t-199 50t-168 119t-62.5 203z M723 365q0 -51 26.5 -85t77 -48.5t96.5 -19.5t113.5 -5t113.5 5t95 19.5t75 48.5t26 85v583q0 96 -79 135t-233 39q-156 0 -233.5 -37.5t-77.5 -136.5v-583z" />
<glyph unicode="&#x38e;" horiz-adv-x="1710" d="M0 1348h336l-80 -353h-176zM408 1329h362l281 -520l278 520h365l-486 -792v-537h-319v532z" />
<glyph unicode="&#x38f;" horiz-adv-x="1783" d="M0 1348h336l-80 -353h-176zM391 0v207h271q-246 109 -246 383v356q0 403 620.5 403.5t620.5 -403.5v-356q0 -274 -246 -383h270v-207h-563v240q92 4 162 66.5t70 150.5v506q0 96 -80 135t-233.5 39t-233.5 -39t-80 -135v-506q0 -88 69.5 -150.5t161.5 -66.5v-240h-563z " />
<glyph unicode="&#x390;" horiz-adv-x="630" d="M-131 1157v242h258v-242h-258zM143 289v702h299v-731q0 -90 64 -90q27 0 84 8v-182q-86 -10 -144 -10q-88 0 -136 9t-91 38.5t-59.5 91t-16.5 164.5zM170 1454h295l-80 -352h-135zM504 1157v242h258v-242h-258z" />
<glyph unicode="&#x391;" horiz-adv-x="1368" d="M4 0l492 1329h389l479 -1329h-324l-118 350h-486l-117 -350h-315zM508 563h344l-168 500h-8z" />
<glyph unicode="&#x392;" horiz-adv-x="1300" d="M143 0v1329h539q283 0 383 -63.5t100 -221.5v-163q0 -57 -45 -106.5t-102 -65.5v-11q74 -8 140.5 -65t66.5 -131v-205q0 -166 -133.5 -231.5t-395.5 -65.5h-553zM463 227h227q117 0 166 27t49 86v106q0 74 -38 105t-134 31h-270v-355zM463 788h219q113 0 144.5 29 t31.5 105v65q0 66 -30.5 90.5t-151.5 24.5h-213v-314z" />
<glyph unicode="&#x393;" horiz-adv-x="1058" d="M143 0v1329h871v-227h-551v-1102h-320z" />
<glyph unicode="&#x395;" horiz-adv-x="1249" d="M143 0v1329h1014v-227h-694v-305h627v-228h-627v-342h715v-227h-1035z" />
<glyph unicode="&#x396;" horiz-adv-x="1253" d="M82 0v195l692 907h-672v227h1065v-192l-692 -908h705v-229h-1098z" />
<glyph unicode="&#x397;" horiz-adv-x="1490" d="M143 0v1329h320v-532h565v532h320v-1329h-320v569h-565v-569h-320z" />
<glyph unicode="&#x398;" horiz-adv-x="1490" d="M115 365v581q0 102 46 180t110.5 119t156.5 66.5t164 32t151 6.5q82 0 155 -6.5t165 -32t157.5 -66.5t110.5 -118t45 -181v-581q0 -113 -59.5 -193t-159.5 -120t-200.5 -56t-213.5 -16q-106 0 -199 13t-198.5 50t-168 119t-62.5 203zM434 365q0 -51 26.5 -85t77 -48.5 t96.5 -19.5t113.5 -5t113.5 5t95.5 19.5t75 48.5t25.5 85v583q0 96 -79 135t-233 39q-156 0 -233.5 -37.5t-77.5 -136.5v-583zM532 569v228h437v-228h-437z" />
<glyph unicode="&#x399;" horiz-adv-x="606" d="M143 0v1329h320v-1329h-320z" />
<glyph unicode="&#x39a;" horiz-adv-x="1366" d="M143 0v1329h314v-530q76 0 108.5 14t61.5 61l141 234q86 141 156.5 181t238.5 40h146v-227h-84q-102 0 -131 -15.5t-76 -91.5l-82 -133q-39 -61 -70.5 -89t-79.5 -46q51 -12 133 -88t168 -205l291 -434h-370l-254 391q-80 123 -136.5 155t-160.5 32v-578h-314z" />
<glyph unicode="&#x39b;" horiz-adv-x="1368" d="M4 0l492 1329h389l479 -1329h-324l-356 1063h-8l-357 -1063h-315z" />
<glyph unicode="&#x39c;" horiz-adv-x="1820" d="M143 0v1329h455l328 -950l323 950h428v-1329h-288v983h-7l-335 -983h-256l-347 983h-8v-983h-293z" />
<glyph unicode="&#x39d;" horiz-adv-x="1538" d="M143 0v1329h324l643 -907v907h285v-1329h-324l-643 922v-922h-285z" />
<glyph unicode="&#x39e;" horiz-adv-x="1423" d="M143 0v227h1137v-227h-1137zM143 1102v227h1137v-227h-1137zM246 569v228h932v-228h-932z" />
<glyph unicode="&#x39f;" horiz-adv-x="1490" d="M115 365v581q0 102 46 180t110.5 119t156.5 66.5t164 32t151 6.5q82 0 155 -6.5t165 -32t157.5 -66.5t110.5 -118t45 -181v-581q0 -113 -59.5 -193t-159.5 -120t-200.5 -56t-213.5 -16q-106 0 -199 13t-198.5 50t-168 119t-62.5 203zM434 365q0 -51 26.5 -85t77 -48.5 t96.5 -19.5t113.5 -5t113.5 5t95.5 19.5t75 48.5t25.5 85v583q0 96 -79 135t-233 39q-156 0 -233.5 -37.5t-77.5 -136.5v-583z" />
<glyph unicode="&#x3a0;" horiz-adv-x="1478" d="M143 0v1329h1192v-1329h-319v1102h-553v-1102h-320z" />
<glyph unicode="&#x3a1;" horiz-adv-x="1284" d="M143 0v1329h533q283 0 404.5 -62.5t121.5 -242.5v-252q0 -197 -131 -268.5t-432 -71.5h-176v-432h-320zM463 651h203q125 0 176 29.5t51 101.5v213q0 63 -49 85t-182 22h-199v-451z" />
<glyph unicode="&#x3a3;" horiz-adv-x="1191" d="M76 0v240l522 444l-522 395v250h1028v-221h-645l413 -322v-194l-434 -365h686v-227h-1048z" />
<glyph unicode="&#x3a4;" horiz-adv-x="1218" d="M41 1102v227h1137v-227h-408v-1102h-319v1102h-410z" />
<glyph unicode="&#x3a5;" horiz-adv-x="1318" d="M16 1329h363l280 -520l279 520h365l-486 -792v-537h-319v532z" />
<glyph unicode="&#x3a6;" horiz-adv-x="1548" d="M102 508v295q0 137 82 230t195 129t244 36v131h303v-131q131 0 243.5 -36t194.5 -129t82 -230v-295q0 -123 -80 -212t-194.5 -128t-245.5 -39v-129h-303v129q-137 0 -250 35t-192 124t-79 220zM422 500q0 -72 57.5 -111t143.5 -39v629q-90 0 -145.5 -45t-55.5 -119v-315z M926 348q88 0 144 40t56 112v315q0 74 -54 119t-146 45v-631z" />
<glyph unicode="&#x3a7;" horiz-adv-x="1386" d="M20 0l490 678l-469 651h369l284 -442l283 442h369l-469 -651l491 -678h-371l-303 471l-305 -471h-369z" />
<glyph unicode="&#x3a8;" horiz-adv-x="1673" d="M143 831v498h303v-450q0 -113 55.5 -164t174.5 -62v676h319v-676q119 12 175.5 62.5t56.5 163.5v450h303v-498q0 -94 -51.5 -170.5t-134 -122.5t-171 -72t-178.5 -32v-434h-319v432q-90 6 -179 31.5t-171 72t-132.5 123t-50.5 172.5z" />
<glyph unicode="&#x3aa;" horiz-adv-x="606" d="M-20 1495v242h258v-242h-258zM143 0v1329h320v-1329h-320zM369 1495v242h258v-242h-258z" />
<glyph unicode="&#x3ab;" horiz-adv-x="1318" d="M16 1329h363l280 -520l279 520h365l-486 -792v-537h-319v532zM336 1495v242h258v-242h-258zM725 1495v242h258v-242h-258z" />
<glyph unicode="&#x3ac;" horiz-adv-x="1243" d="M102 326v387q0 166 99.5 232.5t306.5 66.5q147 0 206.5 -28t110.5 -103l11 110h276l-31 -471l19 -268q6 -104 90 -105h20v-147h-264q-49 0 -82 27.5t-39 66.5h-8q-47 -76 -98 -95t-209 -19q-254 0 -331 63t-77 283zM399 307q0 -82 33 -111.5t154 -29.5q145 0 186 25.5 t41 105.5v399q0 74 -40 102.5t-171 28.5q-137 0 -170 -26.5t-33 -114.5v-379zM453 1454h335l-79 -352h-177z" />
<glyph unicode="&#x3ad;" horiz-adv-x="1026" d="M90 289v51q0 133 180 199q-51 14 -89 54t-38 103v56q0 152 107.5 206t345.5 54q92 0 373 -19v-211q-207 25 -340 25q-106 0 -142 -22.5t-36 -61.5v-33q0 -90 139 -90h241v-180h-241q-90 0 -138.5 -19.5t-48.5 -72.5v-27q0 -117 191 -117q184 0 387 54v-222 q-174 -37 -426 -36q-246 0 -355.5 68.5t-109.5 240.5zM426 1454h336l-80 -352h-176z" />
<glyph unicode="&#x3ae;" horiz-adv-x="1218" d="M131 0v991h295v-121q35 141 317 142q197 0 270.5 -71t73.5 -214v-1153h-299v1114q0 82 -27.5 110.5t-131.5 28.5q-129 0 -164 -27.5t-35 -111.5v-688h-299zM440 1454h336l-80 -352h-176z" />
<glyph unicode="&#x3af;" horiz-adv-x="630" d="M127 1454h336l-80 -352h-176zM143 289v702h299v-731q0 -90 64 -90q27 0 84 8v-182q-86 -10 -144 -10q-88 0 -136 9t-91 38.5t-59.5 91t-16.5 164.5z" />
<glyph unicode="&#x3b0;" horiz-adv-x="1239" d="M143 365v626h297v-624q0 -102 34 -142.5t149 -40.5q109 0 142.5 61.5t33.5 176.5q0 272 -133 569h297q133 -276 133 -565q0 -135 -40 -227.5t-112 -137.5t-149.5 -63t-176.5 -18q-102 0 -176.5 13t-147.5 51t-112 119t-39 202zM172 1157v242h258v-242h-258zM473 1454h295 l-80 -352h-135zM807 1157v242h258v-242h-258z" />
<glyph unicode="&#x3b1;" horiz-adv-x="1243" d="M102 326v387q0 166 99.5 232.5t306.5 66.5q147 0 206.5 -28t110.5 -103l11 110h276l-31 -471l19 -268q6 -104 90 -105h20v-147h-264q-49 0 -82 27.5t-39 66.5h-8q-47 -76 -98 -95t-209 -19q-254 0 -331 63t-77 283zM399 307q0 -82 33 -111.5t154 -29.5q145 0 186 25.5 t41 105.5v399q0 74 -40 102.5t-171 28.5q-137 0 -170 -26.5t-33 -114.5v-379z" />
<glyph unicode="&#x3b2;" horiz-adv-x="1288" d="M131 -352v1417q0 109 36 165t152.5 88t344.5 32q268 0 375.5 -72t107.5 -213v-184q0 -57 -44 -106.5t-102 -65.5l-2 -11q74 -8 140.5 -65t66.5 -131v-226q0 -168 -125 -232t-383 -64q-131 0 -268 51v-383h-299zM430 238q102 -45 248 -45q127 0 177 21.5t50 76.5v196 q0 41 -29.5 63.5t-64.5 27t-90 4.5h-154v200h103q113 0 150.5 22.5t37.5 69.5v199q0 23 -11 37t-56.5 25.5t-126.5 11.5q-234 0 -234 -74v-835z" />
<glyph unicode="&#x3b3;" horiz-adv-x="1044" d="M0 991h317l234 -715q182 262 192 715h301q-49 -571 -366 -993v-424h-299v422z" />
<glyph unicode="&#x3b4;" horiz-adv-x="1269" d="M102 313v219q0 86 18.5 147.5t50.5 100.5t87 69t113.5 49.5t148.5 45.5q20 6 31 8q-256 156 -256 301q0 180 268 181h441v-177h-297q-80 0 -80 -45q0 -8 8 -19t26.5 -27.5t36 -31t48 -37t51.5 -40.5q33 -27 89 -73t75.5 -63.5t57.5 -49t49 -45t34.5 -39t29 -41t16.5 -38 t13 -45t4 -49t2 -61.5v-240q0 -92 -32.5 -155.5t-80.5 -98t-129 -53t-145.5 -22.5t-165.5 -4q-512 0 -512 333zM387 348q0 -186 227 -186q80 0 121 4t80 21.5t53.5 56t14.5 104.5v172q0 25 -1 44.5t-6.5 38t-7.5 29.5t-15 27.5t-19.5 24.5t-28 27.5t-32.5 29t-43 36 t-50 40.5q-141 -41 -199.5 -73.5t-76 -72.5t-17.5 -130v-193z" />
<glyph unicode="&#x3b5;" horiz-adv-x="1026" d="M90 289v51q0 133 180 199q-51 14 -89 54t-38 103v56q0 152 107.5 206t345.5 54q92 0 373 -19v-211q-207 25 -340 25q-106 0 -142 -22.5t-36 -61.5v-33q0 -90 139 -90h241v-180h-241q-90 0 -138.5 -19.5t-48.5 -72.5v-27q0 -117 191 -117q184 0 387 54v-222 q-174 -37 -426 -36q-246 0 -355.5 68.5t-109.5 240.5z" />
<glyph unicode="&#x3b6;" horiz-adv-x="935" d="M20 1034v238h474q150 150 288 149q57 0 101.5 -41t44.5 -100q0 -94 -78 -160.5t-215 -81.5q-158 -110 -158 -311v-367q0 -78 46 -103.5t184 -47.5q106 -16 157 -81t51 -234v-175h-262v110t-10 71t-19.5 50t-42 25.5t-64.5 16.5t-99 8q-39 2 -77 16.5t-82 47t-70.5 103.5 t-26.5 171v362q0 84 45 174.5t121 159.5h-308z" />
<glyph unicode="&#x3b7;" horiz-adv-x="1218" d="M131 0v991h295v-121q35 141 317 142q197 0 270.5 -71t73.5 -214v-1153h-299v1114q0 82 -27.5 110.5t-131.5 28.5q-129 0 -164 -27.5t-35 -111.5v-688h-299z" />
<glyph unicode="&#x3b8;" d="M104 346v619q0 104 31 178t75 113.5t114.5 61t128 27t139.5 5.5q84 0 142.5 -5.5t130 -27t114.5 -61t73.5 -113.5t30.5 -178v-619q0 -98 -30.5 -169t-74.5 -107.5t-115.5 -58t-130 -26.5t-140.5 -5q-84 0 -143.5 5t-130 25.5t-112.5 58t-72 108.5t-30 169zM408 319 q0 -96 28.5 -124.5t159.5 -28.5q70 0 106.5 6t54 27.5t20.5 44t3 75.5v261h-372v-261zM408 764h372v233q0 109 -29.5 139.5t-156.5 30.5q-131 0 -158.5 -29.5t-27.5 -140.5v-233z" />
<glyph unicode="&#x3b9;" horiz-adv-x="630" d="M143 289v702h299v-731q0 -90 64 -90q27 0 84 8v-182q-86 -10 -144 -10q-88 0 -136 9t-91 38.5t-59.5 91t-16.5 164.5z" />
<glyph unicode="&#x3ba;" horiz-adv-x="1134" d="M131 0v991h299v-397q45 0 62.5 8t37.5 43l97 158q84 139 131 163.5t231 24.5h98v-184h-32q-76 0 -112 -15.5t-69 -62.5l-57 -82q-53 -78 -100 -102q98 -41 196 -178l261 -367h-345l-188 276q-61 90 -98 113t-113 23v-412h-299z" />
<glyph unicode="&#x3bb;" horiz-adv-x="1015" d="M-16 0l366 989l-168 445h303l543 -1434h-317l-217 686l-209 -686h-301z" />
<glyph unicode="&#x3bd;" horiz-adv-x="1044" d="M0 991h317l218 -686l208 686h301l-364 -991h-303z" />
<glyph unicode="&#x3be;" horiz-adv-x="1126" d="M8 1126v203h641q248 0 393 -18v-213q-211 25 -360 24q-199 0 -199 -88v-168q0 -49 45 -74.5t115 -25.5h242v-205h-242q-207 0 -207 -98v-133q0 -51 44 -83t167 -32q160 0 252 -15.5t144.5 -61.5t67.5 -109.5t15 -175.5q0 -94 -30 -183h-258q14 51 14 125q0 115 -50 160 t-194 45q-248 0 -366.5 72.5t-118.5 244.5v177q0 133 180 198q-51 14 -89 54t-38 104v156q0 80 23 120h-191z" />
<glyph unicode="&#x3bf;" horiz-adv-x="1212" d="M102 340v293q0 102 32 175t78 111.5t120 60t132 27t142 5.5t142.5 -5.5t132 -27t120 -60t78 -111.5t31.5 -175v-293q0 -96 -30.5 -165t-76 -106.5t-118 -58t-133 -25.5t-146.5 -5t-146.5 5t-133 25.5t-117.5 58t-76 106.5t-31 165zM401 305q0 -78 40 -108.5t165 -30.5 t165 30.5t40 108.5v375q0 80 -41 113.5t-164 33.5t-164 -33.5t-41 -113.5v-375z" />
<glyph unicode="&#x3c0;" horiz-adv-x="1325" d="M61 813v178h1186v-178h-184v-543q0 -70 21.5 -86t127.5 -16h52v-174q-68 -8 -164 -8q-92 0 -145.5 9t-101.5 40t-67.5 95.5t-19.5 170.5v512h-223v-813h-297v813h-185z" />
<glyph unicode="&#x3c1;" horiz-adv-x="1247" d="M131 -442v1081q0 195 108.5 284t393.5 89q270 0 392 -85t122 -288v-326q0 -90 -13.5 -145t-54.5 -101.5t-120.5 -66.5t-206.5 -20q-150 0 -222.5 25.5t-99.5 92.5v-540h-299zM430 311q0 -82 39 -114.5t166 -32.5q141 0 177 25.5t36 121.5v367q0 88 -40 117.5t-171 29.5 t-169 -29.5t-38 -117.5v-367z" />
<glyph unicode="&#x3c2;" horiz-adv-x="987" d="M102 311v340q0 74 17.5 130.5t43 94t72 64.5t85 40t101 21.5t104.5 9.5t110 1q113 0 301 -37v-197q-213 49 -324 49q-207 0 -206 -139v-364q0 -51 43 -83t167 -32q182 0 270.5 -33t118 -103.5t29.5 -219.5q0 -94 -30 -183h-259q14 51 15 125q0 121 -31 160t-151 39 q-246 0 -361 72.5t-115 244.5z" />
<glyph unicode="&#x3c3;" horiz-adv-x="1222" d="M102 340v293q0 102 33 175t79 111.5t120 60t133 27t143 5.5q66 0 182.5 -10.5t151.5 -10.5h342v-184h-242q74 -61 74 -195v-272q0 -96 -31.5 -165t-76.5 -106.5t-119 -58t-134.5 -25.5t-146.5 -5t-146.5 5t-134 25.5t-118.5 58t-77 106.5t-32 165zM406 299 q0 -78 39.5 -105.5t164.5 -27.5t165 27.5t40 105.5v381q0 80 -41 113.5t-164 33.5t-163.5 -33.5t-40.5 -113.5v-381z" />
<glyph unicode="&#x3c4;" horiz-adv-x="935" d="M41 807v184h854v-184h-293v-510q0 -131 105 -131q43 0 86 6v-180q-102 -12 -144 -12q-88 0 -143 10t-105.5 40.5t-74 94t-23.5 164.5v518h-262z" />
<glyph unicode="&#x3c5;" horiz-adv-x="1239" d="M143 365v626h297v-624q0 -102 34 -142.5t149 -40.5q109 0 142.5 61.5t33.5 176.5q0 272 -133 569h297q133 -276 133 -565q0 -135 -40 -227.5t-112 -137.5t-149.5 -63t-176.5 -18q-102 0 -176.5 13t-147.5 51t-112 119t-39 202z" />
<glyph unicode="&#x3c6;" horiz-adv-x="1404" d="M102 340v293q0 106 32 180t91.5 113t123 57.5t145.5 24.5v-185q-51 -14 -69.5 -46t-18.5 -89v-395q0 -117 180 -131v520q0 55 6 98t14 76t26.5 57.5t33 41t44 27.5t49 17.5t60.5 9.5t64.5 3h72.5q193 0 270 -92.5t77 -286.5v-293q0 -102 -40 -173t-113 -107.5t-145.5 -53 t-166.5 -22.5v-410h-252v408q-98 4 -173 18t-151 50t-118 109.5t-42 180.5zM838 166q161 18 161 127v395q0 84 -16 111.5t-65 27.5q-43 0 -61.5 -28.5t-18.5 -108.5v-524z" />
<glyph unicode="&#x3c7;" horiz-adv-x="1163" d="M20 -360l390 671l-369 680h346l195 -481l196 481h346l-370 -680l391 -671h-346l-217 475l-215 -475h-347z" />
<glyph unicode="&#x3c8;" horiz-adv-x="1673" d="M143 377v614h283v-567q0 -201 260 -225v792h299v-792q262 25 262 225v567h283v-614q0 -125 -93.5 -216t-210 -132t-241.5 -49v-406h-299v403q-127 8 -243.5 48.5t-208 132.5t-91.5 219z" />
<glyph unicode="&#x3c9;" horiz-adv-x="1712" d="M123 487q0 135 17.5 240.5t72.5 263.5h295q-84 -313 -84 -516q0 -182 31.5 -245.5t109.5 -63.5q76 0 111 54t35 173v402h295v-402q0 -119 34.5 -173t110.5 -54t107.5 63.5t31.5 245.5q0 139 -100 516h293q106 -307 106 -506q0 -160 -23.5 -260t-78.5 -154.5t-128 -72.5 t-192 -18q-219 0 -309 106q-92 -106 -313 -106q-236 0 -329 104t-93 403z" />
<glyph unicode="&#x3ca;" horiz-adv-x="630" d="M-8 1157v242h258v-242h-258zM143 289v702h299v-731q0 -90 64 -90q27 0 84 8v-182q-86 -10 -144 -10q-88 0 -136 9t-91 38.5t-59.5 91t-16.5 164.5zM381 1157v242h258v-242h-258z" />
<glyph unicode="&#x3cb;" horiz-adv-x="1239" d="M143 365v626h297v-624q0 -102 34 -142.5t149 -40.5q109 0 142.5 61.5t33.5 176.5q0 272 -133 569h297q133 -276 133 -565q0 -135 -40 -227.5t-112 -137.5t-149.5 -63t-176.5 -18q-102 0 -176.5 13t-147.5 51t-112 119t-39 202zM295 1157v242h258v-242h-258zM684 1157v242 h258v-242h-258z" />
<glyph unicode="&#x3cc;" horiz-adv-x="1212" d="M102 340v293q0 102 32 175t78 111.5t120 60t132 27t142 5.5t142.5 -5.5t132 -27t120 -60t78 -111.5t31.5 -175v-293q0 -96 -30.5 -165t-76 -106.5t-118 -58t-133 -25.5t-146.5 -5t-146.5 5t-133 25.5t-117.5 58t-76 106.5t-31 165zM401 305q0 -78 40 -108.5t165 -30.5 t165 30.5t40 108.5v375q0 80 -41 113.5t-164 33.5t-164 -33.5t-41 -113.5v-375zM438 1454h336l-80 -352h-176z" />
<glyph unicode="&#x3cd;" horiz-adv-x="1239" d="M143 365v626h297v-624q0 -102 34 -142.5t149 -40.5q109 0 142.5 61.5t33.5 176.5q0 272 -133 569h297q133 -276 133 -565q0 -135 -40 -227.5t-112 -137.5t-149.5 -63t-176.5 -18q-102 0 -176.5 13t-147.5 51t-112 119t-39 202zM451 1454h335l-79 -352h-177z" />
<glyph unicode="&#x3ce;" horiz-adv-x="1712" d="M123 487q0 135 17.5 240.5t72.5 263.5h295q-84 -313 -84 -516q0 -182 31.5 -245.5t109.5 -63.5q76 0 111 54t35 173v402h295v-402q0 -119 34.5 -173t110.5 -54t107.5 63.5t31.5 245.5q0 139 -100 516h293q106 -307 106 -506q0 -160 -23.5 -260t-78.5 -154.5t-128 -72.5 t-192 -18q-219 0 -309 106q-92 -106 -313 -106q-236 0 -329 104t-93 403zM688 1454h336l-80 -352h-176z" />
<glyph unicode="&#x400;" horiz-adv-x="1249" d="M143 0v1329h1014v-227h-694v-305h627v-228h-627v-342h715v-227h-1035zM369 1731h325l185 -261h-254z" />
<glyph unicode="&#x401;" horiz-adv-x="1249" d="M143 0v1329h1014v-227h-694v-305h627v-228h-627v-342h715v-227h-1035zM301 1495v242h258v-242h-258zM690 1495v242h258v-242h-258z" />
<glyph unicode="&#x402;" horiz-adv-x="1728" d="M41 1102v227h1137v-227h-408v-428q20 94 104 122.5t291 28.5q213 0 325 -111.5t112 -303.5q0 -127 -99.5 -405t-156.5 -337h-361q70 63 183.5 317.5t113.5 383.5q0 242 -231 241q-152 0 -216.5 -30.5t-64.5 -112.5v-467h-319v1102h-410z" />
<glyph unicode="&#x403;" horiz-adv-x="1058" d="M143 0v1329h871v-227h-551v-1102h-320zM397 1470l185 261h325l-256 -261h-254z" />
<glyph unicode="&#x404;" horiz-adv-x="1222" d="M115 365v583q0 401 616 402q152 0 422 -45v-240q-244 57 -418 57q-70 0 -113.5 -4t-92 -20.5t-72 -52t-23.5 -93.5v-155h543v-228h-543v-182q0 -180 330 -180q145 0 397 59v-241q-225 -45 -430 -45q-82 0 -154.5 7t-161.5 30.5t-151.5 63.5t-105.5 112.5t-43 171.5z" />
<glyph unicode="&#x405;" horiz-adv-x="1241" d="M76 913v99q0 172 144.5 255t461.5 83q154 0 416 -27v-238q-311 37 -426 37q-158 0 -217.5 -26.5t-59.5 -89.5v-95q0 -104 176 -104h160q233 0 332.5 -86t99.5 -254v-88q0 -119 -43 -200t-127 -123t-183 -59t-237 -17q-190 0 -471 36v244q340 -53 476 -53q266 0 266 137 v86q0 59 -35 97t-139 38h-156q-438 0 -438 348z" />
<glyph unicode="&#x406;" horiz-adv-x="606" d="M143 0v1329h320v-1329h-320z" />
<glyph unicode="&#x407;" horiz-adv-x="606" d="M-20 1495v242h258v-242h-258zM143 0v1329h320v-1329h-320zM369 1495v242h258v-242h-258z" />
<glyph unicode="&#x408;" horiz-adv-x="911" d="M39 0v233q152 -27 252 -26q162 0 162 145v977h319v-967q0 -215 -116.5 -298.5t-340.5 -83.5q-133 0 -276 20z" />
<glyph unicode="&#x409;" horiz-adv-x="2308" d="M41 -4v209q37 -10 106 -10q125 0 125 135v999h1133v-502h237q80 0 126.5 -1t116 -6t109.5 -15t88 -30.5t73.5 -50.5t43 -74t17.5 -101v-234q0 -315 -537 -315h-596v1102h-491v-813q0 -80 -21.5 -137.5t-53.5 -89t-86 -49t-103 -22.5t-121 -5q-115 0 -166 10zM1405 227 h260q125 0 178 35t53 103v124q0 66 -56 87.5t-171 21.5h-264v-371z" />
<glyph unicode="&#x40a;" horiz-adv-x="2238" d="M143 0v1329h320v-508h553v508h319v-508h238q80 0 126 -1t115.5 -6t109.5 -15.5t88 -30.5t73.5 -50t43 -74t17.5 -101v-228q0 -315 -536 -315h-594v594h-553v-594h-320zM1335 227h260q125 0 178.5 35t53.5 103v118q0 66 -56.5 87.5t-171.5 21.5h-264v-365z" />
<glyph unicode="&#x40b;" horiz-adv-x="1728" d="M41 1102v227h1137v-227h-408v-428q20 94 104 122.5t291 28.5q238 0 337.5 -75.5t99.5 -237.5v-512h-320v446q0 94 -45 129t-186 35q-152 0 -216.5 -30.5t-64.5 -112.5v-467h-319v1102h-410z" />
<glyph unicode="&#x40c;" horiz-adv-x="1366" d="M143 0v1329h314v-530q76 0 108.5 14t61.5 61l141 234q86 141 156.5 181t238.5 40h146v-227h-84q-102 0 -131 -15.5t-76 -91.5l-82 -133q-39 -61 -70.5 -89t-79.5 -46q51 -12 133 -88t168 -205l291 -434h-370l-254 391q-80 123 -136.5 155t-160.5 32v-578h-314zM428 1470 l184 261h326l-256 -261h-254z" />
<glyph unicode="&#x40d;" horiz-adv-x="1538" d="M143 0v1329h306v-928l602 928h344v-1329h-305v942l-603 -942h-344zM514 1731h326l184 -261h-254z" />
<glyph unicode="&#x40e;" horiz-adv-x="1302" d="M20 1329h326l340 -600l270 600h326l-508 -1067q-68 -143 -164 -212.5t-264 -69.5q-94 0 -205 20v233q88 -27 150 -26q131 0 184 115l55 116zM369 1731h166q12 -59 36.5 -86t79.5 -27q102 0 115 113h168q-8 -117 -83 -189t-200 -72q-127 0 -201.5 72t-80.5 189z" />
<glyph unicode="&#x40f;" horiz-adv-x="1490" d="M143 0v1329h320v-1102h565v1102h320v-1329h-443v-338h-319v338h-443z" />
<glyph unicode="&#x410;" horiz-adv-x="1368" d="M4 0l492 1329h389l479 -1329h-324l-118 350h-486l-117 -350h-315zM508 563h344l-168 500h-8z" />
<glyph unicode="&#x411;" horiz-adv-x="1366" d="M143 0v1329h1035v-227h-715v-275h237q80 0 126 -1t116 -6t110 -15t88 -30.5t73.5 -50.5t43 -74t17.5 -101v-234q0 -315 -537 -315h-594zM463 227h260q125 0 178 35t53 103v124q0 66 -56 87.5t-171 21.5h-264v-371z" />
<glyph unicode="&#x412;" horiz-adv-x="1300" d="M143 0v1329h539q283 0 383 -63.5t100 -221.5v-163q0 -57 -45 -106.5t-102 -65.5v-11q74 -8 140.5 -65t66.5 -131v-205q0 -166 -133.5 -231.5t-395.5 -65.5h-553zM463 227h227q117 0 166 27t49 86v106q0 74 -38 105t-134 31h-270v-355zM463 788h219q113 0 144.5 29 t31.5 105v65q0 66 -30.5 90.5t-151.5 24.5h-213v-314z" />
<glyph unicode="&#x413;" horiz-adv-x="1058" d="M143 0v1329h871v-227h-551v-1102h-320z" />
<glyph unicode="&#x414;" horiz-adv-x="1454" d="M45 227h115q96 145 136 325.5t40 561.5v215h913v-1102h131v-567h-288v340h-758v-340h-289v567zM502 227h430v875h-287v-103q0 -512 -143 -772z" />
<glyph unicode="&#x415;" horiz-adv-x="1249" d="M143 0v1329h1014v-227h-694v-305h627v-228h-627v-342h715v-227h-1035z" />
<glyph unicode="&#x416;" horiz-adv-x="2078" d="M-12 0l291 434q86 129 167.5 205t133.5 88q-47 18 -79 46t-71 89l-82 133q-47 76 -75.5 91.5t-131.5 15.5h-84v227h146q168 0 238.5 -40t156.5 -181l141 -234q31 -49 54.5 -62t95.5 -13v530h301v-530q72 0 95.5 13t53.5 62l142 234q86 141 156.5 181t238.5 40h145v-227 h-84q-102 0 -130.5 -15.5t-75.5 -91.5l-82 -133q-39 -61 -71 -89t-79 -46q51 -12 133 -88t168 -205l291 -434h-371l-254 391q-82 127 -129 157t-147 30v-578h-301v578q-100 0 -147.5 -30t-129.5 -157l-254 -391h-370z" />
<glyph unicode="&#x417;" horiz-adv-x="1230" d="M82 16v244q270 -53 448 -53q129 0 190.5 29.5t61.5 76.5v154q0 57 -55 78.5t-192 21.5h-283v228h283q109 0 154.5 22.5t45.5 75.5v125q0 57 -50 80.5t-189 23.5q-25 0 -390 -24v233q281 18 422 19q250 0 385.5 -56.5t135.5 -203.5v-220q0 -61 -40 -102t-94 -55 q187 -68 187 -199v-219q0 -315 -533 -315q-256 0 -487 36z" />
<glyph unicode="&#x418;" horiz-adv-x="1538" d="M143 0v1329h306v-928l602 928h344v-1329h-305v942l-603 -942h-344z" />
<glyph unicode="&#x419;" horiz-adv-x="1538" d="M143 0v1329h306v-928l602 928h344v-1329h-305v942l-603 -942h-344zM485 1731h166q12 -59 37 -86t80 -27q102 0 115 113h168q-8 -117 -83 -189t-200 -72q-127 0 -201.5 72t-81.5 189z" />
<glyph unicode="&#x41a;" horiz-adv-x="1366" d="M143 0v1329h314v-530q76 0 108.5 14t61.5 61l141 234q86 141 156.5 181t238.5 40h146v-227h-84q-102 0 -131 -15.5t-76 -91.5l-82 -133q-39 -61 -70.5 -89t-79.5 -46q51 -12 133 -88t168 -205l291 -434h-370l-254 391q-80 123 -136.5 155t-160.5 32v-578h-314z" />
<glyph unicode="&#x41b;" horiz-adv-x="1558" d="M41 -4v209q37 -10 106 -10q125 0 125 135v999h1143v-1329h-319v1102h-504v-813q0 -80 -21.5 -137.5t-53.5 -89t-86 -49t-103 -22.5t-121 -5q-115 0 -166 10z" />
<glyph unicode="&#x41c;" horiz-adv-x="1820" d="M143 0v1329h455l328 -950l323 950h428v-1329h-288v983h-7l-335 -983h-256l-347 983h-8v-983h-293z" />
<glyph unicode="&#x41d;" horiz-adv-x="1490" d="M143 0v1329h320v-532h565v532h320v-1329h-320v569h-565v-569h-320z" />
<glyph unicode="&#x41e;" horiz-adv-x="1490" d="M115 365v581q0 102 46 180t110.5 119t156.5 66.5t164 32t151 6.5q82 0 155 -6.5t165 -32t157.5 -66.5t110.5 -118t45 -181v-581q0 -113 -59.5 -193t-159.5 -120t-200.5 -56t-213.5 -16q-106 0 -199 13t-198.5 50t-168 119t-62.5 203zM434 365q0 -51 26.5 -85t77 -48.5 t96.5 -19.5t113.5 -5t113.5 5t95.5 19.5t75 48.5t25.5 85v583q0 96 -79 135t-233 39q-156 0 -233.5 -37.5t-77.5 -136.5v-583z" />
<glyph unicode="&#x41f;" horiz-adv-x="1478" d="M143 0v1329h1192v-1329h-319v1102h-553v-1102h-320z" />
<glyph unicode="&#x420;" horiz-adv-x="1284" d="M143 0v1329h533q283 0 404.5 -62.5t121.5 -242.5v-252q0 -197 -131 -268.5t-432 -71.5h-176v-432h-320zM463 651h203q125 0 176 29.5t51 101.5v213q0 63 -49 85t-182 22h-199v-451z" />
<glyph unicode="&#x421;" horiz-adv-x="1222" d="M115 365v583q0 401 616 402q152 0 422 -45v-240q-244 57 -418 57q-70 0 -113.5 -4t-92 -20.5t-72 -52t-23.5 -93.5v-565q0 -180 330 -180q145 0 397 59v-241q-225 -45 -430 -45q-82 0 -154.5 7t-161.5 30.5t-151.5 63.5t-105.5 112.5t-43 171.5z" />
<glyph unicode="&#x422;" horiz-adv-x="1218" d="M41 1102v227h1137v-227h-408v-1102h-319v1102h-410z" />
<glyph unicode="&#x423;" horiz-adv-x="1302" d="M20 1329h326l340 -600l270 600h326l-508 -1067q-68 -143 -164 -212.5t-264 -69.5q-94 0 -205 20v233q88 -27 150 -26q131 0 184 115l55 116z" />
<glyph unicode="&#x424;" horiz-adv-x="1548" d="M102 508v295q0 137 82 230t195 129t244 36v131h303v-131q131 0 243.5 -36t194.5 -129t82 -230v-295q0 -123 -80 -212t-194.5 -128t-245.5 -39v-129h-303v129q-137 0 -250 35t-192 124t-79 220zM422 500q0 -72 57.5 -111t143.5 -39v629q-90 0 -145.5 -45t-55.5 -119v-315z M926 348q88 0 144 40t56 112v315q0 74 -54 119t-146 45v-631z" />
<glyph unicode="&#x425;" horiz-adv-x="1386" d="M20 0l490 678l-469 651h369l284 -442l283 442h369l-469 -651l491 -678h-371l-303 471l-305 -471h-369z" />
<glyph unicode="&#x426;" horiz-adv-x="1490" d="M143 0v1329h320v-1102h565v1102h320v-1669h-320v340h-885z" />
<glyph unicode="&#x427;" horiz-adv-x="1421" d="M127 733v596h319v-530q0 -94 45.5 -129t186.5 -35q152 0 216 30.5t64 112.5v551h320v-1329h-320v571q-20 -94 -104 -122.5t-291 -28.5q-238 0 -337 75.5t-99 237.5z" />
<glyph unicode="&#x428;" horiz-adv-x="2127" d="M143 0v1329h320v-1102h440v1102h322v-1102h440v1102h320v-1329h-1842z" />
<glyph unicode="&#x429;" horiz-adv-x="2127" d="M143 0v1329h320v-1102h440v1102h322v-1102h440v1102h320v-1669h-320v340h-1522z" />
<glyph unicode="&#x42a;" horiz-adv-x="1671" d="M41 1102v227h729v-502h236q80 0 126 -1t115.5 -6t109.5 -15t88 -30.5t73.5 -50.5t43 -74t17.5 -101v-234q0 -315 -537 -315h-593v1102h-408zM770 227h258q125 0 178.5 35t53.5 103v124q0 66 -56.5 87.5t-171.5 21.5h-262v-371z" />
<glyph unicode="&#x42b;" horiz-adv-x="1927" d="M143 0v1329h320v-502h237q80 0 126 -1t116 -6t110 -15t88 -30.5t73.5 -50.5t43 -74t17.5 -101v-234q0 -315 -537 -315h-594zM463 227h260q125 0 178 35t53 103v124q0 66 -56 87.5t-171 21.5h-264v-371zM1464 0v1329h320v-1329h-320z" />
<glyph unicode="&#x42c;" horiz-adv-x="1366" d="M143 0v1329h320v-502h237q80 0 126 -1t116 -6t110 -15t88 -30.5t73.5 -50.5t43 -74t17.5 -101v-234q0 -315 -537 -315h-594zM463 227h260q125 0 178 35t53 103v124q0 66 -56 87.5t-171 21.5h-264v-371z" />
<glyph unicode="&#x42d;" horiz-adv-x="1222" d="M61 25v241q252 -59 398 -59q330 0 329 180v182h-542v228h542v155q0 57 -21.5 93t-66.5 52.5t-88 20.5t-110 4q-166 0 -391 -53v240q246 41 421 41q121 0 204 -8.5t159 -33t119 -68.5t68.5 -116.5t25.5 -175.5v-583q0 -98 -43 -171t-105.5 -113t-151.5 -63.5t-162 -30.5 t-154 -7q-205 0 -431 45z" />
<glyph unicode="&#x42e;" horiz-adv-x="2043" d="M143 0v1329h320v-532h205v149q0 102 46 180t110.5 119t156.5 66.5t164 32t151 6.5q82 0 155 -6.5t165 -32t157.5 -66.5t110.5 -117.5t45 -181.5v-581q0 -113 -59.5 -193t-159.5 -120t-200.5 -56t-213.5 -16q-106 0 -199 13t-198.5 50t-168 119t-62.5 203v204h-205v-569 h-320zM987 365q0 -51 26.5 -85t77 -48.5t96.5 -19.5t113.5 -5t113.5 5t95.5 19.5t75 48.5t25.5 85v583q0 96 -79 135t-233 39q-156 0 -233.5 -37.5t-77.5 -136.5v-583z" />
<glyph unicode="&#x42f;" horiz-adv-x="1368" d="M41 0l385 547q-303 37 -303 246v233q0 158 124 230.5t380 72.5h598v-1329h-320v522h-147l-348 -522h-369zM436 879q0 -86 41 -116t154 -30h274v369h-274q-106 0 -150.5 -27.5t-44.5 -101.5v-94z" />
<glyph unicode="&#x430;" horiz-adv-x="1155" d="M80 297q0 176 67.5 244.5t241.5 68.5h336v68q0 90 -42 119.5t-177 29.5q-127 0 -348 -24v188q170 20 379 21q274 0 380.5 -66.5t106.5 -263.5v-682h-293v90q-33 -59 -94.5 -84.5t-224.5 -25.5q-201 0 -266.5 61t-65.5 256zM373 303q0 -96 25.5 -116.5t129.5 -20.5 q51 0 76 1t53.5 5t40 13.5t19.5 25.5t8 43v192h-205q-98 0 -122.5 -22.5t-24.5 -120.5z" />
<glyph unicode="&#x431;" d="M113 346v723q0 104 35.5 179t85 114t128 60.5t139 26.5t142.5 5q74 0 369 -20v-220q-254 33 -385 33t-174 -42.5t-43 -155.5v-179q35 141 317 142q197 0 272.5 -71t75.5 -214v-381q0 -98 -29.5 -167.5t-72.5 -107.5t-111.5 -59.5t-128 -26.5t-141.5 -5q-84 0 -143.5 5 t-128 26.5t-109.5 59.5t-69.5 107.5t-28.5 167.5zM410 317q0 -98 29.5 -124.5t156.5 -26.5t154.5 25.5t27.5 127.5v369q0 82 -29.5 110.5t-136.5 28.5q-129 0 -165.5 -27.5t-36.5 -111.5v-371z" />
<glyph unicode="&#x432;" horiz-adv-x="1189" d="M131 0v991h528q131 0 212 -15t117 -52t46 -74t10 -100v-35q0 -82 -45 -119t-137 -57v-9q109 -18 175.5 -70t66.5 -138v-60q0 -133 -98.5 -197.5t-331.5 -64.5h-543zM430 184h148q129 0 180 26t51 81v37q0 57 -47 75.5t-174 18.5h-158v-238zM430 604h139q121 0 157 23 t36 80v12q0 31 -10.5 47t-55.5 28.5t-133 12.5h-133v-203z" />
<glyph unicode="&#x433;" horiz-adv-x="829" d="M131 0v991h666v-184h-367v-807h-299z" />
<glyph unicode="&#x434;" horiz-adv-x="1216" d="M25 184h73q176 268 176 664v143h779v-807h90v-458h-273v274h-573v-274h-272v458zM418 184h340v623h-203v-53q0 -127 -37 -292t-100 -278z" />
<glyph unicode="&#x435;" horiz-adv-x="1144" d="M102 301v356q0 190 123 272.5t367 82.5q229 0 342 -78t113 -277v-241h-644v-90q0 -84 59.5 -122t223.5 -38q147 0 332 43v-191q-188 -39 -389 -38q-526 0 -527 321zM403 586h359v143q0 47 -38 72.5t-136 25.5q-109 0 -147 -25.5t-38 -72.5v-143z" />
<glyph unicode="&#x436;" horiz-adv-x="1654" d="M-39 0l260 367q98 137 197 178q-47 25 -101 102l-57 82q-33 47 -68.5 62.5t-111.5 15.5h-33v184h98q184 0 231.5 -24.5t131.5 -163.5l96 -158q20 -33 35.5 -42t46.5 -9v397h285v-397q31 0 45 8t35 43l96 158q84 139 131 163.5t231 24.5h99v-184h-33q-76 0 -112 -15.5 t-68 -62.5l-58 -82q-53 -78 -100 -102q98 -41 197 -178l260 -367h-344l-189 276q-66 96 -92.5 116t-97.5 20v-412h-285v412q-72 0 -99.5 -20.5t-92.5 -115.5l-189 -276h-344z" />
<glyph unicode="&#x437;" horiz-adv-x="1091" d="M72 10v209q262 -53 428 -53q121 0 163 20.5t42 87.5v52q0 57 -54.5 79.5t-167.5 22.5h-221v186h221q174 0 174 107v8q0 59 -42 78.5t-171 19.5q-156 0 -352 -24v190q156 18 385 19q270 0 371.5 -49.5t101.5 -180.5v-75q0 -63 -38 -103.5t-89 -54.5q181 -66 181 -195v-94 q0 -166 -122 -223t-384 -57q-207 0 -426 30z" />
<glyph unicode="&#x438;" horiz-adv-x="1316" d="M131 0v991h277v-698l436 698h342v-991h-277v717l-436 -717h-342z" />
<glyph unicode="&#x439;" horiz-adv-x="1316" d="M131 0v991h277v-698l436 698h342v-991h-277v717l-436 -717h-342zM375 1393h166q12 -59 36.5 -86t79.5 -27q102 0 115 113h168q-8 -117 -83 -188.5t-200 -71.5q-127 0 -201.5 71.5t-80.5 188.5z" />
<glyph unicode="&#x43a;" horiz-adv-x="1134" d="M131 0v991h299v-397q45 0 62.5 8t37.5 43l97 158q84 139 131 163.5t231 24.5h98v-184h-32q-76 0 -112 -15.5t-69 -62.5l-57 -82q-53 -78 -100 -102q98 -41 196 -178l261 -367h-345l-188 276q-61 90 -98 113t-113 23v-412h-299z" />
<glyph unicode="&#x43b;" horiz-adv-x="1251" d="M25 -4v182q37 -10 65 -10q57 0 81 36t24 136v651h925v-991h-297v807h-329v-518q0 -82 -17.5 -138.5t-44 -88t-74 -49t-93.5 -22.5t-115 -5q-74 0 -125 10z" />
<glyph unicode="&#x43c;" horiz-adv-x="1505" d="M131 0v991h408l217 -667l231 667h387v-991h-272v676h-10l-238 -676h-219l-229 676h-11v-676h-264z" />
<glyph unicode="&#x43d;" horiz-adv-x="1263" d="M131 0v991h299v-383h404v383h299v-991h-299v414h-404v-414h-299z" />
<glyph unicode="&#x43e;" horiz-adv-x="1212" d="M102 340v293q0 102 32 175t78 111.5t120 60t132 27t142 5.5t142.5 -5.5t132 -27t120 -60t78 -111.5t31.5 -175v-293q0 -96 -30.5 -165t-76 -106.5t-118 -58t-133 -25.5t-146.5 -5t-146.5 5t-133 25.5t-117.5 58t-76 106.5t-31 165zM401 305q0 -78 40 -108.5t165 -30.5 t165 30.5t40 108.5v375q0 80 -41 113.5t-164 33.5t-164 -33.5t-41 -113.5v-375z" />
<glyph unicode="&#x43f;" horiz-adv-x="1249" d="M131 0v991h987v-991h-299v807h-389v-807h-299z" />
<glyph unicode="&#x440;" horiz-adv-x="1247" d="M131 -426v1417h283v-98q27 66 105.5 92.5t230.5 26.5q127 0 206.5 -20.5t120.5 -66.5t54.5 -101.5t13.5 -145.5v-326q0 -221 -98.5 -296.5t-319.5 -75.5q-139 0 -207.5 22.5t-89.5 97.5v-526h-299zM430 313q0 -88 37 -117.5t168 -29.5t171 29.5t40 117.5v367 q0 96 -36 121.5t-177 25.5q-127 0 -165 -32.5t-38 -114.5v-367z" />
<glyph unicode="&#x441;" horiz-adv-x="987" d="M102 322v329q0 74 17.5 130.5t43 94t72 64.5t85 40t101 21.5t104.5 9.5t110 1q113 0 301 -37v-197q-213 49 -324 49q-207 0 -206 -139v-364q0 -158 227 -158q106 0 317 45v-197q-180 -35 -336 -34q-76 0 -120.5 2t-113.5 11t-111 31.5t-84 58.5t-62.5 96.5t-20.5 142.5z " />
<glyph unicode="&#x442;" horiz-adv-x="1034" d="M61 807v184h912v-184h-305v-807h-299v807h-308z" />
<glyph unicode="&#x443;" horiz-adv-x="1093" d="M16 991h326l223 -700l203 700h309l-542 -1417h-304l181 434z" />
<glyph unicode="&#x444;" horiz-adv-x="1857" d="M102 326v387q0 168 90.5 233.5t294.5 65.5q102 0 158.5 -16.5t79.5 -38t59 -76.5v553h287v-512q33 51 100.5 70.5t198.5 19.5q127 0 206 -20.5t117 -67.5t50 -101.5t12 -144.5v-326q0 -223 -94 -297.5t-313 -74.5q-135 0 -195.5 22.5t-81.5 97.5v-526h-287v522 q-33 -51 -55 -71.5t-75.5 -32.5t-151.5 -12q-252 0 -326 63t-74 283zM401 307q0 -84 29 -112.5t148 -28.5q98 0 142 13.5t54 37t10 80.5v399q0 53 -8 76t-50 39t-132 16q-135 0 -164 -25.5t-29 -115.5v-379zM1071 313q0 -92 28.5 -119.5t155.5 -27.5q131 0 166 28.5 t35 118.5v367q0 98 -31.5 122.5t-171.5 24.5q-117 0 -149.5 -27.5t-32.5 -99.5v-387z" />
<glyph unicode="&#x445;" horiz-adv-x="1163" d="M20 0l390 508l-369 483h346l195 -284l196 284h346l-370 -483l391 -508h-346l-217 311l-215 -311h-347z" />
<glyph unicode="&#x446;" horiz-adv-x="1226" d="M131 0v991h299v-807h367v807h299v-1265h-299v274h-666z" />
<glyph unicode="&#x447;" horiz-adv-x="1218" d="M111 600v389h309v-332q0 -113 24.5 -138t135.5 -25q131 0 164.5 23.5t33.5 119.5v352h309v-989h-309v436q-33 -150 -282 -149q-160 0 -246 37.5t-112.5 100t-26.5 175.5z" />
<glyph unicode="&#x448;" horiz-adv-x="1703" d="M131 0v991h299v-807h272v807h299v-807h273v807h299v-991h-1442z" />
<glyph unicode="&#x449;" horiz-adv-x="1703" d="M131 0v991h299v-807h272v807h299v-807h273v807h299v-1265h-299v274h-1143z" />
<glyph unicode="&#x44a;" horiz-adv-x="1034" d="M61 807v184h912v-184h-305v-160h188q301 0 396.5 -53t95.5 -225v-105q0 -145 -124 -204.5t-362 -59.5h-493v807h-308zM668 186h180q123 0 156.5 25.5t33.5 95.5v43q0 68 -40 88.5t-146 20.5h-184v-273z" />
<glyph unicode="&#x44b;" horiz-adv-x="1699" d="M131 0v991h299v-342h188q301 0 396.5 -53t95.5 -225v-107q0 -145 -124 -204.5t-361 -59.5h-494zM430 186h180q123 0 157 25.5t34 95.5v45q0 68 -40 88.5t-147 20.5h-184v-275zM1270 0v991h299v-991h-299z" />
<glyph unicode="&#x44c;" horiz-adv-x="1191" d="M131 0v991h299v-342h188q301 0 396.5 -53t95.5 -225v-107q0 -145 -124 -204.5t-361 -59.5h-494zM430 186h180q123 0 157 25.5t34 95.5v45q0 68 -40 88.5t-147 20.5h-184v-275z" />
<glyph unicode="&#x44d;" horiz-adv-x="1042" d="M61 14v197q211 -45 367 -45q123 0 166 25.5t43 99.5v121h-475v186h475v107q0 74 -38 98t-150 24q-160 0 -373 -49v197q188 37 395 37q66 0 105.5 -1t95 -9.5t89.5 -21.5t71.5 -40t58 -64.5t35 -94t14.5 -130.5v-329q0 -70 -16.5 -124.5t-40 -90t-65.5 -61.5t-77.5 -38 t-95 -19t-97.5 -8t-102 -1q-205 -1 -385 34z" />
<glyph unicode="&#x44e;" horiz-adv-x="1746" d="M131 0v991h299v-383h207v25q0 102 31.5 175t78 111.5t120 60t132 27t142.5 5.5t142 -5.5t132 -27t120 -60t78 -111.5t32 -175v-293q0 -96 -31 -165t-76 -106.5t-117.5 -58t-133 -25.5t-146.5 -5t-146.5 5t-133.5 25.5t-118 58t-75.5 106.5t-30.5 165v74h-207v-414h-299z M936 305q0 -78 40 -108.5t165 -30.5t165 30.5t40 108.5v375q0 80 -41 113.5t-164 33.5t-164 -33.5t-41 -113.5v-375z" />
<glyph unicode="&#x44f;" horiz-adv-x="1189" d="M10 0l344 401q-129 12 -195.5 57.5t-66.5 162.5v106q0 147 96.5 205.5t317.5 58.5h553v-991h-295v356h-123l-274 -356h-357zM391 635q0 -41 29 -62.5t58.5 -24.5t86.5 -3h199v262h-176q-104 0 -150.5 -21.5t-46.5 -78.5v-72z" />
<glyph unicode="&#x450;" horiz-adv-x="1144" d="M102 301v356q0 190 123 272.5t367 82.5q229 0 342 -78t113 -277v-241h-644v-90q0 -84 59.5 -122t223.5 -38q147 0 332 43v-191q-188 -39 -389 -38q-526 0 -527 321zM317 1393h326l184 -260h-254zM403 586h359v143q0 47 -38 72.5t-136 25.5q-109 0 -147 -25.5t-38 -72.5 v-143z" />
<glyph unicode="&#x451;" horiz-adv-x="1144" d="M102 301v356q0 190 123 272.5t367 82.5q229 0 342 -78t113 -277v-241h-644v-90q0 -84 59.5 -122t223.5 -38q147 0 332 43v-191q-188 -39 -389 -38q-526 0 -527 321zM248 1157v242h258v-242h-258zM403 586h359v143q0 47 -38 72.5t-136 25.5q-109 0 -147 -25.5t-38 -72.5 v-143zM637 1157v242h258v-242h-258z" />
<glyph unicode="&#x452;" horiz-adv-x="1218" d="M39 1133v178h92v123h299v-123h303v-178h-303v-263q28 142 313 142q211 0 307.5 -97.5t96.5 -291.5q0 -123 -60.5 -321t-113.5 -302h-309q184 412 184 575q0 154 -45 203t-174 49t-164 -25.5t-35 -109.5v-692h-299v1133h-92z" />
<glyph unicode="&#x453;" horiz-adv-x="829" d="M131 0v991h666v-184h-367v-807h-299zM260 1133l184 260h326l-256 -260h-254z" />
<glyph unicode="&#x454;" horiz-adv-x="987" d="M102 322v329q0 74 17.5 130.5t43 94t72 64.5t85 40t101 21.5t104.5 9.5t110 1q113 0 301 -37v-197q-213 49 -324 49q-207 0 -206 -139v-90h454v-186h-454v-88q0 -158 227 -158q106 0 317 45v-197q-180 -35 -336 -34q-76 0 -120.5 2t-113.5 11t-111 31.5t-84 58.5 t-62.5 96.5t-20.5 142.5z" />
<glyph unicode="&#x455;" horiz-adv-x="1075" d="M90 653v121q0 135 129 186.5t365 51.5q98 0 352 -19v-190q-319 25 -361 24q-125 0 -157.5 -17t-32.5 -67v-53q0 -25 25.5 -45t78.5 -20h132q364 0 364 -238v-125q0 -74 -27.5 -127t-69.5 -82.5t-109.5 -46t-130 -21.5t-146.5 -5q-162 0 -391 30v199q285 -43 395 -43 q88 0 136 17.5t48 68.5v61q0 47 -26.5 71t-114.5 24h-129q-156 0 -243 62t-87 183z" />
<glyph unicode="&#x456;" horiz-adv-x="577" d="M139 0v991h299v-991h-299zM139 1108v242h299v-242h-299z" />
<glyph unicode="&#x457;" horiz-adv-x="577" d="M-156 1157v242h258v-242h-258zM139 0v991h299v-991h-299zM145 1454h295l-80 -352h-135zM479 1157v242h258v-242h-258z" />
<glyph unicode="&#x458;" horiz-adv-x="561" d="M-78 -252q12 -2 37 -2q111 0 141.5 28.5t30.5 143.5v1073h299v-1141q0 -176 -105.5 -238.5t-306.5 -62.5q-27 0 -96 5v194zM131 1108v242h299v-242h-299z" />
<glyph unicode="&#x459;" horiz-adv-x="1869" d="M25 -4v182q37 -10 65 -10q57 0 81 36t24 136v651h913v-342h188q301 0 396.5 -53t95.5 -225v-107q0 -145 -124 -204.5t-361 -59.5h-494v807h-315v-518q0 -82 -17.5 -138.5t-44 -88t-74 -49t-93.5 -22.5t-115 -5q-74 0 -125 10zM1108 186h180q123 0 157 25.5t34 95.5v45 q0 68 -40 88.5t-147 20.5h-184v-275z" />
<glyph unicode="&#x45a;" horiz-adv-x="1882" d="M131 0v991h299v-346h391v346h299v-346h189q301 0 396 -53t95 -225v-103q0 -145 -124 -204.5t-361 -59.5h-494v451h-391v-451h-299zM1120 186h180q123 0 157 25.5t34 95.5v41q0 68 -40 88.5t-146 20.5h-185v-271z" />
<glyph unicode="&#x45b;" horiz-adv-x="1218" d="M39 1133v178h92v123h299v-123h303v-178h-303v-263q29 141 313 142q197 0 270.5 -71t73.5 -214v-727h-299v692q0 82 -27.5 108.5t-131.5 26.5q-129 0 -164 -25.5t-35 -109.5v-692h-299v1133h-92z" />
<glyph unicode="&#x45c;" horiz-adv-x="1134" d="M131 0v991h299v-397q45 0 62.5 8t37.5 43l97 158q84 139 131 163.5t231 24.5h98v-184h-32q-76 0 -112 -15.5t-69 -62.5l-57 -82q-53 -78 -100 -102q98 -41 196 -178l261 -367h-345l-188 276q-61 90 -98 113t-113 23v-412h-299zM311 1133l185 260h325l-256 -260h-254z" />
<glyph unicode="&#x45d;" horiz-adv-x="1316" d="M131 0v991h277v-698l436 698h342v-991h-277v717l-436 -717h-342zM403 1393h326l184 -260h-254z" />
<glyph unicode="&#x45e;" horiz-adv-x="1093" d="M16 991h326l223 -700l203 700h309l-542 -1417h-304l181 434zM264 1393h166q12 -59 37 -86t80 -27q102 0 115 113h167q-8 -117 -82.5 -188.5t-199.5 -71.5q-127 0 -202 71.5t-81 188.5z" />
<glyph unicode="&#x45f;" horiz-adv-x="1226" d="M131 0v991h299v-807h367v807h299v-991h-330v-274h-299v274h-336z" />
<glyph unicode="&#x462;" horiz-adv-x="1632" d="M41 967v211h369v151h319v-151h367v-211h-367v-140h238q80 0 126 -1t115.5 -6t109.5 -15t88 -30.5t73.5 -50.5t43 -74t17.5 -101v-234q0 -315 -536 -315h-594v967h-369zM729 227h260q125 0 178.5 35t53.5 103v124q0 66 -56.5 87.5t-171.5 21.5h-264v-371z" />
<glyph unicode="&#x463;" horiz-adv-x="1429" d="M61 807v184h308v443h299v-443h305v-184h-305v-158h188q301 0 396.5 -53t95.5 -225v-107q0 -145 -124 -204.5t-362 -59.5h-493v807h-308zM668 186h180q123 0 156.5 25.5t33.5 95.5v45q0 68 -40 88.5t-146 20.5h-184v-275z" />
<glyph unicode="&#x472;" horiz-adv-x="1490" d="M115 365v581q0 102 46 180t110.5 119t156.5 66.5t164 32t151 6.5q82 0 155 -6.5t165 -32t157.5 -66.5t110.5 -118t45 -181v-581q0 -113 -59.5 -193t-159.5 -120t-200.5 -56t-213.5 -16q-106 0 -199 13t-198.5 50t-168 119t-62.5 203zM434 365q0 -51 26.5 -85t77 -48.5 t96.5 -19.5t113.5 -5t113.5 5t95.5 19.5t75 48.5t25.5 85v229q-57 -47 -131 -47q-39 0 -171 41t-155 41q-88 0 -166 -51v-213zM434 776q74 49 166 49q23 0 156 -40t170 -40q80 0 131 50v153q0 96 -79 135t-233 39q-156 0 -233.5 -38t-77.5 -136v-172z" />
<glyph unicode="&#x473;" horiz-adv-x="1212" d="M102 340v293q0 102 32 175t78 111.5t120 60t132 27t142 5.5t142.5 -5.5t132 -27t120 -60t78 -111.5t31.5 -175v-293q0 -96 -30.5 -165t-76 -106.5t-118 -58t-133 -25.5t-146.5 -5t-146.5 5t-133 25.5t-117.5 58t-76 106.5t-31 165zM401 305q0 -78 40 -108.5t165 -30.5 t165 30.5t40 108.5v121q-37 -31 -84 -31q-27 0 -117 34t-106 34q-53 0 -103 -33v-125zM401 596q45 31 103 31q16 0 107 -33t116 -33q49 0 84 33v86q0 80 -41 113.5t-164 33.5t-164 -33.5t-41 -113.5v-84z" />
<glyph unicode="&#x474;" horiz-adv-x="1574" d="M0 1329h324l356 -1063h8l301 897q33 96 97.5 141.5t175.5 45.5q109 0 184.5 -34t175.5 -106l-117 -176q-96 66 -151 66q-76 -1 -117 -103l-369 -997h-391z" />
<glyph unicode="&#x475;" horiz-adv-x="1259" d="M0 991h317l218 -686l157 520q55 186 273 187q172 0 342 -140l-109 -155q-96 66 -151 65q-80 0 -117 -102l-250 -680h-303z" />
<glyph unicode="&#x48a;" horiz-adv-x="1538" d="M143 0v1329h306v-928l602 928h344v-1102h131l-205 -567h-289l123 340h-65v942l-603 -942h-344zM485 1731h166q12 -59 37 -86t80 -27q102 0 115 113h168q-8 -117 -83 -189t-200 -72q-127 0 -201.5 72t-81.5 189z" />
<glyph unicode="&#x48b;" horiz-adv-x="1316" d="M131 0v991h277v-698l436 698h342v-764h131l-205 -501h-289l111 274h-25v717l-436 -717h-342zM375 1393h166q12 -59 36.5 -86t79.5 -27q102 0 115 113h168q-8 -117 -83 -188.5t-200 -71.5q-127 0 -201.5 71.5t-80.5 188.5z" />
<glyph unicode="&#x48c;" horiz-adv-x="1366" d="M20 973v207h123v149h320v-149h205v-207h-205v-146h237q80 0 126 -1t116 -6t110 -15t88 -30.5t73.5 -50.5t43 -74t17.5 -101v-234q0 -315 -537 -315h-594v973h-123zM463 227h260q125 0 178 35t53 103v124q0 66 -56 87.5t-171 21.5h-264v-371z" />
<glyph unicode="&#x48d;" horiz-adv-x="1191" d="M20 973v207h111v254h299v-254h238v-207h-238v-324h188q301 0 396.5 -53t95.5 -225v-107q0 -145 -124 -204.5t-361 -59.5h-494v973h-111zM430 186h180q123 0 157 25.5t34 95.5v45q0 68 -40 88.5t-147 20.5h-184v-275z" />
<glyph unicode="&#x48e;" horiz-adv-x="1284" d="M143 0v1329h533q283 0 404.5 -62.5t121.5 -242.5v-252q0 -184 -119 -260l138 -137l-95 -94l-178 176q-109 -25 -309 -25h-176v-432h-320zM463 651h203q61 0 86 4l-97 97l97 96l127 -129q14 22 14 63v213q0 63 -49 85t-182 22h-199v-451z" />
<glyph unicode="&#x48f;" horiz-adv-x="1247" d="M131 -426v1417h283v-98q27 66 105.5 92.5t230.5 26.5q127 0 206.5 -20.5t120.5 -66.5t54.5 -101.5t13.5 -145.5v-326q0 -229 -117 -311l102 -102l-94 -95l-147 148q-70 -12 -162 -12q-139 0 -207.5 22.5t-89.5 97.5v-526h-299zM430 313q0 -88 37 -117.5t168 -29.5 q55 0 76 2l-146 147l97 97l174 -176q10 26 10 77v367q0 96 -36 121.5t-177 25.5q-127 0 -165 -32.5t-38 -114.5v-367z" />
<glyph unicode="&#x490;" horiz-adv-x="1058" d="M143 0v1329h623v287h248v-514h-551v-1102h-320z" />
<glyph unicode="&#x491;" horiz-adv-x="829" d="M131 0v991h430v248h236v-432h-367v-807h-299z" />
<glyph unicode="&#x492;" horiz-adv-x="1058" d="M27 569v228h116v532h871v-227h-551v-305h336v-228h-336v-569h-320v569h-116z" />
<glyph unicode="&#x493;" horiz-adv-x="829" d="M39 414v194h92v383h666v-184h-367v-199h229v-194h-229v-414h-299v414h-92z" />
<glyph unicode="&#x494;" horiz-adv-x="1388" d="M143 0v1329h975v-227h-655v-346q84 51 252 51q283 0 445.5 -159t162.5 -427q0 -332 -171 -502t-464 -170q-201 0 -342 89.5t-162 234.5h236q25 -49 94.5 -82t167.5 -33q332 0 332 437q0 182 -101.5 282.5t-271.5 100.5q-102 0 -178 -41v-537h-320z" />
<glyph unicode="&#x495;" horiz-adv-x="1189" d="M131 0v991h811v-184h-512v-244q68 41 195 41q483 0 483 -504q0 -264 -144.5 -407.5t-379.5 -143.5q-195 0 -311.5 90.5t-133.5 241.5h250q23 -70 66 -101.5t129 -31.5q102 0 162.5 92t60.5 244q0 160 -63.5 242t-204.5 82q-64 0 -109 -35v-373h-299z" />
<glyph unicode="&#x496;" horiz-adv-x="2078" d="M-12 0l291 434q86 129 167.5 205t133.5 88q-47 18 -79 46t-71 89l-82 133q-47 76 -75.5 91.5t-131.5 15.5h-84v227h146q168 0 238.5 -40t156.5 -181l141 -234q31 -49 54.5 -62t95.5 -13v530h301v-530q72 0 95.5 13t53.5 62l142 234q86 141 156.5 181t238.5 40h145v-227 h-84q-102 0 -130.5 -15.5t-75.5 -91.5l-82 -133q-39 -61 -71 -89t-79 -46q51 -12 133 -88t168 -205l137 -207h156v-567h-289v340h-84l-254 391q-82 127 -129 157t-147 30v-578h-301v578q-100 0 -147.5 -30t-129.5 -157l-254 -391h-370z" />
<glyph unicode="&#x497;" horiz-adv-x="1654" d="M-39 0l260 367q98 137 197 178q-47 25 -101 102l-57 82q-33 47 -68.5 62.5t-111.5 15.5h-33v184h98q184 0 231.5 -24.5t131.5 -163.5l96 -158q20 -33 35.5 -42t46.5 -9v397h285v-397q31 0 45 8t35 43l96 158q84 139 131 163.5t231 24.5h99v-184h-33q-76 0 -112 -15.5 t-68 -62.5l-58 -82q-53 -78 -100 -102q98 -41 197 -178l129 -181h127v-460h-265v274h-75l-189 276q-66 96 -92.5 116t-97.5 20v-412h-285v412q-72 0 -99.5 -20.5t-92.5 -115.5l-189 -276h-344z" />
<glyph unicode="&#x498;" horiz-adv-x="1230" d="M82 16v244q270 -53 448 -53q129 0 190.5 29.5t61.5 76.5v154q0 57 -55 78.5t-192 21.5h-283v228h283q109 0 154.5 22.5t45.5 75.5v125q0 57 -50 80.5t-189 23.5q-25 0 -390 -24v233q281 18 422 19q250 0 385.5 -56.5t135.5 -203.5v-220q0 -61 -40 -102t-94 -55 q186 -68 187 -199v-219q0 -279 -408 -309q104 -168 105 -244q0 -90 -63 -141.5t-161 -51.5q-121 0 -163 21v137q37 -12 82 -12t71.5 29.5t26.5 64.5q0 59 -90 193q-213 4 -420 34z" />
<glyph unicode="&#x499;" horiz-adv-x="1091" d="M72 10v209q262 -53 428 -53q121 0 163 20.5t42 87.5v52q0 57 -54.5 79.5t-167.5 22.5h-221v186h221q174 0 174 107v8q0 59 -42 78.5t-171 19.5q-156 0 -352 -24v190q156 18 385 19q270 0 371.5 -49.5t101.5 -180.5v-75q0 -63 -38 -103.5t-89 -54.5q180 -66 181 -195v-94 q0 -143 -91.5 -203.5t-279.5 -72.5q104 -160 104 -242q0 -90 -62.5 -141.5t-160.5 -51.5q-121 0 -164 21v137q37 -12 82 -12t71.5 29.5t26.5 64.5q0 61 -90 191q-170 4 -368 30z" />
<glyph unicode="&#x49a;" horiz-adv-x="1366" d="M143 0v1329h314v-530q76 0 108.5 14t61.5 61l141 234q86 141 156.5 181t238.5 40h146v-227h-84q-102 0 -131 -15.5t-76 -91.5l-82 -133q-39 -61 -70.5 -89t-79.5 -46q51 -12 133 -88t168 -205l138 -207h155v-567h-288v340h-84l-254 391q-80 123 -136.5 155t-160.5 32 v-578h-314z" />
<glyph unicode="&#x49b;" horiz-adv-x="1134" d="M131 0v991h299v-397q45 0 62.5 8t37.5 43l97 158q84 139 131 163.5t231 24.5h98v-184h-32q-76 0 -112 -15.5t-69 -62.5l-57 -82q-53 -78 -100 -102q102 -41 196 -178l127 -181h123v-460h-264v274h-70l-188 276q-61 90 -98 113t-113 23v-412h-299z" />
<glyph unicode="&#x49c;" horiz-adv-x="1366" d="M143 0v1329h314v-530q41 0 59 2v352h178v-201l94 156q86 141 157 181t239 40h125v-227h-84q-102 0 -131 -15.5t-76 -91.5l-82 -133q-39 -61 -70.5 -89t-79.5 -46q51 -12 133 -88t168 -205l291 -434h-370l-254 391q-49 72 -60 84v-149h-178v249q-8 0 -28.5 1.5t-30.5 1.5 v-578h-314z" />
<glyph unicode="&#x49d;" horiz-adv-x="1134" d="M131 0v991h299v-397q37 0 51 2v303h111v-186l55 90q84 139 131 163.5t232 24.5h77v-184h-32q-76 0 -112 -15.5t-69 -62.5l-57 -82q-53 -78 -100 -102q98 -41 196 -178l261 -367h-345l-188 276q-31 45 -49 66v-143h-111v211q-16 2 -51 2v-412h-299z" />
<glyph unicode="&#x49e;" horiz-adv-x="1366" d="M39 965v178h104v186h314v-186h123v-178h-123v-166q76 0 108.5 14t61.5 61l141 234q86 141 156.5 181t238.5 40h146v-227h-84q-102 0 -131 -15.5t-76 -91.5l-82 -133q-39 -61 -70.5 -89t-79.5 -46q51 -12 133 -88t168 -205l291 -434h-370l-254 391q-80 123 -136.5 155 t-160.5 32v-578h-314v965h-104z" />
<glyph unicode="&#x49f;" horiz-adv-x="1134" d="M39 702v172h92v117h299v-117h88v-172h-88v-108q45 0 62.5 8t37.5 43l97 158q84 139 131 163.5t231 24.5h98v-184h-32q-76 0 -112 -15.5t-69 -62.5l-57 -82q-53 -78 -100 -102q98 -41 196 -178l261 -367h-345l-188 276q-61 90 -98 113t-113 23v-412h-299v702h-92z" />
<glyph unicode="&#x4a0;" horiz-adv-x="1677" d="M41 1102v227h729v-530q74 0 106.5 14t61.5 61l141 234q86 141 157 181t239 40h145v-227h-84q-102 0 -131 -15.5t-76 -91.5l-82 -133q-39 -61 -70.5 -89t-78.5 -46q51 -12 133 -88t168 -205l291 -434h-371l-254 391q-80 123 -136.5 155t-158.5 32v-578h-319v1102h-410z " />
<glyph unicode="&#x4a1;" horiz-adv-x="1372" d="M61 807v184h607v-397q45 0 62.5 8t37.5 43l96 158q84 139 131 163.5t232 24.5h98v-184h-33q-76 0 -111.5 -15.5t-68.5 -62.5l-57 -82q-53 -78 -101 -102q98 -41 197 -178l260 -367h-344l-188 276q-61 90 -98.5 113t-112.5 23v-412h-299v807h-308z" />
<glyph unicode="&#x4a2;" horiz-adv-x="1490" d="M143 0v1329h320v-532h565v532h320v-1102h131v-567h-289v340h-162v569h-565v-569h-320z" />
<glyph unicode="&#x4a3;" horiz-adv-x="1263" d="M131 0v991h299v-383h404v383h301v-764h131v-501h-265v274h-167v414h-404v-414h-299z" />
<glyph unicode="&#x4a4;" horiz-adv-x="1796" d="M143 0v1329h320v-532h565v532h727v-227h-407v-1102h-320v569h-565v-569h-320z" />
<glyph unicode="&#x4a5;" horiz-adv-x="1501" d="M131 0v991h299v-383h404v383h606v-184h-305v-807h-301v414h-404v-414h-299z" />
<glyph unicode="&#x4a6;" horiz-adv-x="2260" d="M143 0v1329h1192v-573q84 51 252 51q283 0 445.5 -159t162.5 -427q0 -332 -171 -502t-463 -170q-201 0 -342.5 89.5t-161.5 234.5h235q25 -49 94.5 -82t167.5 -33q332 0 332 437q0 182 -101.5 282.5t-271.5 100.5q-102 0 -178 -41v-537h-319v1102h-553v-1102h-320z" />
<glyph unicode="&#x4a7;" horiz-adv-x="1878" d="M131 0v991h987v-428q68 41 195 41q483 0 483 -504q0 -264 -144.5 -407.5t-379.5 -143.5q-195 0 -311.5 90.5t-133.5 241.5h250q23 -70 66 -101.5t129 -31.5q102 0 162.5 92t60.5 244q0 160 -63.5 242t-204.5 82q-64 0 -109 -35v-373h-299v807h-389v-807h-299z" />
<glyph unicode="&#x4a8;" horiz-adv-x="1433" d="M78 674q0 297 193.5 488.5t496.5 191.5q221 0 408 -148l-164 -164q-119 113 -248 113q-166 0 -266.5 -128t-100.5 -351q0 -211 84 -340h-2q96 -135 246 -156q-74 156 -74 346q0 223 90 335t289 112q356 0 356 -436q0 -289 -233 -449q127 -51 233 -51v-221 q-336 23 -505 168q-33 -4 -117 -4q-317 0 -501.5 191t-184.5 503zM926 526q0 -170 59 -284q133 90 133 293q0 240 -88 239q-104 0 -104 -248z" />
<glyph unicode="&#x4a9;" horiz-adv-x="1003" d="M53 496q0 236 123 377t348 141q158 0 307 -109l-167 -139q-74 68 -132 68q-213 0 -213 -332q0 -131 52.5 -227.5t126.5 -120.5q-86 147 -86 292q0 123 65.5 196t188.5 73q281 0 280 -279q0 -209 -119 -340q58 -42 119 -69v-215q-256 109 -334 178q-27 -4 -88 -4 q-223 0 -347 138t-124 372zM623 399q0 -78 49 -209q45 113 45 207q0 141 -51 142q-43 0 -43 -140z" />
<glyph unicode="&#x4aa;" horiz-adv-x="1222" d="M115 365v583q0 401 616 402q152 0 422 -45v-240q-244 57 -418 57q-70 0 -113.5 -4t-92 -20.5t-72 -52t-23.5 -93.5v-565q0 -180 330 -180q145 0 397 59v-241q-207 -41 -362 -45q102 -156 102 -238q0 -90 -62.5 -141.5t-160.5 -51.5q-121 0 -164 21v137q37 -12 82 -12 t71.5 29.5t26.5 64.5q0 14 -5 32.5t-10 32t-17.5 37t-18.5 31.5t-22.5 34t-18.5 30q-94 6 -172 26.5t-153.5 61.5t-118.5 114.5t-43 176.5z" />
<glyph unicode="&#x4ab;" horiz-adv-x="987" d="M102 322v329q0 74 17.5 130.5t43 94t72 64.5t85 40t101 21.5t104.5 9.5t110 1q113 0 301 -37v-197q-213 49 -324 49q-207 0 -206 -139v-364q0 -158 227 -158q106 0 317 45v-197q-133 -27 -274 -32q102 -164 102 -240q0 -90 -62.5 -141.5t-160.5 -51.5q-121 0 -164 21v137 q37 -12 82 -12t71.5 29.5t26.5 64.5q0 57 -90 193q-82 6 -142 21t-117.5 50t-88.5 102.5t-31 166.5z" />
<glyph unicode="&#x4ac;" horiz-adv-x="1218" d="M41 1102v227h1137v-227h-408v-875h129v-567h-289v340h-159v1102h-410z" />
<glyph unicode="&#x4ad;" horiz-adv-x="1034" d="M61 807v184h912v-184h-305v-621h131v-460h-264v274h-166v807h-308z" />
<glyph unicode="&#x4ae;" horiz-adv-x="1318" d="M16 1329h355l288 -520l285 520h359l-486 -792v-537h-319v532z" />
<glyph unicode="&#x4af;" horiz-adv-x="1044" d="M0 991h317l218 -686l208 686h301l-366 -993v-424h-299v422z" />
<glyph unicode="&#x4b0;" horiz-adv-x="1318" d="M16 1329h355l288 -520l285 520h359l-455 -741h250v-234h-281v-354h-319v354h-293v234h258z" />
<glyph unicode="&#x4b1;" horiz-adv-x="1044" d="M0 991h317l218 -686l208 686h301l-299 -807h238v-184h-305v-2v-424h-299v422l-2 4h-316v184h246z" />
<glyph unicode="&#x4b2;" horiz-adv-x="1386" d="M20 0l490 678l-469 651h369l284 -442l283 442h369l-469 -651l325 -451h205v-567h-289v340h-121l-303 471l-305 -471h-369z" />
<glyph unicode="&#x4b3;" horiz-adv-x="1163" d="M20 0l390 508l-369 483h346l195 -284l196 284h346l-370 -483l247 -322h162v-460h-264v274h-100l-217 311l-215 -311h-347z" />
<glyph unicode="&#x4b4;" horiz-adv-x="1757" d="M41 1102v227h1055v-227h-367v-875h565v1102h320v-1669h-320v340h-884v1102h-369z" />
<glyph unicode="&#x4b5;" horiz-adv-x="1423" d="M61 807v184h809v-184h-243v-623h366v807h299v-1265h-299v274h-665v807h-267z" />
<glyph unicode="&#x4b6;" horiz-adv-x="1421" d="M127 733v596h319v-530q0 -94 45.5 -129t186.5 -35q152 0 216 30.5t64 112.5v551h320v-1102h131v-567h-289v340h-162v571q-20 -94 -104 -122.5t-291 -28.5q-238 0 -337 75.5t-99 237.5z" />
<glyph unicode="&#x4b7;" horiz-adv-x="1218" d="M111 600v389h309v-332q0 -113 24.5 -138t135.5 -25q131 0 164.5 23.5t33.5 119.5v352h309v-803h132v-460h-265v274h-176v436q-33 -150 -282 -149q-160 0 -246 37.5t-112.5 100t-26.5 175.5z" />
<glyph unicode="&#x4b8;" horiz-adv-x="1421" d="M127 733v596h319v-530q0 -88 38 -124t151 -40v235h131v-233q100 8 146 40t46 101v551h320v-1329h-320v571q-14 -68 -59 -100.5t-133 -42.5v-209h-131v201h-72q-238 0 -337 75.5t-99 237.5z" />
<glyph unicode="&#x4b9;" horiz-adv-x="1218" d="M111 600v389h309v-332q0 -102 18.5 -131.5t93.5 -31.5v258h111v-258q84 4 109.5 31.5t25.5 111.5v352h309v-989h-309v436q-25 -100 -135 -133v-203h-111v187h-36q-160 0 -246 37.5t-112.5 100t-26.5 175.5z" />
<glyph unicode="&#x4ba;" horiz-adv-x="1421" d="M143 0v1329h320v-655q20 94 104 122.5t291 28.5q238 0 337 -75.5t99 -237.5v-512h-319v446q0 94 -45 129t-187 35q-152 0 -216 -30.5t-64 -112.5v-467h-320z" />
<glyph unicode="&#x4bb;" horiz-adv-x="1218" d="M131 0v1434h299v-564q29 141 313 142q197 0 270.5 -71t73.5 -214v-727h-299v692q0 82 -27.5 108.5t-131.5 26.5q-129 0 -164 -25.5t-35 -109.5v-692h-299z" />
<glyph unicode="&#x4bc;" horiz-adv-x="1751" d="M-25 889q0 59 19 133l217 -33q-12 -39 -12 -80q0 -55 27.5 -78.5t92.5 -23.5h56v139q0 102 46 180t110.5 119t156.5 66.5t164 32t152 6.5q82 0 154.5 -6.5t164.5 -32t157.5 -66.5t110.5 -117.5t45 -181.5v-358h-942v-160q0 -109 106.5 -165t305.5 -56q227 0 479 59v-241 q-225 -45 -512 -45q-127 0 -226 11t-190.5 39.5t-152 77t-95 123.5t-34.5 175v188h-101q-166 0 -232.5 68.5t-66.5 226.5zM694 797h623v151q0 96 -79 135t-232 39q-156 0 -234 -38t-78 -136v-151z" />
<glyph unicode="&#x4bd;" horiz-adv-x="1337" d="M-23 668q0 59 19 133l197 -33q-12 -39 -13 -80q0 -53 26.5 -77.5t88.5 -24.5v71q0 190 123 272.5t366 82.5q229 0 342 -78t113 -277v-241h-643v-90q0 -84 59.5 -122t223.5 -38q147 0 331 43v-191q-188 -39 -389 -38q-526 0 -526 321v115h-39q-131 0 -205 69.5t-74 182.5z M596 586h358v143q0 47 -37.5 72.5t-136.5 25.5q-109 0 -146.5 -25.5t-37.5 -72.5v-143z" />
<glyph unicode="&#x4be;" horiz-adv-x="1751" d="M-25 889q0 59 19 133l217 -33q-12 -39 -12 -80q0 -55 27.5 -78.5t92.5 -23.5h56v139q0 102 46 180t110.5 119t156.5 66.5t164 32t152 6.5q82 0 154.5 -6.5t164.5 -32t157.5 -66.5t110.5 -117.5t45 -181.5v-358h-942v-160q0 -109 106.5 -165t305.5 -56q227 0 479 59v-241 l-98 -19q-43 -86 -43 -176q0 -33 16.5 -49.5t61.5 -16.5q25 0 61 13v-137q-43 -21 -143.5 -21t-151.5 38t-51 126q0 98 66 205q-152 -8 -230 -8q-127 0 -226 11t-190.5 39.5t-152 77t-95 123t-34.5 175.5v188h-101q-166 0 -232.5 68.5t-66.5 226.5zM694 797h623v151 q0 96 -79 135t-232 39q-156 0 -234 -38t-78 -136v-151z" />
<glyph unicode="&#x4bf;" horiz-adv-x="1337" d="M-23 668q0 59 19 133l197 -33q-12 -39 -13 -80q0 -53 26.5 -77.5t88.5 -24.5v71q0 190 123 272.5t366 82.5q229 0 342 -78t113 -277v-241h-643v-90q0 -84 59.5 -122t223.5 -38q147 0 331 43v-191q-86 -18 -104 -20q-37 -84 -37 -168q0 -33 16.5 -49.5t61.5 -16.5 q25 0 61 13v-137q-43 -21 -143 -21q-102 0 -152.5 38t-50.5 126q0 94 62 199q-31 -2 -103 -2q-526 0 -526 321v115h-39q-131 0 -205 69.5t-74 182.5zM596 586h358v143q0 47 -37.5 72.5t-136.5 25.5q-109 0 -146.5 -25.5t-37.5 -72.5v-143z" />
<glyph unicode="&#x4c0;" horiz-adv-x="606" d="M143 0v1329h320v-1329h-320z" />
<glyph unicode="&#x4c1;" horiz-adv-x="2078" d="M-12 0l291 434q86 129 167.5 205t133.5 88q-47 18 -79 46t-71 89l-82 133q-47 76 -75.5 91.5t-131.5 15.5h-84v227h146q168 0 238.5 -40t156.5 -181l141 -234q31 -49 54.5 -62t95.5 -13v530h301v-530q72 0 95.5 13t53.5 62l142 234q86 141 156.5 181t238.5 40h145v-227 h-84q-102 0 -130.5 -15.5t-75.5 -91.5l-82 -133q-39 -61 -71 -89t-79 -46q51 -12 133 -88t168 -205l291 -434h-371l-254 391q-82 127 -129 157t-147 30v-578h-301v578q-100 0 -147.5 -30t-129.5 -157l-254 -391h-370zM756 1731h166q12 -59 36.5 -86t79.5 -27q102 0 115 113 h168q-8 -117 -83 -189t-200 -72q-127 0 -201.5 72t-80.5 189z" />
<glyph unicode="&#x4c2;" horiz-adv-x="1654" d="M-39 0l260 367q98 137 197 178q-47 25 -101 102l-57 82q-33 47 -68.5 62.5t-111.5 15.5h-33v184h98q184 0 231.5 -24.5t131.5 -163.5l96 -158q20 -33 35.5 -42t46.5 -9v397h285v-397q31 0 45 8t35 43l96 158q84 139 131 163.5t231 24.5h99v-184h-33q-76 0 -112 -15.5 t-68 -62.5l-58 -82q-53 -78 -100 -102q98 -41 197 -178l260 -367h-344l-189 276q-66 96 -92.5 116t-97.5 20v-412h-285v412q-72 0 -99.5 -20.5t-92.5 -115.5l-189 -276h-344zM545 1393h166q12 -59 36.5 -86t79.5 -27q102 0 115 113h168q-8 -117 -83 -188.5t-200 -71.5 q-127 0 -201.5 71.5t-80.5 188.5z" />
<glyph unicode="&#x4c3;" horiz-adv-x="1388" d="M143 0v1329h314v-530q76 0 108.5 14t61.5 61l141 234q86 141 156.5 181t238.5 40h146v-227h-84q-102 0 -131 -15.5t-76 -91.5l-82 -133q-29 -45 -55 -76q203 -47 322.5 -188t119.5 -338q0 -352 -164 -531.5t-471 -179.5q-201 0 -342 89.5t-162 234.5h236q25 -49 94.5 -82 t167.5 -33q150 0 241 111t91 346q0 182 -91.5 272.5t-260.5 90.5h-205v-578h-314z" />
<glyph unicode="&#x4c4;" horiz-adv-x="1134" d="M131 0v991h299v-397q45 0 62.5 8t37.5 43l97 158q84 139 131 163.5t231 24.5h98v-184h-32q-76 0 -112 -15.5t-69 -62.5l-57 -82q-25 -37 -53 -65q176 -47 260 -176.5t84 -305.5q0 -264 -144.5 -407.5t-379.5 -143.5q-195 0 -311.5 90.5t-133.5 241.5h250 q23 -70 66 -101.5t129 -31.5q102 0 162.5 92t60.5 244q0 160 -63.5 242t-204.5 82h-109v-408h-299z" />
<glyph unicode="&#x4c5;" horiz-adv-x="1558" d="M41 -4v209q37 -10 106 -10q125 0 125 135v999h1143v-1102h131l-205 -567h-288l123 340h-80v1102h-504v-813q0 -80 -21.5 -137.5t-53.5 -89t-86 -49t-103 -22.5t-121 -5q-115 0 -166 10z" />
<glyph unicode="&#x4c6;" horiz-adv-x="1251" d="M25 -4v182q37 -10 65 -10q57 0 81 36t24 136v651h925v-764h131l-204 -501h-289l110 274h-45v807h-329v-518q0 -82 -17.5 -138.5t-44 -88t-74 -49t-93.5 -22.5t-115 -5q-74 0 -125 10z" />
<glyph unicode="&#x4c7;" horiz-adv-x="1490" d="M131 -145h320q25 -31 45 -48.5t69 -32t123 -14.5q186 0 263 112t77 386v311h-565v-569h-320v1329h320v-532h565v532h320v-1083q0 -170 -34 -296t-90.5 -202t-143.5 -121t-177 -61.5t-209 -16.5q-494 0 -563 306z" />
<glyph unicode="&#x4c8;" horiz-adv-x="1263" d="M131 0v991h299v-383h404v383h299v-909q0 -297 -134.5 -415t-386.5 -118q-401 0 -460 306h278q14 -39 62.5 -67t113.5 -28q135 0 181.5 62.5t46.5 271.5v320h-404v-414h-299z" />
<glyph unicode="&#x4c9;" horiz-adv-x="1490" d="M143 0v1329h320v-532h565v532h320l2 -1102h131l-205 -567h-289l123 340h-82v569h-565v-569h-320z" />
<glyph unicode="&#x4ca;" horiz-adv-x="1263" d="M131 0v991h299v-383h404v383h299l2 -764h131l-205 -501h-289l111 274h-49v414h-404v-414h-299z" />
<glyph unicode="&#x4cb;" horiz-adv-x="1421" d="M127 733v596h319v-530q0 -94 45.5 -129t186.5 -35q152 0 216 30.5t64 112.5v551h320v-1329h-162v-340h-289v567h131v344q-20 -94 -104 -122.5t-291 -28.5q-238 0 -337 75.5t-99 237.5z" />
<glyph unicode="&#x4cc;" horiz-adv-x="1218" d="M111 600v389h309v-332q0 -113 24.5 -138t135.5 -25q131 0 164.5 23.5t33.5 119.5v352h309v-989h-176v-274h-264v460h131v250q-33 -150 -282 -149q-160 0 -246 37.5t-112.5 100t-26.5 175.5z" />
<glyph unicode="&#x4cd;" horiz-adv-x="1820" d="M143 0v1329h455l328 -950l323 950h428v-1102h131l-204 -567h-289l123 340h-49v983h-7l-335 -983h-256l-347 983h-8v-983h-293z" />
<glyph unicode="&#x4ce;" horiz-adv-x="1505" d="M131 0v991h408l217 -667l231 667h387v-764h131l-205 -501h-288l110 274h-20v676h-10l-238 -676h-219l-229 676h-11v-676h-264z" />
<glyph unicode="&#x4cf;" horiz-adv-x="577" d="M139 0v1434h299v-1434h-299z" />
<glyph unicode="&#x4d0;" horiz-adv-x="1368" d="M4 0l492 1329h389l479 -1329h-324l-118 350h-486l-117 -350h-315zM401 1731h166q12 -59 37 -86t80 -27q102 0 115 113h168q-8 -117 -83 -189t-200 -72q-127 0 -201.5 72t-81.5 189zM508 563h344l-168 500h-8z" />
<glyph unicode="&#x4d1;" horiz-adv-x="1155" d="M80 297q0 176 67.5 244.5t241.5 68.5h336v68q0 90 -42 119.5t-177 29.5q-127 0 -348 -24v188q170 20 379 21q274 0 380.5 -66.5t106.5 -263.5v-682h-293v90q-33 -59 -94.5 -84.5t-224.5 -25.5q-201 0 -266.5 61t-65.5 256zM295 1393h166q12 -59 36.5 -86t80.5 -27 q102 0 114 113h168q-8 -117 -83 -188.5t-199 -71.5q-127 0 -202 71.5t-81 188.5zM373 303q0 -96 25.5 -116.5t129.5 -20.5q51 0 76 1t53.5 5t40 13.5t19.5 25.5t8 43v192h-205q-98 0 -122.5 -22.5t-24.5 -120.5z" />
<glyph unicode="&#x4d2;" horiz-adv-x="1368" d="M4 0l492 1329h389l479 -1329h-324l-118 350h-486l-117 -350h-315zM360 1495v242h258v-242h-258zM508 563h344l-168 500h-8zM750 1495v242h258v-242h-258z" />
<glyph unicode="&#x4d3;" horiz-adv-x="1155" d="M80 297q0 176 67.5 244.5t241.5 68.5h336v68q0 90 -42 119.5t-177 29.5q-127 0 -348 -24v188q170 20 379 21q274 0 380.5 -66.5t106.5 -263.5v-682h-293v90q-33 -59 -94.5 -84.5t-224.5 -25.5q-201 0 -266.5 61t-65.5 256zM254 1157v242h258v-242h-258zM373 303 q0 -96 25.5 -116.5t129.5 -20.5q51 0 76 1t53.5 5t40 13.5t19.5 25.5t8 43v192h-205q-98 0 -122.5 -22.5t-24.5 -120.5zM643 1157v242h258v-242h-258z" />
<glyph unicode="&#x4d4;" horiz-adv-x="2027" d="M0 0l676 1329h1259v-227h-659v-305h592v-228h-592v-342h680v-227h-993v350h-461l-162 -350h-340zM598 563h365v539h-117z" />
<glyph unicode="&#x4d5;" horiz-adv-x="1730" d="M80 297q0 176 67.5 244.5t241.5 68.5h336v68q0 90 -42 119.5t-177 29.5q-127 0 -348 -24v188q170 20 379 21q229 0 329 -64q106 63 318 64q227 0 337.5 -78t110.5 -277v-241h-633v-90q0 -84 57.5 -122t221.5 -38q143 0 328 43v-191q-188 -39 -385 -38q-356 0 -455 157 q-47 -92 -115.5 -124.5t-238.5 -32.5q-201 0 -266.5 61t-65.5 256zM373 303q0 -96 25.5 -116.5t129.5 -20.5q51 0 76 1t53.5 5t40 13.5t19.5 25.5t8 43v192h-205q-98 0 -122.5 -22.5t-24.5 -120.5zM999 586h351v143q0 49 -36 73.5t-134 24.5q-109 0 -145 -24.5t-36 -73.5 v-143z" />
<glyph unicode="&#x4d6;" horiz-adv-x="1249" d="M143 0v1329h1014v-227h-694v-305h627v-228h-627v-342h715v-227h-1035zM342 1731h166q12 -59 36.5 -86t80.5 -27q102 0 114 113h168q-8 -117 -82.5 -189t-199.5 -72q-127 0 -202 72t-81 189z" />
<glyph unicode="&#x4d7;" horiz-adv-x="1144" d="M102 301v356q0 190 123 272.5t367 82.5q229 0 342 -78t113 -277v-241h-644v-90q0 -84 59.5 -122t223.5 -38q147 0 332 43v-191q-188 -39 -389 -38q-526 0 -527 321zM289 1393h166q12 -59 36.5 -86t79.5 -27q102 0 115 113h168q-8 -117 -83 -188.5t-200 -71.5 q-127 0 -201.5 71.5t-80.5 188.5zM403 586h359v143q0 47 -38 72.5t-136 25.5q-109 0 -147 -25.5t-38 -72.5v-143z" />
<glyph unicode="&#x4d8;" horiz-adv-x="1490" d="M115 383v358h942v160q0 109 -106.5 165t-305.5 56q-227 0 -479 -59v242q225 45 512 45q127 0 226.5 -11.5t190.5 -40t151.5 -76.5t95 -123t34.5 -175v-541q0 -102 -46 -180t-110.5 -119t-156.5 -66.5t-164 -31.5t-151 -6q-82 0 -155 6t-165 31.5t-157.5 66.5t-110.5 118 t-45 181zM434 381q0 -96 79 -135t232 -39q156 0 234 38t78 136v151h-623v-151z" />
<glyph unicode="&#x4d9;" horiz-adv-x="1144" d="M102 334v241h643v91q0 84 -59 121.5t-223 37.5q-147 0 -332 -43v191q188 39 389 39q526 0 527 -322v-356q0 -190 -123 -272t-367 -82q-229 0 -342 77.5t-113 276.5zM387 262q0 -47 38 -72.5t136 -25.5q109 0 146.5 25.5t37.5 72.5v144h-358v-144z" />
<glyph unicode="&#x4da;" horiz-adv-x="1490" d="M115 383v358h942v160q0 109 -106.5 165t-305.5 56q-227 0 -479 -59v242q225 45 512 45q127 0 226.5 -11.5t190.5 -40t151.5 -76.5t95 -123t34.5 -175v-541q0 -102 -46 -180t-110.5 -119t-156.5 -66.5t-164 -31.5t-151 -6q-82 0 -155 6t-165 31.5t-157.5 66.5t-110.5 118 t-45 181zM422 1495v242h258v-242h-258zM434 381q0 -96 79 -135t232 -39q156 0 234 38t78 136v151h-623v-151zM811 1495v242h258v-242h-258z" />
<glyph unicode="&#x4db;" horiz-adv-x="1144" d="M102 334v241h643v91q0 84 -59 121.5t-223 37.5q-147 0 -332 -43v191q188 39 389 39q526 0 527 -322v-356q0 -190 -123 -272t-367 -82q-229 0 -342 77.5t-113 276.5zM248 1157v242h258v-242h-258zM387 262q0 -47 38 -72.5t136 -25.5q109 0 146.5 25.5t37.5 72.5v144h-358 v-144zM637 1157v242h258v-242h-258z" />
<glyph unicode="&#x4dc;" horiz-adv-x="2078" d="M-12 0l291 434q86 129 167.5 205t133.5 88q-47 18 -79 46t-71 89l-82 133q-47 76 -75.5 91.5t-131.5 15.5h-84v227h146q168 0 238.5 -40t156.5 -181l141 -234q31 -49 54.5 -62t95.5 -13v530h301v-530q72 0 95.5 13t53.5 62l142 234q86 141 156.5 181t238.5 40h145v-227 h-84q-102 0 -130.5 -15.5t-75.5 -91.5l-82 -133q-39 -61 -71 -89t-79 -46q51 -12 133 -88t168 -205l291 -434h-371l-254 391q-82 127 -129 157t-147 30v-578h-301v578q-100 0 -147.5 -30t-129.5 -157l-254 -391h-370zM715 1495v242h258v-242h-258zM1104 1495v242h258v-242 h-258z" />
<glyph unicode="&#x4dd;" horiz-adv-x="1654" d="M-39 0l260 367q98 137 197 178q-47 25 -101 102l-57 82q-33 47 -68.5 62.5t-111.5 15.5h-33v184h98q184 0 231.5 -24.5t131.5 -163.5l96 -158q20 -33 35.5 -42t46.5 -9v397h285v-397q31 0 45 8t35 43l96 158q84 139 131 163.5t231 24.5h99v-184h-33q-76 0 -112 -15.5 t-68 -62.5l-58 -82q-53 -78 -100 -102q98 -41 197 -178l260 -367h-344l-189 276q-66 96 -92.5 116t-97.5 20v-412h-285v412q-72 0 -99.5 -20.5t-92.5 -115.5l-189 -276h-344zM504 1157v242h258v-242h-258zM893 1157v242h258v-242h-258z" />
<glyph unicode="&#x4de;" horiz-adv-x="1230" d="M82 16v244q270 -53 448 -53q129 0 190.5 29.5t61.5 76.5v154q0 57 -55 78.5t-192 21.5h-283v228h283q109 0 154.5 22.5t45.5 75.5v125q0 57 -50 80.5t-189 23.5q-25 0 -390 -24v233q281 18 422 19q250 0 385.5 -56.5t135.5 -203.5v-220q0 -61 -40 -102t-94 -55 q187 -68 187 -199v-219q0 -315 -533 -315q-256 0 -487 36zM291 1495v242h258v-242h-258zM680 1495v242h258v-242h-258z" />
<glyph unicode="&#x4df;" horiz-adv-x="1091" d="M72 10v209q262 -53 428 -53q121 0 163 20.5t42 87.5v52q0 57 -54.5 79.5t-167.5 22.5h-221v186h221q174 0 174 107v8q0 59 -42 78.5t-171 19.5q-156 0 -352 -24v190q156 18 385 19q270 0 371.5 -49.5t101.5 -180.5v-75q0 -63 -38 -103.5t-89 -54.5q181 -66 181 -195v-94 q0 -166 -122 -223t-384 -57q-207 0 -426 30zM221 1157v242h258v-242h-258zM610 1157v242h258v-242h-258z" />
<glyph unicode="&#x4e0;" horiz-adv-x="1236" d="M70 414l235 59q43 -123 124 -208t165 -85q102 0 166.5 59.5t64.5 158t-63.5 157.5t-179.5 59h-131v174l331 340h-663v201h1009v-174l-344 -360q145 -41 235.5 -146.5t90.5 -245.5q0 -197 -140.5 -310t-375.5 -113q-399 0 -524 434z" />
<glyph unicode="&#x4e1;" horiz-adv-x="1116" d="M55 57l236 19q18 -113 82.5 -178.5t144.5 -65.5q94 0 153.5 78t59.5 199q0 117 -65.5 184t-173.5 67h-136v179l248 256h-506v196h858v-145l-290 -293q154 -35 248 -152.5t94 -277.5q0 -207 -139.5 -347.5t-350.5 -140.5q-190 0 -318 113t-145 309z" />
<glyph unicode="&#x4e2;" horiz-adv-x="1538" d="M143 0v1329h306v-928l602 928h344v-1329h-305v942l-603 -942h-344zM483 1485v182h570v-182h-570z" />
<glyph unicode="&#x4e3;" horiz-adv-x="1316" d="M131 0v991h277v-698l436 698h342v-991h-277v717l-436 -717h-342zM373 1147v182h569v-182h-569z" />
<glyph unicode="&#x4e4;" horiz-adv-x="1538" d="M143 0v1329h306v-928l602 928h344v-1329h-305v942l-603 -942h-344zM444 1495v242h258v-242h-258zM834 1495v242h258v-242h-258z" />
<glyph unicode="&#x4e5;" horiz-adv-x="1316" d="M131 0v991h277v-698l436 698h342v-991h-277v717l-436 -717h-342zM334 1157v242h258v-242h-258zM723 1157v242h258v-242h-258z" />
<glyph unicode="&#x4e6;" horiz-adv-x="1490" d="M115 365v581q0 102 46 180t110.5 119t156.5 66.5t164 32t151 6.5q82 0 155 -6.5t165 -32t157.5 -66.5t110.5 -118t45 -181v-581q0 -113 -59.5 -193t-159.5 -120t-200.5 -56t-213.5 -16q-106 0 -199 13t-198.5 50t-168 119t-62.5 203zM422 1495v242h258v-242h-258z M434 365q0 -51 26.5 -85t77 -48.5t96.5 -19.5t113.5 -5t113.5 5t95.5 19.5t75 48.5t25.5 85v583q0 96 -79 135t-233 39q-156 0 -233.5 -37.5t-77.5 -136.5v-583zM811 1495v242h258v-242h-258z" />
<glyph unicode="&#x4e7;" horiz-adv-x="1212" d="M102 340v293q0 102 32 175t78 111.5t120 60t132 27t142 5.5t142.5 -5.5t132 -27t120 -60t78 -111.5t31.5 -175v-293q0 -96 -30.5 -165t-76 -106.5t-118 -58t-133 -25.5t-146.5 -5t-146.5 5t-133 25.5t-117.5 58t-76 106.5t-31 165zM283 1157v242h258v-242h-258zM401 305 q0 -78 40 -108.5t165 -30.5t165 30.5t40 108.5v375q0 80 -41 113.5t-164 33.5t-164 -33.5t-41 -113.5v-375zM672 1157v242h258v-242h-258z" />
<glyph unicode="&#x4e8;" horiz-adv-x="1490" d="M115 365v581q0 102 46 180t110.5 119t156.5 66.5t164 32t151 6.5q82 0 155 -6.5t165 -32t157.5 -66.5t110.5 -118t45 -181v-581q0 -113 -59.5 -193t-159.5 -120t-200.5 -56t-213.5 -16q-106 0 -199 13t-198.5 50t-168 119t-62.5 203zM434 365q0 -51 26.5 -85t77 -48.5 t96.5 -19.5t113.5 -5t113.5 5t95.5 19.5t75 48.5t25.5 85v204h-623v-204zM434 797h623v151q0 96 -79 135t-233 39q-156 0 -233.5 -38t-77.5 -136v-151z" />
<glyph unicode="&#x4e9;" horiz-adv-x="1212" d="M102 340v293q0 102 32 175t78 111.5t120 60t132 27t142 5.5t142.5 -5.5t132 -27t120 -60t78 -111.5t31.5 -175v-293q0 -96 -30.5 -165t-76 -106.5t-118 -58t-133 -25.5t-146.5 -5t-146.5 5t-133 25.5t-117.5 58t-76 106.5t-31 165zM401 305q0 -78 40 -108.5t165 -30.5 t165 30.5t40 108.5v109h-410v-109zM401 608h410v72q0 80 -41 113.5t-164 33.5t-164 -33.5t-41 -113.5v-72z" />
<glyph unicode="&#x4ea;" horiz-adv-x="1490" d="M115 365v581q0 102 46 180t110.5 119t156.5 66.5t164 32t151 6.5q82 0 155 -6.5t165 -32t157.5 -66.5t110.5 -118t45 -181v-581q0 -113 -59.5 -193t-159.5 -120t-200.5 -56t-213.5 -16q-106 0 -199 13t-198.5 50t-168 119t-62.5 203zM422 1495v242h258v-242h-258z M434 365q0 -51 26.5 -85t77 -48.5t96.5 -19.5t113.5 -5t113.5 5t95.5 19.5t75 48.5t25.5 85v204h-623v-204zM434 797h623v151q0 96 -79 135t-233 39q-156 0 -233.5 -38t-77.5 -136v-151zM811 1495v242h258v-242h-258z" />
<glyph unicode="&#x4eb;" horiz-adv-x="1212" d="M102 340v293q0 102 32 175t78 111.5t120 60t132 27t142 5.5t142.5 -5.5t132 -27t120 -60t78 -111.5t31.5 -175v-293q0 -96 -30.5 -165t-76 -106.5t-118 -58t-133 -25.5t-146.5 -5t-146.5 5t-133 25.5t-117.5 58t-76 106.5t-31 165zM283 1157v242h258v-242h-258zM401 305 q0 -78 40 -108.5t165 -30.5t165 30.5t40 108.5v109h-410v-109zM401 608h410v72q0 80 -41 113.5t-164 33.5t-164 -33.5t-41 -113.5v-72zM672 1157v242h258v-242h-258z" />
<glyph unicode="&#x4ec;" horiz-adv-x="1222" d="M61 25v241q252 -59 398 -59q330 0 329 180v182h-542v228h542v155q0 57 -21.5 93t-66.5 52.5t-88 20.5t-110 4q-166 0 -391 -53v240q246 41 421 41q121 0 204 -8.5t159 -33t119 -68.5t68.5 -116.5t25.5 -175.5v-583q0 -98 -43 -171t-105.5 -113t-151.5 -63.5t-162 -30.5 t-154 -7q-205 0 -431 45zM287 1495v242h258v-242h-258zM676 1495v242h258v-242h-258z" />
<glyph unicode="&#x4ed;" horiz-adv-x="1042" d="M61 14v197q211 -45 367 -45q123 0 166 25.5t43 99.5v121h-475v186h475v107q0 74 -38 98t-150 24q-160 0 -373 -49v197q188 37 395 37q66 0 105.5 -1t95 -9.5t89.5 -21.5t71.5 -40t58 -64.5t35 -94t14.5 -130.5v-329q0 -70 -16.5 -124.5t-40 -90t-65.5 -61.5t-77.5 -38 t-95 -19t-97.5 -8t-102 -1q-205 -1 -385 34zM197 1157v242h258v-242h-258zM586 1157v242h258v-242h-258z" />
<glyph unicode="&#x4ee;" horiz-adv-x="1302" d="M20 1329h326l340 -600l270 600h326l-508 -1067q-68 -143 -164 -212.5t-264 -69.5q-94 0 -205 20v233q88 -27 150 -26q131 0 184 115l55 116zM367 1485v182h569v-182h-569z" />
<glyph unicode="&#x4ef;" horiz-adv-x="1093" d="M16 991h326l223 -700l203 700h309l-542 -1417h-304l181 434zM262 1147v182h569v-182h-569z" />
<glyph unicode="&#x4f0;" horiz-adv-x="1302" d="M20 1329h326l340 -600l270 600h326l-508 -1067q-68 -143 -164 -212.5t-264 -69.5q-94 0 -205 20v233q88 -27 150 -26q131 0 184 115l55 116zM328 1495v242h258v-242h-258zM717 1495v242h258v-242h-258z" />
<glyph unicode="&#x4f1;" horiz-adv-x="1093" d="M16 991h326l223 -700l203 700h309l-542 -1417h-304l181 434zM223 1157v242h258v-242h-258zM612 1157v242h258v-242h-258z" />
<glyph unicode="&#x4f2;" horiz-adv-x="1302" d="M20 1329h326l340 -600l270 600h326l-508 -1067q-68 -143 -164 -212.5t-264 -69.5q-94 0 -205 20v233q88 -27 150 -26q131 0 184 115l55 116zM332 1458l143 262h197l-144 -262h-196zM633 1458l143 262h197l-144 -262h-196z" />
<glyph unicode="&#x4f3;" horiz-adv-x="1093" d="M16 991h326l223 -700l203 700h309l-542 -1417h-304l181 434zM227 1130l144 263h196l-143 -263h-197zM528 1130l144 263h196l-143 -263h-197z" />
<glyph unicode="&#x4f4;" horiz-adv-x="1421" d="M127 733v596h319v-530q0 -94 45.5 -129t186.5 -35q152 0 216 30.5t64 112.5v551h320v-1329h-320v571q-20 -94 -104 -122.5t-291 -28.5q-238 0 -337 75.5t-99 237.5zM387 1495v242h258v-242h-258zM776 1495v242h258v-242h-258z" />
<glyph unicode="&#x4f5;" horiz-adv-x="1218" d="M111 600v389h309v-332q0 -113 24.5 -138t135.5 -25q131 0 164.5 23.5t33.5 119.5v352h309v-989h-309v436q-33 -150 -282 -149q-160 0 -246 37.5t-112.5 100t-26.5 175.5zM285 1157v242h258v-242h-258zM674 1157v242h258v-242h-258z" />
<glyph unicode="&#x4f6;" horiz-adv-x="1058" d="M143 0v1329h871v-227h-551v-875h131v-567h-289v340h-162z" />
<glyph unicode="&#x4f7;" horiz-adv-x="829" d="M131 0v991h666v-184h-367v-621h131v-460h-264v274h-166z" />
<glyph unicode="&#x4f8;" horiz-adv-x="1927" d="M143 0v1329h320v-502h237q80 0 126 -1t116 -6t110 -15t88 -30.5t73.5 -50.5t43 -74t17.5 -101v-234q0 -315 -537 -315h-594zM463 227h260q125 0 178 35t53 103v124q0 66 -56 87.5t-171 21.5h-264v-371zM639 1495v242h258v-242h-258zM1028 1495v242h258v-242h-258zM1464 0 v1329h320v-1329h-320z" />
<glyph unicode="&#x4f9;" horiz-adv-x="1699" d="M131 0v991h299v-342h188q301 0 396.5 -53t95.5 -225v-107q0 -145 -124 -204.5t-361 -59.5h-494zM430 186h180q123 0 157 25.5t34 95.5v45q0 68 -40 88.5t-147 20.5h-184v-275zM526 1157v242h258v-242h-258zM915 1157v242h259v-242h-259zM1270 0v991h299v-991h-299z" />
<glyph unicode="&#x1e80;" horiz-adv-x="2017" d="M16 1329h332l258 -971l258 971h297l279 -971l237 971h324l-426 -1329h-315l-254 965l-263 -965h-315zM754 1731h325l185 -261h-254z" />
<glyph unicode="&#x1e81;" horiz-adv-x="1683" d="M16 991h306l184 -719l196 719h293l205 -719l176 719h291l-324 -991h-303l-196 670l-193 -670h-303zM586 1393h325l185 -260h-254z" />
<glyph unicode="&#x1e82;" horiz-adv-x="2017" d="M16 1329h332l258 -971l258 971h297l279 -971l237 971h324l-426 -1329h-315l-254 965l-263 -965h-315zM754 1470l184 261h326l-256 -261h-254z" />
<glyph unicode="&#x1e83;" horiz-adv-x="1683" d="M16 991h306l184 -719l196 719h293l205 -719l176 719h291l-324 -991h-303l-196 670l-193 -670h-303zM586 1133l184 260h326l-256 -260h-254z" />
<glyph unicode="&#x1e84;" horiz-adv-x="2017" d="M16 1329h332l258 -971l258 971h297l279 -971l237 971h324l-426 -1329h-315l-254 965l-263 -965h-315zM684 1495v242h258v-242h-258zM1073 1495v242h258v-242h-258z" />
<glyph unicode="&#x1e85;" horiz-adv-x="1683" d="M16 991h306l184 -719l196 719h293l205 -719l176 719h291l-324 -991h-303l-196 670l-193 -670h-303zM518 1157v242h258v-242h-258zM907 1157v242h258v-242h-258z" />
<glyph unicode="&#x1ef2;" horiz-adv-x="1318" d="M16 1329h363l280 -520l279 520h365l-486 -792v-537h-319v532zM403 1731h326l184 -261h-254z" />
<glyph unicode="&#x1ef3;" horiz-adv-x="1093" d="M16 991h326l223 -700l203 700h309l-542 -1417h-304l181 434zM291 1393h325l185 -260h-254z" />
<glyph unicode="&#x2000;" horiz-adv-x="954" />
<glyph unicode="&#x2001;" horiz-adv-x="1909" />
<glyph unicode="&#x2002;" horiz-adv-x="954" />
<glyph unicode="&#x2003;" horiz-adv-x="1909" />
<glyph unicode="&#x2004;" horiz-adv-x="636" />
<glyph unicode="&#x2005;" horiz-adv-x="477" />
<glyph unicode="&#x2006;" horiz-adv-x="318" />
<glyph unicode="&#x2007;" horiz-adv-x="318" />
<glyph unicode="&#x2008;" horiz-adv-x="238" />
<glyph unicode="&#x2009;" horiz-adv-x="381" />
<glyph unicode="&#x200a;" horiz-adv-x="106" />
<glyph unicode="&#x2010;" horiz-adv-x="794" d="M82 471v229h631v-229h-631z" />
<glyph unicode="&#x2011;" horiz-adv-x="794" d="M82 471v229h631v-229h-631z" />
<glyph unicode="&#x2012;" horiz-adv-x="794" d="M82 471v229h631v-229h-631z" />
<glyph unicode="&#x2013;" d="M145 489v207h897v-207h-897z" />
<glyph unicode="&#x2014;" horiz-adv-x="1675" d="M82 489v207h1511v-207h-1511z" />
<glyph unicode="&#x2018;" horiz-adv-x="524" d="M59 879l193 450h213l-94 -450h-312z" />
<glyph unicode="&#x2019;" horiz-adv-x="524" d="M92 879l94 450h312l-193 -450h-213z" />
<glyph unicode="&#x201a;" horiz-adv-x="524" d="M41 -223l94 450h311l-192 -450h-213z" />
<glyph unicode="&#x201c;" horiz-adv-x="974" d="M59 879l193 450h213l-94 -450h-312zM510 879l192 450h213l-94 -450h-311z" />
<glyph unicode="&#x201d;" horiz-adv-x="954" d="M92 879l94 450h312l-193 -450h-213zM522 879l94 450h312l-193 -450h-213z" />
<glyph unicode="&#x201e;" horiz-adv-x="974" d="M41 -223l94 450h311l-192 -450h-213zM492 -223l94 450h311l-192 -450h-213z" />
<glyph unicode="&#x2020;" horiz-adv-x="1134" d="M53 788v203h367v338h295v-338h366v-203h-366v-1126h-295v1126h-367z" />
<glyph unicode="&#x2021;" horiz-adv-x="1134" d="M53 0v203h367v585h-367v203h367v338h295v-338h366v-203h-366v-585h366v-203h-366v-338h-295v338h-367z" />
<glyph unicode="&#x2022;" horiz-adv-x="980" d="M113 592q0 158 109.5 267.5t267 109.5t268 -109.5t110.5 -267.5t-110.5 -268.5t-265.5 -110.5q-158 0 -268.5 110.5t-110.5 268.5z" />
<glyph unicode="&#x2026;" horiz-adv-x="1572" d="M102 0v283h320v-283h-320zM627 0v283h319v-283h-319zM1151 0v283h319v-283h-319z" />
<glyph unicode="&#x202f;" horiz-adv-x="381" />
<glyph unicode="&#x2030;" horiz-adv-x="2508" d="M76 807v244q0 70 21.5 120t52 76.5t80 42t90 19.5t98 4t98.5 -4t90 -19.5t79 -42t51.5 -76.5t21.5 -120v-244q0 -145 -84 -190.5t-256 -45.5q-174 0 -258 45.5t-84 190.5zM303 786q0 -37 28.5 -48t86.5 -11q112 0 112 59v301q0 70 -112 70q-115 0 -115 -70v-301zM461 -20 l663 1370h179l-664 -1370h-178zM993 215v244q0 70 21.5 120t52.5 76.5t80 42t90 19.5t98.5 4t98.5 -4t90 -19.5t78.5 -42t51 -76.5t21.5 -120v-244q0 -145 -84 -190t-256 -45q-174 0 -258 45t-84 190zM1221 195q0 -59 114 -60q113 1 113 60v301q0 70 -113 69 q-115 0 -114 -69v-301zM1751 215v244q0 70 21.5 120t52 76.5t80 42t90.5 19.5t98 4t98 -4t90.5 -19.5t79 -42t51 -76.5t21.5 -120v-244q0 -145 -84 -190t-256 -45q-174 0 -258 45t-84 190zM1978 195q0 -59 115 -60q113 1 113 60v301q0 70 -113 69q-115 0 -115 -69v-301z" />
<glyph unicode="&#x2039;" horiz-adv-x="626" d="M82 537l205 393h258l-189 -393l189 -394h-258z" />
<glyph unicode="&#x203a;" horiz-adv-x="626" d="M82 143l188 394l-188 393h258l205 -393l-205 -394h-258z" />
<glyph unicode="&#x2044;" horiz-adv-x="245" d="M-381 0l803 1329h207l-803 -1329h-207z" />
<glyph unicode="&#x205f;" horiz-adv-x="477" />
<glyph unicode="&#x2070;" horiz-adv-x="774" d="M51 776v336q0 61 20.5 105.5t49.5 68t77 36.5t89 16t98 3q72 0 121 -6t103.5 -27.5t83 -70.5t28.5 -125v-336q0 -76 -28.5 -125t-83 -69.5t-103.5 -27.5t-121 -7q-57 0 -98 3t-89 16.5t-77 37t-49.5 67.5t-20.5 105zM295 764q0 -43 15.5 -56.5t76.5 -13.5q59 0 73.5 13.5 t14.5 56.5v360q0 45 -14.5 58.5t-73.5 13.5q-61 0 -76.5 -13.5t-15.5 -58.5v-360z" />
<glyph unicode="&#x2074;" horiz-adv-x="774" d="M16 698v156l355 475h256v-471h88v-160h-88v-139h-226v139h-385zM225 858h176v248z" />
<glyph unicode="&#x2075;" horiz-adv-x="774" d="M61 563v182q193 -35 269 -34q106 0 106 45v98q0 43 -71 43h-285v432h582v-168h-338v-102h104q39 0 79 -7.5t82 -23.5t68.5 -51t26.5 -84v-145q0 -53 -21.5 -92.5t-53 -60t-80 -31.5t-86 -14t-89.5 -3q-125 0 -293 16z" />
<glyph unicode="&#x2076;" horiz-adv-x="774" d="M55 776v328q0 66 23.5 112t57.5 69.5t87 36.5t93 16t98 3q39 0 178 -8q10 0 41 -2t39 -2v-166q-203 25 -275 25q-68 0 -85 -12.5t-17 -61.5v-55h111q68 0 104.5 -2t81.5 -12.5t67.5 -31t38 -57.5t15.5 -92v-88q0 -61 -19.5 -104t-49.5 -67.5t-77 -38t-88 -16.5t-96 -3 q-74 0 -123 7t-100 28.5t-78 69.5t-27 124zM295 768q0 -47 14.5 -59.5t75.5 -12.5q59 0 72.5 12.5t13.5 59.5v96q0 29 -14.5 36t-73.5 7h-88v-139z" />
<glyph unicode="&#x2077;" horiz-adv-x="774" d="M33 1159v170h665v-139l-323 -631h-271l324 600h-395z" />
<glyph unicode="&#x2078;" horiz-adv-x="774" d="M41 735v115q0 74 102 119q-74 37 -73 100v94q0 90 68.5 134t248.5 44t249 -44t69 -134v-94q0 -61 -78 -100q45 -20 75.5 -52t30.5 -67v-115q0 -106 -85 -147t-261 -41q-174 0 -260 41t-86 147zM293 750q0 -33 16.5 -43.5t78 -10.5t77.5 10.5t16 43.5v88q0 25 -17.5 36 t-74.5 11q-59 0 -77.5 -11.5t-18.5 -35.5v-88zM313 1075q0 -45 74 -45t74 45v74q0 23 -15.5 34t-58.5 11q-74 0 -74 -45v-74z" />
<glyph unicode="&#x2079;" horiz-adv-x="774" d="M53 1024v88q0 61 20.5 105.5t49.5 68t76 36.5t87 16t97 3q74 0 123 -6t101 -27.5t79 -70.5t27 -125v-324q0 -133 -86 -187t-271 -54q-131 0 -264 14v158q168 -18 262 -19q78 0 97.5 17.5t19.5 77.5v36h-113q-68 0 -104.5 2.5t-80.5 12.5t-66.5 29.5t-38 56.5t-15.5 92z M293 1026q0 -27 15.5 -35t72.5 -8h90v145q0 43 -14.5 53.5t-75.5 10.5q-59 0 -73.5 -10.5t-14.5 -53.5v-102z" />
<glyph unicode="&#x2080;" horiz-adv-x="774" d="M51 217v336q0 61 20.5 105t49.5 68t77 37t89 16t98 3q72 0 121 -6t103.5 -27.5t83 -70.5t28.5 -125v-336q0 -76 -28.5 -125t-83 -69.5t-103.5 -27.5t-121 -7q-57 0 -98 3t-89 16t-77 37t-49.5 68t-20.5 105zM295 205q0 -43 15.5 -56.5t76.5 -13.5q59 0 73.5 13.5 t14.5 56.5v360q0 45 -14.5 58.5t-73.5 13.5q-61 0 -76.5 -13.5t-15.5 -58.5v-360z" />
<glyph unicode="&#x2081;" horiz-adv-x="774" d="M86 422v188l281 160h190v-770h-244v539z" />
<glyph unicode="&#x2082;" horiz-adv-x="774" d="M55 0v180q0 68 40 117t97.5 73.5t115 43t97 39t39.5 49.5v78q0 43 -112 43q-57 0 -260 -35v168q164 27 297 26q162 0 243.5 -45t81.5 -155v-86q0 -82 -62.5 -135.5t-137 -72t-137 -47t-62.5 -67.5v-10h401v-164h-641z" />
<glyph unicode="&#x2083;" horiz-adv-x="774" d="M45 10v180l61 -12q133 -27 220 -26q59 0 82.5 12t23.5 49v70q0 37 -104 36h-178v154h178q74 0 73 51v58q0 27 -18 37t-78 10q-92 0 -256 -17v160l86 4q76 6 189 6q168 0 246.5 -34.5t78.5 -133.5v-108q0 -51 -53 -90q86 -39 86 -117v-104q0 -111 -81 -157t-251 -46 q-131 0 -246 14q-8 0 -31.5 2t-27.5 2z" />
<glyph unicode="&#x2084;" horiz-adv-x="774" d="M16 139v156l355 475h256v-471h88v-160h-88v-139h-226v139h-385zM225 299h176v248z" />
<glyph unicode="&#x2085;" horiz-adv-x="774" d="M61 4v182q193 -35 269 -34q106 0 106 45v98q0 43 -71 43h-285v432h582v-168h-338v-102h104q39 0 79 -7.5t82 -23.5t68.5 -51t26.5 -84v-146q0 -53 -21.5 -92t-53 -59.5t-80 -31.5t-86 -14t-89.5 -3q-125 0 -293 16z" />
<glyph unicode="&#x2086;" horiz-adv-x="774" d="M55 217v328q0 66 23.5 111.5t57.5 69.5t87 37t93 16t98 3q39 0 178 -8q10 0 41 -2t39 -2v-166q-203 25 -275 25q-68 0 -85 -12.5t-17 -61.5v-55h111q68 0 104.5 -2t81.5 -12.5t67.5 -31t38 -57.5t15.5 -92v-88q0 -61 -19.5 -104t-49.5 -68t-77 -38t-88 -16t-96 -3 q-74 0 -123 7t-100 28.5t-78 69.5t-27 124zM295 209q0 -47 14.5 -59.5t75.5 -12.5q59 0 72.5 12.5t13.5 59.5v96q0 29 -14.5 36t-73.5 7h-88v-139z" />
<glyph unicode="&#x2087;" horiz-adv-x="774" d="M33 600v170h665v-139l-323 -631h-271l324 600h-395z" />
<glyph unicode="&#x2088;" horiz-adv-x="774" d="M41 176v115q0 74 102 119q-74 37 -73 100v94q0 90 68.5 134t248.5 44t249 -44t69 -134v-94q0 -61 -78 -100q45 -20 75.5 -52t30.5 -67v-115q0 -106 -85 -147t-261 -41q-174 0 -260 41t-86 147zM293 190q0 -33 16.5 -43t78 -10t77.5 10.5t16 42.5v89q0 25 -17.5 36 t-74.5 11q-59 0 -77.5 -11.5t-18.5 -35.5v-89zM313 516q0 -45 74 -45t74 45v74q0 23 -15.5 34t-58.5 11q-74 0 -74 -45v-74z" />
<glyph unicode="&#x2089;" horiz-adv-x="774" d="M53 465v88q0 61 20.5 105t49.5 68t76 37t87 16t97 3q74 0 123 -6t101 -27.5t79 -70.5t27 -125v-324q0 -133 -86 -187t-271 -54q-131 0 -264 14v158q168 -18 262 -19q78 0 97.5 17.5t19.5 77.5v36h-113q-68 0 -104.5 2t-80.5 12.5t-66.5 30t-38 56.5t-15.5 92zM293 467 q0 -27 15.5 -35t72.5 -8h90v145q0 43 -14.5 53.5t-75.5 10.5q-59 0 -73.5 -10.5t-14.5 -53.5v-102z" />
<glyph unicode="&#x20ac;" horiz-adv-x="0" />
<glyph unicode="&#x20ae;" horiz-adv-x="1218" d="M41 1102v227h1137v-227h-408v-195l285 78v-201l-285 -77v-127l285 77v-200l-285 -78v-379h-319v293l-306 -82v201l306 82v127l-306 -82v200l306 82v281h-410z" />
<glyph unicode="&#x20b4;" horiz-adv-x="1241" d="M0 328v159h76q4 156 105.5 238t326.5 82h160q133 0 166 61h-834v160h842q-10 51 -70.5 72.5t-204.5 21.5q-115 0 -426 -37v238q262 27 416 27q309 0 454.5 -79t151.5 -243h78v-160h-80q-31 -303 -436 -303h-156q-135 0 -166 -78h838v-159h-846q16 -121 267 -121 q135 0 475 53v-244q-281 -37 -471 -36q-129 0 -224.5 15t-178.5 52t-130 106.5t-55 174.5h-78z" />
<glyph unicode="&#x2116;" horiz-adv-x="2750" d="M143 0v1329h324l643 -907v907h285v-1329h-324l-643 922v-922h-285z" />
<glyph unicode="&#x2122;" horiz-adv-x="1341" d="M41 1212v117h514v-117h-180v-419h-152v419h-182zM600 793v536h186l152 -362l141 362h181v-536h-140v307l-125 -307h-123l-131 313v-313h-141z" />
<glyph unicode="&#x2126;" horiz-adv-x="1495" d="M102 0v207h271q-246 109 -246 383v356q0 403 620.5 403.5t620.5 -403.5v-356q0 -274 -246 -383h271v-207h-564v240q92 4 162 66.5t70 150.5v506q0 96 -80 135t-233.5 39t-233.5 -39t-80 -135v-506q0 -88 69.5 -150.5t162.5 -66.5v-240h-564z" />
<glyph unicode="&#x212e;" horiz-adv-x="1695" d="M61 672q0 285 228.5 488.5t548.5 203.5q317 0 544.5 -204t227.5 -488v-19h-1252q-14 0 -14 -10v-379q0 -20 21 -45q199 -205 475 -205q297 0 495 232h115q-111 -127 -270.5 -201t-341.5 -74q-322 0 -549.5 206t-227.5 495zM344 702q0 -8 14 -8h957q12 0 12 8v377 q0 27 -22 45q-190 197 -465 197q-276 0 -473 -203q-23 -23 -23 -47v-369z" />
<glyph unicode="&#x2153;" horiz-adv-x="1957" d="M233 981v188l281 160h191v-770h-244v539zM475 0l803 1329h207l-803 -1329h-207zM1180 10v180l61 -12q133 -27 219 -26q59 0 83 12t24 49v70q0 37 -105 36h-178v154h178q74 0 74 51v58q0 27 -18.5 37t-77.5 10q-92 0 -256 -17v160l86 4q78 6 188 6q168 0 247 -34.5 t79 -133.5v-108q0 -51 -53 -90q86 -39 86 -117v-104q0 -111 -81 -157t-251 -46q-131 0 -246 14q-8 0 -31.5 2t-27.5 2z" />
<glyph unicode="&#x2154;" horiz-adv-x="1957" d="M55 559v180q0 68 40 117t97.5 73.5t115 43t97 39t39.5 49.5v78q0 43 -112 43q-57 0 -260 -35v168q164 27 297 26q162 0 243.5 -45t81.5 -155v-86q0 -82 -62.5 -135.5t-137 -72t-137 -47t-62.5 -67.5v-10h401v-164h-641zM475 0l803 1329h207l-803 -1329h-207zM1180 10v180 l61 -12q133 -27 219 -26q59 0 83 12t24 49v70q0 37 -105 36h-178v154h178q74 0 74 51v58q0 27 -18.5 37t-77.5 10q-92 0 -256 -17v160l86 4q78 6 188 6q168 0 247 -34.5t79 -133.5v-108q0 -51 -53 -90q86 -39 86 -117v-104q0 -111 -81 -157t-251 -46q-131 0 -246 14 q-8 0 -31.5 2t-27.5 2z" />
<glyph unicode="&#x2155;" horiz-adv-x="1957" d="M233 981v188l281 160h191v-770h-244v539zM475 0l803 1329h207l-803 -1329h-207zM1196 4v182q193 -35 268 -34q106 0 107 45v98q0 43 -72 43h-285v432h582v-168h-338v-102h105q39 0 78.5 -7.5t81.5 -23.5t69 -51t27 -84v-146q0 -53 -21.5 -92t-53.5 -59.5t-80 -31.5 t-86 -14t-89 -3q-125 0 -293 16z" />
<glyph unicode="&#x2156;" horiz-adv-x="1957" d="M55 559v180q0 68 40 117t97.5 73.5t115 43t97 39t39.5 49.5v78q0 43 -112 43q-57 0 -260 -35v168q164 27 297 26q162 0 243.5 -45t81.5 -155v-86q0 -82 -62.5 -135.5t-137 -72t-137 -47t-62.5 -67.5v-10h401v-164h-641zM475 0l803 1329h207l-803 -1329h-207zM1196 4v182 q193 -35 268 -34q106 0 107 45v98q0 43 -72 43h-285v432h582v-168h-338v-102h105q39 0 78.5 -7.5t81.5 -23.5t69 -51t27 -84v-146q0 -53 -21.5 -92t-53.5 -59.5t-80 -31.5t-86 -14t-89 -3q-125 0 -293 16z" />
<glyph unicode="&#x2157;" horiz-adv-x="1957" d="M45 569v181l61 -13q133 -27 220 -26q59 0 82.5 12t23.5 49v70q0 37 -104 37h-178v153h178q74 0 73 51v58q0 27 -18 37t-78 10q-92 0 -256 -17v160l86 4q78 6 189 6q168 0 246.5 -34.5t78.5 -132.5v-109q0 -51 -53 -90q86 -39 86 -117v-104q0 -111 -81 -157t-251 -46 q-131 0 -246 14q-8 0 -31.5 2t-27.5 2zM475 0l803 1329h207l-803 -1329h-207zM1196 4v182q193 -35 268 -34q106 0 107 45v98q0 43 -72 43h-285v432h582v-168h-338v-102h105q39 0 78.5 -7.5t81.5 -23.5t69 -51t27 -84v-146q0 -53 -21.5 -92t-53.5 -59.5t-80 -31.5t-86 -14 t-89 -3q-125 0 -293 16z" />
<glyph unicode="&#x2158;" horiz-adv-x="1957" d="M16 698v156l355 475h256v-471h88v-160h-88v-139h-226v139h-385zM225 858h176v248zM475 0l803 1329h207l-803 -1329h-207zM1196 4v182q193 -35 268 -34q106 0 107 45v98q0 43 -72 43h-285v432h582v-168h-338v-102h105q39 0 78.5 -7.5t81.5 -23.5t69 -51t27 -84v-146 q0 -53 -21.5 -92t-53.5 -59.5t-80 -31.5t-86 -14t-89 -3q-125 0 -293 16z" />
<glyph unicode="&#x2159;" horiz-adv-x="1957" d="M233 981v188l281 160h191v-770h-244v539zM475 0l803 1329h207l-803 -1329h-207zM1190 217v328q0 66 23.5 111.5t57.5 69.5t87 37t93 16t97 3q39 0 178 -8q10 0 41 -2t39 -2v-166q-203 25 -274 25q-68 0 -85 -12.5t-17 -61.5v-55h110q68 0 104.5 -2t82 -12.5t68 -31 t37.5 -57.5t15 -92v-88q0 -61 -19.5 -104t-49 -68t-76.5 -38t-88 -16t-96 -3q-74 0 -123 7t-100.5 28.5t-78 69.5t-26.5 124zM1430 209q0 -47 14 -59.5t76 -12.5q59 0 72.5 12.5t13.5 59.5v96q0 29 -14.5 36t-73.5 7h-88v-139z" />
<glyph unicode="&#x215a;" horiz-adv-x="1957" d="M61 563v182q193 -35 269 -34q106 0 106 45v98q0 43 -71 43h-285v432h582v-168h-338v-102h104q39 0 79 -7.5t82 -23.5t68.5 -51t26.5 -84v-145q0 -53 -21.5 -92.5t-53 -60t-80 -31.5t-86 -14t-89.5 -3q-125 0 -293 16zM475 0l803 1329h207l-803 -1329h-207zM1190 217v328 q0 66 23.5 111.5t57.5 69.5t87 37t93 16t97 3q39 0 178 -8q10 0 41 -2t39 -2v-166q-203 25 -274 25q-68 0 -85 -12.5t-17 -61.5v-55h110q68 0 104.5 -2t82 -12.5t68 -31t37.5 -57.5t15 -92v-88q0 -61 -19.5 -104t-49 -68t-76.5 -38t-88 -16t-96 -3q-74 0 -123 7t-100.5 28.5 t-78 69.5t-26.5 124zM1430 209q0 -47 14 -59.5t76 -12.5q59 0 72.5 12.5t13.5 59.5v96q0 29 -14.5 36t-73.5 7h-88v-139z" />
<glyph unicode="&#x215b;" horiz-adv-x="1957" d="M233 981v188l281 160h191v-770h-244v539zM475 0l803 1329h207l-803 -1329h-207zM1176 176v115q0 74 102 119q-74 37 -74 100v94q0 90 68.5 134t249 44t249 -44t68.5 -134v-94q0 -61 -78 -100q45 -20 76 -52t31 -67v-115q0 -106 -85 -147t-261 -41q-174 0 -260 41t-86 147 zM1427 190q0 -33 16.5 -43t78 -10t78 10.5t16.5 42.5v89q0 25 -17.5 36t-74.5 11q-59 0 -78 -11.5t-19 -35.5v-89zM1448 516q0 -45 73.5 -45t73.5 45v74q0 23 -15 34t-58 11q-74 0 -74 -45v-74z" />
<glyph unicode="&#x215c;" horiz-adv-x="1957" d="M45 569v181l61 -13q133 -27 220 -26q59 0 82.5 12t23.5 49v70q0 37 -104 37h-178v153h178q74 0 73 51v58q0 27 -18 37t-78 10q-92 0 -256 -17v160l86 4q78 6 189 6q168 0 246.5 -34.5t78.5 -132.5v-109q0 -51 -53 -90q86 -39 86 -117v-104q0 -111 -81 -157t-251 -46 q-131 0 -246 14q-8 0 -31.5 2t-27.5 2zM475 0l803 1329h207l-803 -1329h-207zM1176 176v115q0 74 102 119q-74 37 -74 100v94q0 90 68.5 134t249 44t249 -44t68.5 -134v-94q0 -61 -78 -100q45 -20 76 -52t31 -67v-115q0 -106 -85 -147t-261 -41q-174 0 -260 41t-86 147z M1427 190q0 -33 16.5 -43t78 -10t78 10.5t16.5 42.5v89q0 25 -17.5 36t-74.5 11q-59 0 -78 -11.5t-19 -35.5v-89zM1448 516q0 -45 73.5 -45t73.5 45v74q0 23 -15 34t-58 11q-74 0 -74 -45v-74z" />
<glyph unicode="&#x215d;" horiz-adv-x="1957" d="M61 563v182q193 -35 269 -34q106 0 106 45v98q0 43 -71 43h-285v432h582v-168h-338v-102h104q39 0 79 -7.5t82 -23.5t68.5 -51t26.5 -84v-145q0 -53 -21.5 -92.5t-53 -60t-80 -31.5t-86 -14t-89.5 -3q-125 0 -293 16zM475 0l803 1329h207l-803 -1329h-207zM1176 176v115 q0 74 102 119q-74 37 -74 100v94q0 90 68.5 134t249 44t249 -44t68.5 -134v-94q0 -61 -78 -100q45 -20 76 -52t31 -67v-115q0 -106 -85 -147t-261 -41q-174 0 -260 41t-86 147zM1427 190q0 -33 16.5 -43t78 -10t78 10.5t16.5 42.5v89q0 25 -17.5 36t-74.5 11 q-59 0 -78 -11.5t-19 -35.5v-89zM1448 516q0 -45 73.5 -45t73.5 45v74q0 23 -15 34t-58 11q-74 0 -74 -45v-74z" />
<glyph unicode="&#x215e;" horiz-adv-x="1957" d="M33 1159v170h665v-139l-323 -631h-271l324 600h-395zM475 0l803 1329h207l-803 -1329h-207zM1176 176v115q0 74 102 119q-74 37 -74 100v94q0 90 68.5 134t249 44t249 -44t68.5 -134v-94q0 -61 -78 -100q45 -20 76 -52t31 -67v-115q0 -106 -85 -147t-261 -41 q-174 0 -260 41t-86 147zM1427 190q0 -33 16.5 -43t78 -10t78 10.5t16.5 42.5v89q0 25 -17.5 36t-74.5 11q-59 0 -78 -11.5t-19 -35.5v-89zM1448 516q0 -45 73.5 -45t73.5 45v74q0 23 -15 34t-58 11q-74 0 -74 -45v-74z" />
<glyph unicode="&#x2202;" d="M113 346v221q0 86 22.5 144.5t55 89t98 47t119 19.5t151.5 3h219v117q0 106 -33.5 131t-173.5 25q-109 0 -395 -33v219q295 20 430 21q82 0 136.5 -5.5t123 -27t110.5 -60t70.5 -113.5t28.5 -179v-619q0 -98 -28.5 -167.5t-69.5 -107.5t-109.5 -59.5t-128 -26.5 t-143.5 -5q-82 0 -141.5 5t-128 26.5t-111.5 59.5t-72.5 107.5t-29.5 167.5zM410 332q0 -102 27.5 -128t154.5 -26t156.5 26.5t29.5 125.5v344h-184q-123 0 -153.5 -19.5t-30.5 -89.5v-233z" />
<glyph unicode="&#x2206;" horiz-adv-x="1335" d="M-12 0l491 1329h391l478 -1329h-1360zM379 227h569l-280 836h-9z" />
<glyph unicode="&#x220f;" horiz-adv-x="1325" d="M61 1151v178h1186v-178h-184v-1151h-297v1151h-223v-1151h-297v1151h-185z" />
<glyph unicode="&#x2211;" horiz-adv-x="1191" d="M82 0v240l522 444l-522 395v250h1008v-221h-625l414 -322v-194l-435 -365h666v-227h-1028z" />
<glyph unicode="&#x2212;" d="M143 541v207h901v-207h-901z" />
<glyph unicode="&#x2215;" horiz-adv-x="245" d="M-381 0l803 1329h207l-803 -1329h-207z" />
<glyph unicode="&#x2219;" horiz-adv-x="524" d="M102 537v282h301v-282h-301z" />
<glyph unicode="&#x221a;" horiz-adv-x="1353" d="M41 827v193h506l100 -617l408 947h299l-660 -1350h-237l-158 827h-258z" />
<glyph unicode="&#x221e;" d="M80 547q0 123 67.5 186.5t186.5 63.5q49 0 102 -31t84 -60.5t74 -76.5q162 168 258 168q131 0 193.5 -58.5t62.5 -191.5q0 -250 -254 -250q-109 0 -258 166q-2 -2 -34 -33t-42 -39t-40.5 -32.5t-48 -34t-44.5 -18.5t-51 -9q-129 0 -192.5 59.5t-63.5 190.5zM254 547 q0 -43 28.5 -69.5t71.5 -26.5q62 0 158 96q-125 96 -156 96q-45 0 -73.5 -25.5t-28.5 -70.5zM676 547q92 -96 155 -96q103 0 103 96q0 45 -27.5 70.5t-72.5 25.5q-61 0 -158 -96z" />
<glyph unicode="&#x222b;" horiz-adv-x="727" d="M-2 -184q12 -2 37 -2q111 0 141.5 28.5t30.5 143.5v1124q0 182 92 247.5t293 65.5q51 0 135 -6v-190q-29 4 -68 4q-106 0 -129.5 -17.5t-23.5 -87.5v-1208q0 -176 -105.5 -238.5t-306.5 -62.5q-61 0 -96 2v197z" />
<glyph unicode="&#x2248;" d="M139 264v207q76 92 250 92q78 0 222.5 -60.5t193.5 -60.5q166 0 244 127v-207q-74 -94 -252 -94q-66 0 -210.5 60.5t-205.5 60.5q-86 0 -142.5 -29.5t-99.5 -95.5zM139 625v206q76 93 250 93q78 0 222.5 -60.5t193.5 -60.5q166 0 244 127v-207q-74 -94 -252 -94 q-66 0 -210.5 60.5t-205.5 60.5q-86 0 -142.5 -30t-99.5 -95z" />
<glyph unicode="&#x2260;" d="M145 276v207h293l133 219h-426v207h553l125 205h178l-124 -205h165v-207h-292l-134 -219h426v-207h-553l-124 -204h-179l125 204h-166z" />
<glyph unicode="&#x2264;" d="M145 0v197h897v-197h-897zM145 510v229l897 273v-187l-725 -200l725 -201v-186z" />
<glyph unicode="&#x2265;" d="M145 0v197h897v-197h-897zM145 238v186l725 201l-725 200v187l897 -273v-229z" />
<glyph unicode="&#x25ca;" horiz-adv-x="1009" d="M61 682l443 770l444 -770l-444 -791zM319 678l185 -363l178 363l-178 350z" />
<glyph unicode="&#x25fc;" horiz-adv-x="993" d="M0 0v993h993v-993h-993z" />
<glyph unicode="&#xfb00;" horiz-adv-x="1452" d="M20 807v184h187v150q0 182 92 247.5t293 65.5q82 0 176 -10v-184q-80 10 -129 10q-74 0 -103.5 -23.5t-29.5 -89.5v-166h358v150q0 182 92.5 247.5t292.5 65.5q86 0 224 -16v-185q-123 16 -177 17q-74 0 -103.5 -23.5t-29.5 -89.5v-166h273v-184h-273v-807h-299v807h-358 v-807h-299v807h-187z" />
<glyph unicode="&#xfb01;" horiz-adv-x="1302" d="M20 807v184h187v150q0 182 92 247.5t293 65.5q82 0 176 -10v-184q-80 10 -129 10q-74 0 -103.5 -23.5t-29.5 -89.5v-166h252v-184h-252v-807h-299v807h-187zM864 0v991h299v-991h-299zM864 1192v242h299v-242h-299z" />
<glyph unicode="&#xfb02;" horiz-adv-x="1302" d="M20 807v184h187v150q0 182 92 247.5t293 65.5q82 0 176 -10v-184q-80 10 -129 10q-74 0 -103.5 -23.5t-29.5 -89.5v-166h252v-184h-252v-807h-299v807h-187zM864 0v1434h299v-1434h-299z" />
<glyph unicode="&#xfb03;" horiz-adv-x="1959" d="M20 807v184h187v150q0 182 92 247.5t293 65.5q82 0 176 -10v-184q-80 10 -129 10q-74 0 -103.5 -23.5t-29.5 -89.5v-166h358v150q0 182 92.5 247.5t292.5 65.5q82 0 176 -10v-184q-80 10 -129 10q-74 0 -103.5 -23.5t-29.5 -89.5v-166h252v-184h-252v-807h-299v807h-358 v-807h-299v807h-187zM1522 0v991h299v-991h-299zM1522 1192v242h299v-242h-299z" />
<glyph unicode="&#xfb04;" horiz-adv-x="1959" d="M20 807v184h187v150q0 182 92 247.5t293 65.5q82 0 176 -10v-184q-80 10 -129 10q-74 0 -103.5 -23.5t-29.5 -89.5v-166h358v150q0 182 92.5 247.5t292.5 65.5q82 0 176 -10v-184q-80 10 -129 10q-74 0 -103.5 -23.5t-29.5 -89.5v-166h252v-184h-252v-807h-299v807h-358 v-807h-299v807h-187zM1522 0v1434h299v-1434h-299z" />
<glyph horiz-adv-x="819" d="M227 -426l95 332h272l-170 -332h-197z" />
<glyph horiz-adv-x="1191" d="M-12 0l446 991h303l459 -991h-317l-76 184h-441l-73 -184h-301zM438 375h285l-143 352z" />
<glyph horiz-adv-x="1216" d="M141 0v991h549q131 0 212 -15t117 -52t46 -74t10 -100v-35q0 -82 -45 -119t-137 -57v-9q109 -18 175.5 -70t66.5 -138v-60q0 -133 -98.5 -197.5t-331.5 -64.5h-564zM440 184h168q129 0 180.5 26t51.5 81v37q0 57 -47.5 75.5t-174.5 18.5h-178v-238zM440 604h160 q121 0 157 23t36 80v12q0 31 -10.5 47t-55.5 28.5t-133 12.5h-154v-203z" />
<glyph horiz-adv-x="1093" d="M102 322v329q0 100 36 171t85 108t133 56.5t144.5 22.5t156.5 3q172 0 361 -37v-217q-213 49 -383 49q-229 0 -229 -164v-311q0 -147 249 -148q166 0 377 45v-215q-180 -35 -395 -34q-76 0 -122 2t-117.5 11t-116.5 31.5t-90.5 58.5t-67 96.5t-21.5 142.5z" />
<glyph horiz-adv-x="1325" d="M141 0v991h525q131 0 214 -8t154.5 -30.5t109.5 -65.5t58.5 -110t20.5 -167v-250q0 -360 -555 -360h-527zM440 184h156q76 0 129 8.5t102.5 30t74 67.5t24.5 116v169q0 152 -69 192t-261 40h-156v-623z" />
<glyph horiz-adv-x="1116" d="M141 0v991h883v-184h-584v-203h516v-184h-516v-236h604v-184h-903z" />
<glyph horiz-adv-x="1095" d="M141 0v991h883v-184h-584v-223h516v-185h-516v-399h-299z" />
<glyph horiz-adv-x="1239" d="M102 344v285q0 111 44 188.5t129 118.5t186.5 58.5t236.5 17.5q160 0 430 -45v-217q-244 57 -426 57q-70 0 -112.5 -4t-89.5 -20.5t-69.5 -52.5t-22.5 -93v-272q0 -180 303 -181q63 0 161 11v174h-155v182h420v-526q-225 -45 -459 -45q-86 0 -150.5 5t-150.5 25.5 t-140.5 57t-94.5 107.5t-40 169z" />
<glyph horiz-adv-x="1337" d="M141 0v991h299v-383h457v383h299v-991h-299v414h-457v-414h-299z" />
<glyph horiz-adv-x="585" d="M141 0v991h299v-991h-299z" />
<glyph horiz-adv-x="876" d="M41 4v197q123 -16 256 -17q80 0 108.5 30t28.5 95v682h299v-649q0 -207 -101.5 -279.5t-309.5 -72.5q-152 0 -281 14z" />
<glyph horiz-adv-x="1189" d="M141 0v991h299v-991h-299zM453 539l387 452h362l-414 -450l443 -541h-359z" />
<glyph horiz-adv-x="993" d="M141 0v991h299v-807h543v-184h-842z" />
<glyph horiz-adv-x="1611" d="M143 0v991h408l254 -667l254 667h409v-991h-276v676h-10l-275 -676h-219l-266 676h-10v-676h-269z" />
<glyph horiz-adv-x="1382" d="M143 0v991h342l478 -657v657h276v-991h-342l-477 676v-676h-277z" />
<glyph horiz-adv-x="1339" d="M102 340v293q0 102 39 175t93.5 111.5t138.5 60t148.5 27t148.5 5.5t148.5 -5.5t148.5 -27t138 -60t93 -111.5t39 -175v-293q0 -80 -24.5 -142.5t-70.5 -100.5t-97.5 -62.5t-122 -35.5t-126 -15t-127 -4t-127 4t-126 15t-121.5 35.5t-97 62.5t-71 100.5t-25 142.5z M412 309q0 -143 258 -143t258 143v363q0 156 -258 155.5t-258 -155.5v-363z" />
<glyph horiz-adv-x="1189" d="M141 0v991h447q289 0 404.5 -62.5t115.5 -240.5v-72q0 -201 -117 -266t-440 -65h-111v-285h-299zM440 469h138q150 0 196.5 36t46.5 130v22q0 88 -46 119t-202 31h-133v-338z" />
<glyph horiz-adv-x="1339" d="M102 360v291q0 74 20.5 131.5t50.5 95t81 64.5t94 40t109.5 20.5t107.5 8.5t104.5 1t104.5 -1t107.5 -8.5t109.5 -20.5t94.5 -40t81 -64.5t50 -95t20.5 -131.5v-258q0 -88 -20.5 -135t-75.5 -92h198v-166h-669q-72 0 -127.5 4t-126 15.5t-121.5 36t-97 62.5t-71 100.5 t-25 141.5zM412 328q0 -143 258 -143t258 143v344q0 156 -258 155.5t-258 -155.5v-344z" />
<glyph horiz-adv-x="1232" d="M141 0v991h627q193 0 268.5 -53t75.5 -203v-106q0 -117 -67.5 -166t-194.5 -62l344 -401h-356l-275 356h-123v-356h-299zM440 545h199q174 0 174 104v58q0 57 -46 78.5t-151 21.5h-176v-262z" />
<glyph horiz-adv-x="1114" d="M90 653v121q0 129 133 183.5t381 54.5q119 0 373 -19v-190q-319 25 -381 24q-109 0 -160 -16t-51 -61v-39q0 -47 26.5 -66.5t98.5 -19.5h131q385 0 385 -238v-125q0 -74 -29.5 -127t-74.5 -82.5t-116 -46t-134.5 -21.5t-149.5 -5q-182 0 -411 30v199q285 -43 415 -43 q102 0 153.5 22.5t51.5 81.5v37q0 37 -31.5 69t-109.5 32h-170q-156 0 -243 62t-87 183z" />
<glyph horiz-adv-x="1116" d="M59 807v184h994v-184h-346v-807h-299v807h-349z" />
<glyph horiz-adv-x="1280" d="M141 365v626h299v-624q0 -102 37 -142.5t166 -40.5q127 0 162 40t35 143v624h299v-626q0 -121 -44 -202t-123 -119t-156 -51t-177 -13q-80 0 -143.5 7t-133 30.5t-115.5 64.5t-76 112.5t-30 170.5z" />
<glyph horiz-adv-x="1208" d="M0 991h317l299 -686l291 686h301l-446 -991h-303z" />
<glyph horiz-adv-x="1773" d="M20 991h306l204 -719l218 719h292l226 -719l196 719h291l-344 -991h-303l-217 670l-213 -670h-303z" />
<glyph horiz-adv-x="1206" d="M20 0l410 508l-389 483h346l215 -284l217 284h346l-391 -483l412 -508h-346l-238 311l-235 -311h-347z" />
<glyph horiz-adv-x="1193" d="M20 991h320l252 -409l252 409h330l-429 -612v-379h-299v373z" />
<glyph horiz-adv-x="1110" d="M82 0v150l553 657h-533v184h922v-149l-553 -658h565v-184h-954z" />
<glyph horiz-adv-x="1720" d="M-12 0l487 991h1153v-184h-522v-203h455v-184h-455v-236h543v-184h-840v205h-424l-96 -205h-301zM477 399h332v408h-137z" />
<glyph horiz-adv-x="1382" d="M143 0v991h342l478 -616v616h276v-975q0 -385 -344 -385q-135 0 -186 11v182q37 -10 106 -10q141 0 143 161l-538 701v-676h-277z" />
<glyph horiz-adv-x="1701" d="M102 360v250q0 381 557 381h951v-184h-523v-203h455v-184h-455v-236h543v-184h-973q-555 0 -555 360zM399 393q0 -70 26 -113.5t78 -63t104 -26t132 -6.5h64v625h-74q-66 0 -106.5 -3t-88 -15.5t-74 -35t-44 -64.5t-17.5 -103v-195z" />
<glyph horiz-adv-x="1325" d="M39 414v194h102v383h525q131 0 214 -8t154.5 -30.5t109.5 -65.5t58.5 -110t20.5 -167v-250q0 -360 -555 -360h-527v414h-102zM440 184h156q76 0 129 8.5t102.5 30t74 67.5t24.5 116v169q0 152 -69 192t-261 40h-156v-199h183v-194h-183v-230z" />
<glyph horiz-adv-x="1337" d="M143 0v991h297v-194h457v194h297v-991h-297v209h-457v-209h-297zM440 403h457v199h-457v-199z" />
<glyph horiz-adv-x="1423" d="M141 0v991h299v-991h-299zM588 4v197q123 -16 256 -17q80 0 108.5 30t28.5 95v682h299v-649q0 -207 -101.5 -279.5t-310.5 -72.5q-152 0 -280 14z" />
<glyph horiz-adv-x="585" d="M141 0v991h299v-991h-299zM143 1157v236h299v-236h-299z" />
<glyph horiz-adv-x="585" d="M143 0v991h299v-991h-299z" />
<glyph horiz-adv-x="1339" d="M102 360v252q0 399 567.5 399.5t567.5 -399.5v-252q0 -381 -567.5 -380.5t-567.5 380.5zM412 313q0 -23 6 -41l403 531q-68 20 -151 20q-258 0 -258 -155v-355zM496 195q61 -25 174 -25q258 0 258 143v355q0 37 -17 65z" />
<glyph horiz-adv-x="1189" d="M141 0v991h297v-143h150q289 0 404.5 -62.5t115.5 -240.5v-72q0 -201 -117 -266.5t-440 -65.5h-111v-141h-299zM440 326h138q152 0 197.5 31.5t45.5 123.5v43q0 86 -45 113t-203 27h-133v-338z" />
<glyph horiz-adv-x="1116" d="M59 807v184h994v-184h-346v-248h182v-190h-182v-369h-299v369h-185v190h185v248h-349z" />
<glyph horiz-adv-x="1310" d="M102 0v991h299v-991h-299zM414 557l325 434h342l-344 -432l373 -559h-338zM983 659l170 332h197l-95 -332h-272z" />
<glyph horiz-adv-x="1054" d="M27 389v176l116 25v401h297v-338l254 56v-177l-254 -55v-280h543v-197h-840v414z" />
<glyph horiz-adv-x="1437" d="M123 170v172q0 143 256 195q-82 70 -109.5 113.5t-27.5 99.5v73q0 100 114.5 144.5t362.5 44.5q147 0 332 -21v-198q-180 31 -301 30q-115 0 -161 -13t-46 -44q0 -37 47 -76l432 -352q49 59 49 151v123h242v-133q0 -94 -35 -154.5t-102 -111.5q47 -33 83.5 -40t110.5 -7 h29v-166h-187q-92 0 -139 9t-96 42q-162 -72 -363 -71q-492 0 -491 190zM426 283q0 -74 42 -95.5t175 -21.5q92 0 156 24l-289 238q-84 -33 -84 -96v-49z" />
<glyph horiz-adv-x="1093" d="M20 309v137h119v95h-119v137h119q4 92 40 157.5t83 99.5t127 52.5t138.5 21.5t150.5 3q152 0 340 -37v-211q-213 49 -363 49q-104 0 -154 -31.5t-59 -103.5h432v-137h-432v-95h432v-137h-432q14 -127 234 -127q145 0 356 45v-213q-180 -35 -375 -34q-90 0 -144 3t-133 20 t-124 50t-80 98.5t-37 157.5h-119z" />
<glyph horiz-adv-x="1024" d="M68 674v100q0 211 393 234v163h168v-161q102 -2 284 -17v-186q-319 25 -360 24q-190 0 -191 -57v-63q0 -25 26 -45.5t79 -20.5h131q365 0 365 -237v-105q0 -141 -89.5 -202.5t-244.5 -73.5v-172h-168v165q-156 4 -373 31v199q285 -43 395 -43q90 0 137.5 16.5t47.5 67.5 v57q0 25 -4.5 38t-33 27.5t-83.5 14.5h-150q-156 0 -242.5 62.5t-86.5 183.5z" />
<glyph horiz-adv-x="1024" d="M66 367v278q0 90 28.5 156.5t72.5 104.5t111.5 60.5t126 30t136.5 9.5v168h168v-173q135 -10 258 -32v-199q-213 49 -369 49q-229 0 -229 -164v-293q0 -147 249 -147q152 0 363 45v-201q-98 -16 -272 -30v-174h-168v170q-78 2 -134.5 7t-125 26.5t-112.5 56.5t-73.5 99.5 t-29.5 152.5z" />
<glyph d="M100 0v195h228v217h-228v188h228v25q0 123 24.5 200.5t79.5 117.5t125 54.5t180 14.5q162 0 248 -11v-200q-72 10 -199 10q-102 0 -131.5 -27.5t-29.5 -144.5v-39h278v-188h-278v-217h458v-195h-983z" />
<glyph horiz-adv-x="1275" d="M20 991h320l293 -409l282 409h340l-331 -432h163v-158h-284l-17 -22v-76h301v-158h-301v-145h-299v145h-325v158h325v70l-22 28h-303v158h184z" />
<glyph horiz-adv-x="823" d="M-2 -184q12 -2 37 -2q111 0 141.5 28.5t30.5 143.5v415h-187v179h187v118q0 182 92 248t293 66q86 0 223 -17v-192q-123 16 -156 16q-106 0 -129.5 -17.5t-23.5 -86.5v-135h289v-179h-289v-483q0 -176 -105.5 -238.5t-306.5 -62.5q-61 0 -96 2v197z" />
<glyph horiz-adv-x="604" d="M123 989h358l-88 -604h-182zM143 0v283h320v-283h-320z" />
<glyph horiz-adv-x="1083" d="M82 760v223q262 33 446 33q238 0 355.5 -52.5t117.5 -199.5v-62q0 -72 -54 -122t-120.5 -71.5t-121 -51t-54.5 -62.5v-10h-278v37q0 68 32.5 112t79.5 64t93.5 35.5t79 36t32.5 53.5v14q0 72 -201 72q-94 0 -407 -49zM352 0v283h320v-283h-320z" />
<glyph horiz-adv-x="669" d="M76 991q0 86 42 122t132 36h168v63q0 25 -16.5 34t-61.5 9l-225 -8v94q172 8 239 9q127 0 181.5 -37t54.5 -129v-340h-168v45q-18 -31 -49 -43t-111 -12q-102 0 -144 31.5t-42 125.5zM242 989q0 -49 13 -60t67 -11q57 0 76.5 6t19.5 37v106h-103q-47 0 -60 -14.5 t-13 -63.5z" />
<glyph horiz-adv-x="710" d="M82 1014v145q0 63 24.5 104.5t70.5 58.5t86 22.5t93.5 5.5t93 -5.5t86 -22.5t71 -58.5t24.5 -104.5v-145q0 -59 -24.5 -98t-69.5 -55.5t-85 -21.5t-95.5 -5t-95.5 5t-85 21.5t-69.5 55t-24.5 98.5zM254 989q0 -39 19.5 -52t83 -13t83 13t19.5 52v199q0 41 -20.5 57.5 t-82 16.5t-82 -16.5t-20.5 -57.5v-199z" />
<glyph horiz-adv-x="1083" d="M82 231v62q0 72 54 122t121 71.5t121 51t54 62.5v10h279v-37q0 -68 -33 -111.5t-79 -64t-93 -36t-80 -36t-33 -53.5v-14q0 -72 201 -72q94 0 407 50v-224q-262 -33 -446 -32q-238 0 -355.5 52t-117.5 199zM412 713v282h319v-282h-319z" />
<glyph horiz-adv-x="600" d="M121 0l88 604h182l88 -604h-358zM139 707v282h320v-282h-320z" />
<glyph horiz-adv-x="1980" d="M82 485v244q0 70 21.5 120t52 76.5t80 42t90.5 19.5t98 4t98 -4t90.5 -19.5t79 -42t51 -76.5t21.5 -120v-244q0 -145 -84 -190t-256 -45q-174 0 -258 45t-84 190zM309 465q0 -37 29 -48t86 -11q113 0 113 59v301q0 70 -113 70q-115 0 -115 -70v-301zM664 -20l507 1048 h179l-508 -1048h-178zM1217 215v244q0 70 21.5 120t52 76.5t79.5 42t90 19.5t98.5 4t98.5 -4t90 -19.5t78.5 -42t51 -76.5t21.5 -120v-244q0 -145 -83.5 -190t-255.5 -45q-174 0 -258 45t-84 190zM1444 195q0 -59 115 -60q112 1 112 60v301q0 70 -112 69q-115 0 -115 -69 v-301z" />
<glyph horiz-adv-x="2756" d="M82 485v244q0 70 21.5 120t52 76.5t80 42t90.5 19.5t98 4t98 -4t90.5 -19.5t79 -42t51 -76.5t21.5 -120v-244q0 -145 -84 -190t-256 -45q-174 0 -258 45t-84 190zM309 465q0 -37 29 -48t86 -11q113 0 113 59v301q0 70 -113 70q-115 0 -115 -70v-301zM664 -20l507 1048 h179l-508 -1048h-178zM1217 215v244q0 70 21.5 120t52 76.5t79.5 42t90 19.5t98.5 4t98.5 -4t90 -19.5t78.5 -42t51 -76.5t21.5 -120v-244q0 -145 -83.5 -190t-255.5 -45q-174 0 -258 45t-84 190zM1444 195q0 -59 115 -60q112 1 112 60v301q0 70 -112 69q-115 0 -115 -69 v-301zM1993 215v244q0 70 21.5 120t52 76.5t79.5 42t90 19.5t98.5 4t98.5 -4t90 -19.5t79 -42t51.5 -76.5t21.5 -120v-244q0 -145 -84 -190t-256 -45q-174 0 -258 45t-84 190zM2220 195q0 -59 115 -60q112 1 112 60v301q0 70 -112 69q-115 0 -115 -69v-301z" />
<glyph horiz-adv-x="819" d="M227 1102l170 332h197l-94 -332h-273z" />
<glyph horiz-adv-x="524" d="M80 1065l53 369h291l-131 -369h-213z" />
<glyph horiz-adv-x="774" d="M51 961v335q0 61 20.5 105.5t49.5 68t77 37t89 16.5t98 3q72 0 121 -6.5t103.5 -28t83 -70.5t28.5 -125v-335q0 -76 -28.5 -125.5t-83 -70t-103.5 -27.5t-121 -7q-57 0 -98 3t-89 16.5t-77 37t-49.5 68t-20.5 105.5zM295 948q0 -43 15.5 -56t76.5 -13q59 0 73.5 13 t14.5 56v361q0 45 -14.5 58t-73.5 13q-61 0 -76.5 -13t-15.5 -58v-361z" />
<glyph horiz-adv-x="774" d="M86 1165v189l281 159h190v-770h-244v539z" />
<glyph horiz-adv-x="774" d="M55 743v181q0 68 40 117t97.5 73.5t115 43t97 39t39.5 48.5v78q0 43 -112 43q-57 0 -260 -35v168q164 27 297 27q162 0 243.5 -45t81.5 -156v-86q0 -82 -62.5 -135t-137 -71.5t-137 -47.5t-62.5 -67v-11h401v-164h-641z" />
<glyph horiz-adv-x="774" d="M45 754v180l61 -12q133 -27 220 -27q59 0 82.5 12.5t23.5 48.5v70q0 37 -104 37h-178v154h178q74 0 73 51v57q0 27 -18 37t-78 10q-92 0 -256 -16v160l86 4q78 6 189 6q168 0 246.5 -35t78.5 -133v-109q0 -51 -53 -90q86 -39 86 -117v-104q0 -111 -81 -157t-251 -46 q-131 0 -246 15q-8 0 -31.5 2t-27.5 2z" />
<glyph horiz-adv-x="774" d="M16 883v155l355 475h256v-471h88v-159h-88v-140h-226v140h-385zM225 1042h176v248z" />
<glyph horiz-adv-x="774" d="M61 748v182q193 -35 269 -35q106 0 106 45v98q0 43 -71 43h-285v432h582v-167h-338v-103h104q39 0 79 -7t82 -23.5t68.5 -51.5t26.5 -84v-145q0 -53 -21.5 -92t-53 -59.5t-80 -32t-86 -14.5t-89.5 -3q-125 0 -293 17z" />
<glyph horiz-adv-x="774" d="M55 961v327q0 66 23.5 112t57.5 69.5t87 37t93 16.5t98 3q39 0 178 -8q10 0 41 -2.5t39 -2.5v-165q-203 25 -275 24q-68 0 -85 -12t-17 -62v-55h111q68 0 104.5 -2t81.5 -12t67.5 -30.5t38 -57.5t15.5 -92v-88q0 -61 -19.5 -104.5t-49.5 -68t-77 -38t-88 -16.5t-96 -3 q-74 0 -123 7t-100 28.5t-78 70t-27 124.5zM295 952q0 -47 14.5 -59t75.5 -12q59 0 72.5 12t13.5 59v97q0 29 -14.5 36t-73.5 7h-88v-140z" />
<glyph horiz-adv-x="774" d="M33 1343v170h665v-139l-323 -631h-271l324 600h-395z" />
<glyph horiz-adv-x="774" d="M41 920v114q0 74 102 119q-74 37 -73 100v95q0 90 68.5 134t248.5 44t249 -44t69 -134v-95q0 -61 -78 -100q45 -20 75.5 -52t30.5 -67v-114q0 -106 -85 -147.5t-261 -41.5q-174 0 -260 41t-86 148zM293 934q0 -33 16.5 -43t78 -10t77.5 10t16 43v88q0 25 -17.5 36 t-74.5 11q-59 0 -77.5 -11t-18.5 -36v-88zM313 1260q0 -46 74 -46t74 46v73q0 23 -15.5 34t-58.5 11q-74 0 -74 -45v-73z" />
<glyph horiz-adv-x="774" d="M53 1208v88q0 61 20.5 105.5t49.5 68t76 37t87 16.5t97 3q74 0 123 -6.5t101 -28t79 -70.5t27 -125v-323q0 -133 -86 -187.5t-271 -54.5q-131 0 -264 14v158q168 -18 262 -18q78 0 97.5 17.5t19.5 76.5v37h-113q-68 0 -104.5 2t-80.5 12t-66.5 29.5t-38 56.5t-15.5 92z M293 1210q0 -27 15.5 -35t72.5 -8h90v146q0 43 -14.5 53t-75.5 10q-59 0 -73.5 -10t-14.5 -53v-103z" />
<glyph horiz-adv-x="774" d="M51 -84v336q0 61 20.5 105t49.5 68t77 37t89 16t98 3q72 0 121 -6t103.5 -27.5t83 -70.5t28.5 -125v-336q0 -76 -28.5 -125t-83 -69.5t-103.5 -27.5t-121 -7q-57 0 -98 3t-89 16t-77 37t-49.5 68t-20.5 105zM295 -96q0 -43 15.5 -56.5t76.5 -13.5q59 0 73.5 13.5 t14.5 56.5v360q0 45 -14.5 58.5t-73.5 13.5q-61 0 -76.5 -13.5t-15.5 -58.5v-360z" />
<glyph horiz-adv-x="774" d="M86 121v188l281 160h190v-770h-244v539z" />
<glyph horiz-adv-x="774" d="M55 -121q0 68 40 117t97.5 73.5t115 43t97 39t39.5 49.5v78q0 43 -112 43q-57 0 -260 -35v168q164 27 297 26q162 0 243.5 -45t81.5 -155v-86q0 -82 -62.5 -135.5t-137 -72t-137 -47t-62.5 -67.5v-10h401v-164h-641v180z" />
<glyph horiz-adv-x="774" d="M45 -111l61 -12q133 -27 220 -27q59 0 82.5 12.5t23.5 49.5v70q0 37 -104 36h-178v154h178q74 0 73 51v58q0 27 -18 37t-78 10q-92 0 -256 -17v160l86 4q76 6 189 6q168 0 246.5 -34.5t78.5 -133.5v-108q0 -51 -53 -90q86 -39 86 -117v-104q0 -111 -81 -157t-251 -46 q-131 0 -246 14q-8 0 -31.5 2t-27.5 2v180z" />
<glyph horiz-adv-x="774" d="M16 -6l355 475h256v-471h88v-160h-88v-139h-226v139h-385v156zM225 -2h176v248z" />
<glyph horiz-adv-x="774" d="M61 -115q193 -35 269 -35q106 0 106 46v98q0 43 -71 43h-285v432h582v-168h-338v-102h104q39 0 79 -7.5t82 -23.5t68.5 -51t26.5 -84v-146q0 -53 -21.5 -92t-53 -59.5t-80 -31.5t-86 -14t-89.5 -3q-125 0 -293 16v182z" />
<glyph horiz-adv-x="774" d="M55 -84v328q0 66 23.5 111.5t57.5 69.5t87 37t93 16t98 3q39 0 178 -8q10 0 41 -2t39 -2v-166q-203 25 -275 25q-68 0 -85 -12.5t-17 -61.5v-55h111q68 0 104.5 -2t81.5 -12.5t67.5 -31t38 -57.5t15.5 -92v-88q0 -61 -19.5 -104t-49.5 -68t-77 -38t-88 -16t-96 -3 q-74 0 -123 7t-100 28.5t-78 69.5t-27 124zM295 47v-139q0 -47 14.5 -59.5t75.5 -12.5q59 0 72.5 12.5t13.5 59.5v96q0 29 -14.5 36t-73.5 7h-88z" />
<glyph horiz-adv-x="774" d="M33 299v170h665v-139l-323 -631h-271l324 600h-395z" />
<glyph horiz-adv-x="774" d="M41 -10q0 74 102 119q-74 37 -73 100v94q0 90 68.5 134t248.5 44t249 -44t69 -134v-94q0 -61 -78 -100q45 -20 75.5 -52t30.5 -67v-115q0 -106 -85 -147t-261 -41q-174 0 -260 41t-86 147v115zM293 -23v-88q0 -33 16.5 -43t78 -10t77.5 10.5t16 42.5v88q0 25 -17.5 36.5 t-74.5 11.5q-59 0 -77.5 -11.5t-18.5 -36.5zM313 215q0 -45 74 -45t74 45v74q0 23 -15.5 34t-58.5 11q-74 0 -74 -45v-74z" />
<glyph horiz-adv-x="774" d="M53 164v88q0 61 20.5 105t49.5 68t76 37t87 16t97 3q74 0 123 -6t101 -27.5t79 -70.5t27 -125v-324q0 -133 -86 -187t-271 -54q-131 0 -264 14v158q168 -18 262 -19q78 0 97.5 17.5t19.5 76.5v37h-113q-68 0 -104.5 2t-80.5 12.5t-66.5 30t-38 56.5t-15.5 92zM293 166 q0 -27 15.5 -35t72.5 -8h90v145q0 43 -14.5 53.5t-75.5 10.5q-59 0 -73.5 -10.5t-14.5 -53.5v-102z" />
<glyph horiz-adv-x="1957" d="M233 981v188l281 160h191v-770h-244v539zM475 0l803 1329h207l-803 -1329h-207zM1167 600v170h666v-139l-324 -631h-270l324 600h-396z" />
<glyph horiz-adv-x="1957" d="M55 559v180q0 68 40 117t97.5 73.5t115 43t97 39t39.5 49.5v78q0 43 -112 43q-57 0 -260 -35v168q164 27 297 26q162 0 243.5 -45t81.5 -155v-86q0 -82 -62.5 -135.5t-137 -72t-137 -47t-62.5 -67.5v-10h401v-164h-641zM475 0l803 1329h207l-803 -1329h-207zM1167 600 v170h666v-139l-324 -631h-270l324 600h-396z" />
<glyph horiz-adv-x="1957" d="M45 569v181l61 -13q133 -27 220 -26q59 0 82.5 12t23.5 49v70q0 37 -104 37h-178v153h178q74 0 73 51v58q0 27 -18 37t-78 10q-92 0 -256 -17v160l86 4q78 6 189 6q168 0 246.5 -34.5t78.5 -132.5v-109q0 -51 -53 -90q86 -39 86 -117v-104q0 -111 -81 -157t-251 -46 q-131 0 -246 14q-8 0 -31.5 2t-27.5 2zM475 0l803 1329h207l-803 -1329h-207zM1167 600v170h666v-139l-324 -631h-270l324 600h-396z" />
</font>
</defs>
</svg>
